<?xml version="1.0" encoding="utf-8"?>
<!-- Generator: Adobe Illustrator 24.2.1, SVG Export Plug-In . SVG Version: 6.00 Build 0)  -->
<svg version="1.1" id="Layer_1" xmlns="http://www.w3.org/2000/svg" xmlns:xlink="http://www.w3.org/1999/xlink" x="0px" y="0px"
	 viewBox="0 0 576.1 744.8" style="enable-background:new 0 0 576.1 744.8;" xml:space="preserve">
<style type="text/css">
	.st0{fill:#DDC3AE;}
	.st1{fill:#AC674D;}
	.st2{fill:#A55A3D;}
	.st3{fill:#A65C40;}
	.st4{fill:#A65B3E;}
	.st5{fill:#7B3C24;}
	.st6{fill:#A55A3E;}
	.st7{fill:#7C3D25;}
	.st8{fill:#A65B3F;}
	.st9{fill:#AA6449;}
	.st10{fill:#7B3B24;}
	.st11{fill:#8A4F37;}
	.st12{fill:#7C3C25;}
	.st13{fill:#A65C3F;}
	.st14{fill:#A75E42;}
	.st15{fill:#7E4028;}
	.st16{fill:#7E3F28;}
	.st17{fill:#A75D40;}
	.st18{fill:#7D3E26;}
	.st19{fill:#80422A;}
	.st20{fill:#8C5239;}
	.st21{fill:#8B5138;}
	.st22{fill:#A96246;}
	.st23{fill:#80422B;}
	.st24{fill:#894E35;}
	.st25{fill:#A4593C;}
	.st26{fill:#AB654B;}
	.st27{fill:#7F4129;}
	.st28{fill:#A96146;}
	.st29{fill:#AB654A;}
	.st30{fill:#80432C;}
	.st31{fill:#874C35;}
	.st32{fill:#7F422B;}
	.st33{fill:#90573E;}
	.st34{fill:#8C523A;}
	.st35{fill:#83472F;}
	.st36{fill:#935B42;}
	.st37{fill:#844830;}
	.st38{fill:#884C34;}
	.st39{fill:#7B3B23;}
	.st40{fill:#8E543B;}
	.st41{fill:#F8F3F1;}
	.st42{fill:#A66045;}
	.st43{fill:#8F5740;}
	.st44{fill:#884D35;}
	.st45{fill:#B3745B;}
	.st46{fill:#8A5037;}
	.st47{fill:#8E553D;}
	.st48{fill:#915A43;}
	.st49{fill:#7C3C24;}
	.st50{fill:#915940;}
	.st51{fill:#8D5239;}
	.st52{fill:#83462E;}
	.st53{fill:#83462D;}
	.st54{fill:#8A5038;}
	.st55{fill:#A3593D;}
	.st56{fill:#7F422A;}
	.st57{fill:#8C543D;}
	.st58{fill:#B06E54;}
	.st59{fill:#81442C;}
	.st60{fill:#8C533C;}
	.st61{fill:#854830;}
	.st62{fill:#CA9E8E;}
	.st63{fill:#B06E55;}
	.st64{fill:#905840;}
	.st65{fill:#8E563E;}
	.st66{fill:#B77C65;}
	.st67{fill:#8B5139;}
	.st68{fill:#B17159;}
	.st69{fill:#F8F3EF;}
	.st70{fill:#B5775F;}
	.st71{fill:#8A4E35;}
	.st72{fill:#C2907D;}
	.st73{fill:#F9F4F2;}
	.st74{fill:#CDA393;}
	.st75{fill:#D5B1A4;}
	.st76{fill:#BC8570;}
	.st77{fill:#80432B;}
	.st78{fill:#F1E6E2;}
	.st79{fill:#B97F69;}
	.st80{fill:#AB664B;}
	.st81{fill:#F1E5E1;}
	.st82{fill:#C3927F;}
	.st83{fill:#CFA896;}
	.st84{fill:#925B44;}
	.st85{fill:#925D46;}
	.st86{fill:#C49380;}
	.st87{fill:#7E3F27;}
	.st88{fill:#82452C;}
	.st89{fill:#E8D6CF;}
	.st90{fill:#B2725A;}
	.st91{fill:#D2AD9F;}
	.st92{fill:#A55B3E;}
	.st93{fill:#CEA68F;}
	.st94{fill:#BD876E;}
	.st95{fill:#B27358;}
	.st96{fill:#B27257;}
	.st97{fill:#CDA58E;}
	.st98{fill:#BD876D;}
	.st99{fill:#AD694D;}
	.st100{fill:#B17155;}
	.st101{fill:#B06E53;}
	.st102{fill:#AB6549;}
	.st103{fill:#B27259;}
	.st104{fill:#B58371;}
	.st105{fill:#CDA68E;}
	.st106{fill:#D3B19B;}
	.st107{fill:#B67A5F;}
	.st108{fill:#CFA790;}
	.st109{fill:#85452C;}
	.st110{fill:#894F36;}
	.st111{fill:#925B41;}
	.st112{fill:#8A4F36;}
	.st113{fill:#804229;}
	.st114{fill:#8C5138;}
	.st115{fill:#82442C;}
	.st116{fill:#8D533A;}
	.st117{fill:#83472E;}
	.st118{fill:#84482F;}
	.st119{fill:#85482F;}
	.st120{fill:#90563E;}
	.st121{fill:#884D34;}
	.st122{fill:#8E553C;}
	.st123{fill:#DDC2B7;}
	.st124{fill:#C19280;}
	.st125{fill:#F7F4F3;}
	.st126{fill:#7D3F27;}
	.st127{fill:#7F4027;}
	.st128{fill:#804129;}
	.st129{fill:#7F4128;}
	.st130{fill:#95604A;}
	.st131{fill:#844932;}
	.st132{fill:#955F48;}
</style>
<g>
	<g>
		<path class="st0" d="M386.3,292.1c2.7,7,9.3,11.1,13,17.4c5.2,8.9,4.2,14.6-4,20.9c-9.1-7.3-17.9-14.9-28-20.8
			c-34.8-20.4-75.5-29.5-106.9-56.4c6.7,10.1,16.2,17,26.2,23.3c15.9,10.1,33.3,16.8,50.2,24.7c18,8.4,36.2,16.4,51.3,29.7
			c-19.8-3.5-24.7,2-19,21.4c0.7,2.2,1.3,4.5,1.4,6.8c1,16.8-16.6,29.3-35.6,25.8c-8.7-1.6-16.2-6.5-24.7-8.4
			c-1.1-1-2.3-1.8-3.2-2.9c-27.5-32.5-49.8-67.9-61.4-109.3c-0.6-2.9-1.1-5.8-1.7-8.7c-0.7-3-1.4-6.1-2.5-10.8
			c-1,5.5-1.6,9.1,0.7,12.6c0.5,3.6-0.7,7.4,1.9,10.6c2.2,19.7,10.1,37.5,19.4,54.6c12.5,22.9,29.3,42.5,47.6,60.8
			c-8.3,11.6-15,13.8-25.8,8.5c-7.6-3.7-12-9.9-14.2-17.9c-1.2-4.5-2.5-9-4.2-13.2c-1.6-3.8-4.8-5.6-9.1-5.5
			c-4.2,0.1-6.2,2.6-7.8,5.9c-3.5,7.3-2.1,14.8-1.4,22.3c0.8,9.1,3.3,18.6-4.1,26.5c-0.7-1.9-1.6-3.8-2.1-5.7
			c-9.7-37.3-12.5-75.3-12.1-113.6c2.8-6.4,1.1-13.1,1.3-19.6c0-3,0.9-6.1-1-10.3c-0.3,3.7-0.5,6.1-0.7,8.6c-2.7,3.4-1.4,7.3-1.4,11
			c-4.6,45.6-1.6,90.6,10.2,135c-6.5-2.7-9.9-7.5-11.1-14.6c-0.6-3.6-2.3-7.3-4.3-10.4c-2-3.1-4.9-6.5-9.4-3.9
			c-4.1,2.5-11.2,1.3-10.5,10c0.5,6.8,1.5,14-1.2,20.7c-0.1-2.9-0.4-5.8-0.4-8.7c1.5-44.3,3.5-88.5,14.2-131.7
			c2.3-3.1,2.5-6.6,2.8-11.7c-3.3,2.9-4.5,5.2-4.5,8.1c-7.5,21.3-11.6,43.2-14.7,65.5c-1.7,12.2,0.3,24.5-2.8,36.4
			c-0.1-3.2-0.4-6.4-0.3-9.6c0.1-3.8-1.3-5.7-5.3-6.5c-12.5-2.7-15.2-7.1-16-19.9c-0.7-12.4,2.7-24.2,3.8-36.3
			c1.9-6.5,5.3-12.2,9.5-17.4c7.4-9.3,14.7-18.7,22.1-28.1c1.8-2.3,3.5-4.7,5.3-7c3.7-0.1,5.7-2.5,6.9-5.7c0.6-1,1.2-2,1.8-3
			c8.6-1.6,15.1-6.2,18.4-14.3c2.9-7.1,7.9-11.2,15-13.2c5.3-1.5,10.6-3,15.9-4.5c7,0.1,14,0.2,21,0.3c0,0.6-0.1,1.2-0.1,1.8
			c-9.5,6.7-9.7,17.8-0.3,22.6c2.2,4.6,6.7,6.6,10.7,9.2c-1.2,0.6-2.4,1.1-3.5,1.7c-6.4,0.1-11.7-2.9-17.1-5.7
			c-2.9-2.3-5.8-4.7-8.7-7c0.9,4.6,3.4,7.2,6.8,8.8c16.4,12.5,35.1,11.7,54.1,10c14.7-1.4,29.4-4.9,44.3-1.3
			c-1.2,3.3,2.2,3.3,3.5,4.7c5.9,6.3,6.9,13.1,2.9,20.5c-1.5,2.8-3.5,5.3-3.4,8.7c-38.8-11.2-78.7-19-113.9-40.3
			c-2.2-2.3-4.2-4.9-8.4-5.2c2.3,3.8,4.7,6,8.1,7.1c2.6,3.7,6.7,5.6,10.3,7.9c17.1,10.9,36,17.5,55.3,23.4
			C352.5,281.6,370,284.8,386.3,292.1z M247.1,246.4c0.7,2.8,1.7,5.4,3.8,7.5c15.9,34.4,45.5,55.2,74.8,76.2
			c-8-9.2-16.8-17.7-25.8-25.9c-16.8-15.4-32.7-31.6-45.5-50.5c1.9-2.7,1.2-5.7-0.3-7.9C251.8,242.1,248.9,240.5,247.1,246.4z
			 M232.6,246.7c0.1,3.5-3.1,6.8-1.5,11.3C234.7,254.3,233.3,250.5,232.6,246.7z"/>
		<path class="st0" d="M470.7,438c-0.2,19.5-0.8,39.1-0.5,58.6c0.1,7.5-2.4,9.3-9.5,9.2c-49.9-0.3-99.9,0.2-149.8-0.4
			c-12.2-0.1-20.3,3.3-24,17.1c-3.8-14.5-12.6-17.2-25-17.1c-49.4,0.6-98.7,0.3-148.1,0.1c-3.3,0-7.8,2.3-9.8-2.9
			c1.9,0.1,3.8,0.5,4.9-1.7c5.2,0.2,10.5,0.6,15.7,0.7c45.9,0.1,91.8-0.4,137.8,0.3c12.6,0.2,20.9-3.2,24.3-16.4
			c6.2,14.6,8.5,16.1,23.3,16.1c48.8,0,97.7-0.1,146.5,0.2c7.2,0,9.5-1.7,9.4-9.1c-0.4-31.9-0.1-63.8-0.3-95.6
			c0-2.9,1.6-6.6-2.2-8.7c0.8-1.3,2.1-1.4,3.5-1.5c0.6,0.1,1.2,0.1,1.9,0.2c0.6,12.2-1.9,24.5,1.4,36.5c-0.8,3-1.5,6-2.3,8.9
			C467.1,435.2,467,437.5,470.7,438z"/>
		<path class="st0" d="M237.4,151.5c0.2-0.2,0.5-0.3,0.6-0.6c11.8-23.1,15.6-24.6,39.3-15.1c-0.5,17,0.9,33.6,9.2,48.9
			c0.7,1.6,0.6,4.4,3.6,2c0.9,0.6,1.8,1.2,2.7,1.7c0.2,5.4,0.2,10.8,0.7,16.2c0.4,5.1-2.4,1.9-4.1,1.8c-2.8-0.9-5.7-1.7-8.5-2.6
			c-2.3-2.8-6.5,0.1-8.7-3c3.4-0.6,6.8-1.3,10.3-1.9c3.6-0.2,4.6-1.8,2.7-5c-13.4-17.2-23.3-36-26.2-58c-4,22.6,3.8,41,20,56.3
			c-0.6,0.6-1.3,1.2-1.9,1.8C259,184.4,246.5,169.5,237.4,151.5z"/>
		<path class="st0" d="M244.4,409.9c1.8,10.7,5.5,20.8,10.3,30.4c2.8,5.6,7,10.3,14.2,10c7.1-0.3,9.4-6.2,12-11.3
			c1.2-2.3,1.5-5,2.2-7.5c3.6-14.1,14.3-20.9,28.9-18.5c6.3,1,12.7,1.9,19,2.9c11.2,1.7,19.7-1.9,26-11.8c3.1-4.9,5-11.3,11.6-13.4
			c-3.7,8.9-8.7,17.1-15,24.2c-5.2,5.9-12.7,6.8-20.2,6.1c-8.1-0.7-16.2-2.1-24.4-2.5c-12.2-0.6-17,3.2-19.9,15
			c-1.1,4.3-2.3,8.4-4.6,12.2c-8.9,14.8-24.2,15.1-33.6,0.4c-6.1-9.5-8.3-20.5-11.9-30.9c-11.8-44.4-14.8-89.4-10.2-135
			c2.9,3.1,0.6,7,1.7,10.4c-0.5,38.4,2.3,76.4,12.1,113.6C242.8,406.1,243.7,408,244.4,409.9z"/>
		<path class="st0" d="M145.9,83.6c-18.6,25.4-31.8,53-36.1,84.4c-3.6,25.9-2.1,52-1.9,78c0.1,9,8.7,11.6,15.7,15.2
			c-13.8,5.6-16.1,8.7-15.9,23.1c0.2,10.2-1.2,20.4,0.8,30.5c0.3,0.2,0.6,0.4,0.8,0.6c-1.2,2.2-2.5,4.4-3.7,6.5
			c-0.6,0.6-1.1,1.2-1.7,1.8c0-13.1-0.7-26.3,0.2-39.4c0.8-11.7-3.5-19.1-17.4-23.6c17-3.7,17.5-14.6,17.3-26.8
			c-0.3-27.1-1.9-54.3,4.8-81c6.6-26.3,17.4-50.6,35.1-71.4C144.6,82.1,145.3,82.9,145.9,83.6z"/>
		<path class="st0" d="M280.9,203.9c2.8,0.9,5.7,1.7,8.6,2.6c-4.7,3.4-10.8-0.8-15.4,2.7c-5.3,1.5-10.6,3-15.9,4.5
			c-7.1,2-12.1,6.1-15,13.2c-3.3,8-9.8,12.7-18.4,14.3c-0.7-0.5-1.5-1-2-1.6c-0.6-0.7-0.7-1.6,0.7-1.7c9.6-1,12.4-8.5,15.3-15.9
			c0.8-1.7,1.5-3.3,2.3-5c1.1-0.9,2.8-2.2,1.4-3.3c-1.7-1.3-3.9-0.4-5.6,1c-15.5,1.5-28.7-4.9-41.7-12.1c-0.1-1.2-0.1-2.3-0.2-3.5
			c2.3,0.3,4.7,0.6,7,0.9c17.7,7.5,35.4,17.3,54.1,2.5c1.9-1.2,3.9-2.4,5.8-3.6c3.1-0.7,6.1-1.4,10.5-2.4
			c-15.8-7.7-26.7-18.9-34.8-33c-1.4-4.4-2.8-8.8-4.3-13.3c0.6-1.3,1.2-2.5,1.8-3.8c0.8,1.6,1.6,3.3,2.4,4.9
			c9.1,18,21.6,32.9,39.7,42.6c1.4,2.1,4.6,2.2,5.4,5c-3.4,0.6-6.8,1.3-10.3,1.9c-2.8,0.1-5.2,1.1-7.8,3
			C270.5,203.9,275.7,203.9,280.9,203.9z"/>
		<path class="st0" d="M292.9,188.5c-0.9-0.6-1.8-1.2-2.7-1.7c-0.7-1.8-1.4-3.6-2-5.4c-3.4-19.1-5.8-38.3-5.3-57.8c0.5,0,1,0,1.4,0
			c0.1,2,0.2,4,0.2,6c0,3.4,0.6,4.7,4.5,2.9c16.4-7.8,21.1-5,23.8,13.6c0.1,0.7,0.9,1.4,1.4,2C306.2,161.1,296.1,173,292.9,188.5z"
			/>
		<path class="st0" d="M291.4,95.9c-15-0.8-29.1,2.6-41.8,10.3c-22.4,13.6-44.7,27.3-66.4,42c-18,12.1-21.4,27.3-12.8,47.2
			c3.2,8.1,9.5,13.7,15.6,19.5c-0.6,0.6-1.3,1.2-1.9,1.8c-29.6-17.9-31.8-54.8-3.7-74.2c19.9-13.7,40.7-25.9,61.5-38.3
			c15.2-9.1,31.8-12.6,49.5-10.3C291.4,94.6,291.4,95.2,291.4,95.9z"/>
		<path class="st0" d="M256,202.5c-18.8,14.8-36.4,5.1-54.1-2.5c-0.4-3.2-2.6-4.9-5.2-6.2c-2.4-4-6.7-6.6-8.2-11.2
			c-2.5-7.6,0.2-11.3,8-10c2.5,0.4,5.1-2.1,7.3,0.4c10,17.4,26.2,24.7,45.1,27.6C251.3,201,254.2,199.7,256,202.5z"/>
		<path class="st0" d="M386.3,292.1c-16.2-7.3-33.7-10.5-50.6-15.6c-19.3-5.9-38.2-12.5-55.3-23.4c-3.7-2.3-7.7-4.2-10.3-7.9
			c0.1-0.6,0.2-1.3,0.3-1.9c35.2,21.3,75.1,29.1,113.9,40.3c11.9,6.1,24.4,10.7,34.5,20.1c12.4,11.5,17,25.2,14.2,42.1
			C432,315,412.7,300.4,386.3,292.1z"/>
		<path class="st0" d="M441,255.3c-1.7-5.8-4.6-11.3-3.8-17.6c3-2.3,4.7,0.8,7,1.8c2.4,2.4,5.7,2.7,8.8,3.5c2.3,1.2,4.7,2.3,7,3.5
			c0,0,0,0,0,0c-1.5,2.8-5.9,1.2-8,6.8c4.6-3.9,8-2.2,11.5-1.6c2.9,1.5,2,4.9,3.5,7c0.2,2.8,1.2,5.2,3.5,7l0,0
			c0.9,6.4,4.1,11.9,7.1,17.5c-1.8,2.7-4.6,1.5-7,1.8c-4.1-1.8-8.2,0.9-12.3,0c-4.2,1.2-6.8-2.2-10.1-3.5
			c-1.4-5.7-2.8-11.4-4.2-17.2c2.5-4.1,8.6-0.3,10.9-4.9C450.2,258.1,445.6,256.7,441,255.3z M452.8,275.2c2.2,2.5,4.5,4,7.5,1.7
			C457.5,276.2,455.1,275.7,452.8,275.2z"/>
		<path class="st0" d="M305.3,243.2c-3.9-2.6-8.4-4.6-10.7-9.2c-0.7-5.2-7.1-10.6,0.3-15.6c3,15.8,21.3,28.8,37.7,27.2
			c14.8-1.4,29.4-4.9,44.4-2.7c10,1.5,19.6,3.9,27.6,10c6.4,4.8,12.2,10.5,7.8,19.9c-0.6-0.6-1.2-1.3-1.7-1.9
			c-0.3-11-8.7-14.7-17-18.2c-3.9-1.6-8.3-2-12.5-2.9c-14.9-3.6-29.6-0.1-44.3,1.3c-19,1.7-37.7,2.5-54.1-10
			c0.6-0.6,1.2-1.2,1.9-1.8c5.4,2.8,10.7,5.8,17.1,5.7c2.9,2,5.9,2.1,10,0.6C309,244.5,307.1,243.8,305.3,243.2z"/>
		<path class="st0" d="M196.4,413.2c0.2-12.8,0.4-25.6,0.6-38.4c3.1-12,1.1-24.3,2.8-36.4c3-22.3,7.2-44.2,14.7-65.5
			c0.6,1.2,1.1,2.3,1.7,3.5c-10.7,43.3-12.7,87.5-14.2,131.7c-0.1,2.9,0.2,5.8,0.4,8.7c-0.1,6.1-0.2,12.1,0.8,18.1
			c1.6,9,6.4,15.2,15,18.4c-0.7,0.5-1.4,1.1-2.1,1.6c-11.2-2-15.7-10.3-17.5-20.1C197.2,427.8,197,420.5,196.4,413.2z"/>
		<path class="st0" d="M448.2,281.6c3.3,1.3,5.9,4.7,10.1,3.5c3.7,3.4,8.2,1.1,12.3,1.7c6.2-1.2,9.5,2.5,9.7,7.8
			c0.2,5.5,2.3,10.2,4.1,15.1c0.4,4.8,0.8,9.5,1.4,15.6c2.9-4.2,5-7.3,7.2-10.5c0.7,0.1,1.3,0.1,2,0.2c-0.8,3.4,3.7,4,3.6,7.1
			c-3.9-0.5-5.5,1.8-6.8,5c-2.9,7.1-6,14.2-9,21.3c-1.7,1.2-2.5,3.8-5.2,3.4c0.2-0.6,0.3-1.2,0.5-1.7c2.9-7.1,1.1-14.4,1.2-21.6
			c0.6-7.4-0.2-14.1-8.6-17c-1.2-2-3.3-2.6-5.3-3.4c-4.6-1.5-9-3.3-10.7-8.5c4.2-4.7,10.2,1.1,16.6-3.5c-8.1,0-14.2-0.9-19.7-3.9
			C449.3,288.9,448.6,285.3,448.2,281.6z M464.3,291.2c-2.7-1-4.5-1.3-6.3,0.1C459.8,292.5,461.6,292.3,464.3,291.2z"/>
		<path class="st0" d="M179.1,302.5c-15.7,21.4-27.1,44.9-29,71.6c-0.9,13.8,8.1,20.8,22.1,21.6c4.6,0.3,9.6-0.1,12,5.2
			c-3.9-1.5-7.9-2.6-12-1.9c-17.5,2.8-30.1-14.2-28-31.8c1.4-12,5.6-23.3,10.4-34.2c11.9-27,27.7-51.3,48.9-72c2-1.9,3.3-5.1,7.1-4
			c-7.4,9.4-14.7,18.8-22.1,28.1C184.4,290.4,181,296,179.1,302.5z"/>
		<path class="st0" d="M186.1,214.9c-6.1-5.8-12.4-11.4-15.6-19.5c6.2-2.6,10.8,1.4,15.9,3.6c2.9,1.2,5.8,2.3,8.7,3.5
			c13,7.2,26.2,13.7,41.7,12.1c1.6,0.3,3.2,0.6,4.1,2.3c-0.8,1.7-1.5,3.3-2.3,5c-9.8,1.9-19.6,4.5-29.7,3.3c-0.9-1.3-2.3-2-3.6-1.3
			c-1.7,1,0.6,2.4,0.1,3.6c-3.5-1.5-6.6-3.9-10.7-4.1C194.7,217.9,189.1,217.7,186.1,214.9z"/>
		<path class="st0" d="M405.6,348.3c-5.7-6-10.7-12.7-17.6-17.5c-15.1-13.3-33.3-21.3-51.3-29.7c-16.9-7.9-34.4-14.6-50.2-24.7
			c-10-6.3-19.4-13.2-26.2-23.3c31.4,27,72.2,36,106.9,56.4c10.1,6,18.9,13.5,28,20.8c4.1,5.3,9.2,9.8,12.3,15.8
			C406.9,346.9,406.2,347.6,405.6,348.3z"/>
		<path class="st0" d="M560,300.5c-7.9,7-14.2,16-24.6,19.8c-3.3,1.2-6.6,2-10.1,1.8c-5.3-0.2-10.6-0.3-15.9-0.5
			c-2.4-2.8-4.8-5.6-7.2-8.4c0-0.6,0-1.2,0.1-1.8c0.6-0.6,1.2-1.2,1.7-1.8c1.2,1.2,2.3,2.3,3.5,3.5c0.3,3.6,2.2,5.6,5.4,6.8
			c3-6.6-2.7-5.4-5.5-6.8c-0.3-2.6,0.6-4.8,1.8-7c0.6-0.6,1.2-1.2,1.8-1.7c1.8,0.6,3.5,1.2,5.3,1.7c2.3,1.9-3.2,5.8,1.8,7
			c1.8,2.9,3.8,5.5,8.3,7.1c-1.5-2.5-2.3-3.9-3.1-5.4c3.1,0.1,2.7-1.6,1.8-3.6c1.8,0.6,3.5,1.2,5.3,1.8c1.9,3.9,4.5,3.6,7.8,0.8
			c-2.1-1.5-4.1-2.9-6-4.3c-2.9-0.5-4.6-7.3-8.8-1.7c-1.8-1.8-3.5-3.5-5.3-5.3c0-4.2,5.5-0.1,5.1-2.9c-0.9-6.2,4.4-10.7,3.5-16.7
			c0.8-1.7,2.2-1.5,3.7-1.4c0,1.7,0,3.5,0,5.2c-1.5,5-7.6,9.9,0.6,15.5c-3.8-4-1.3-6.2,1.2-8.5c1.9,0,4,0.3,5.2-1.8
			c1.8,0,3.5,0,5.3,0c2.6,3.9,5.7,6.2,10.5,3.6C553,300.5,558.2,298.1,560,300.5z"/>
		<path class="st0" d="M425,75.9c23.3,25.5,36.5,55.9,42.1,89.7c4.2,24.9,2.8,50.1,2.9,75.2c0,4.4,0,8.8,2.5,12.7
			c-0.7,0-1.3,0-2,0.1c-2.8-3-4.8-6.8-8.9-8.6c0.1-0.7,0.1-1.4,0.2-2.1c3.6,1,3.9-1.3,3.9-3.8c0.2-39,2.2-78.1-14.5-115.1
			C443.8,107.3,434,92.3,423,78C423.7,77.3,424.3,76.6,425,75.9z"/>
		<path class="st0" d="M137.4,313.3c-2,7-4,14-6,20.9c-2.3,0-4.5,0-7.4,0c2,2.6,5.2,1.3,6.2,3.9c-0.2,1-0.3,2.1-0.5,3.1
			c-2.7,2-6.6,1.5-9.3,4.8c1.7,0.2,3,0.4,4.3,0.6c-3,1-4.8,5.1-8.8,3.4c-4.1-1.7-8.2-1.7-12.3,0c-1.2,0.6-2.4,1.2-3.5,1.8
			c0.6-3.6,1.2-7.1,1.8-10.7c1.3-1.1,2.4-2.7,3.9-3.1c8-2.3-2.6-2.3-0.4-3.8c8.6,0.1,3.8-5.3,3.5-8.8c0,0,0,0,0,0
			c4.5-0.7,2.2-4.8,3.5-7l0,0c1.2-0.6,2.3-1.2,3.5-1.8c0.6-0.6,1.2-1.1,1.8-1.7c2.3-0.9,6.1,4.3,7-1.8l0,0
			C128.9,316.5,133.2,313.7,137.4,313.3z M124.7,327.2c1.7-0.4,3.8,0.9,5.8-1.5c-3.5-0.3-5.9-3-9.5-1.5
			C122.2,325.2,123.4,326.2,124.7,327.2c-2.3,0.4-4.8-0.8-7.3,1C120.3,329.3,122.7,329.5,124.7,327.2z"/>
		<path class="st0" d="M94.7,416.7c-3.5-9.2-7.1-18.4-10.6-27.7c1.2-1.9,2.3-0.8,3.5,0c0.9,0.7,2,1.5,3,0.3c1.2-1.4-0.1-2.6-0.8-3.8
			c1.8-0.8,1.5-2.6,1.9-4c2.2-2.1,0.9-5.1,1.7-7.4c1.9-5.3,1-11.8,6.7-15.4c3.6-0.6,7.1-1.2,10.7-1.7c3.5,0,7,0,10.5,0
			c-1.8,1.2-3.5,2.3-5.3,3.5c-5.2,0-10.4,0-15.6,0c5.2,1.3,10.2,4.6,15.6,1.7c2.5,0.3,4.7-0.4,6.8-1.7c1,6.1-3.5,8.5-7.6,10.9
			c-2.6,1.6-5.9,2.2-7.8,4.9c-1.5,0-2.9,0.1-3.7,1.6c-4.2,1.8-6,4.7-5.7,9.6c0.6,9.6,0.7,19.3,1,28.9
			C97.5,416.6,96.1,416.7,94.7,416.7z"/>
		<path class="st0" d="M477.4,351.8c2.7,0.4,3.5-2.3,5.2-3.4c-0.8,3.1,1.2,4.4,3.7,5.3c-1.5,2.7-5.5,0.6-7,3.5
			c-5.4-1.8-3.6,2.2-3,4.2c2,7,4.4,13.9,6.6,20.8c-1.1,1.2-2.3,2.4-3.4,3.5c-0.5-0.9-0.9-1.8-1.4-2.7c-0.9,1-1.8,1.9-2.6,2.9
			c-1.6,0.4-3.3,0.8-4.9,1.2c-0.6-0.1-1.2-0.1-1.7,0.1c-0.6-0.1-1.2-0.1-1.9-0.2c-4.2-6.3-5.1-14.4-11.9-22c2,9.4,3.5,16.5,4.9,23.6
			c-1.7,0-3.5-0.1-5.2-0.1c1.5-2.4,0.8-4-1.8-4.9c-1.3-3.5,2.8-8.7-3.5-10.5c1-1.9,3.8-2.7,3.4-5.4c-0.6-1.1-1.2-2.3-1.7-3.4
			c5.7-0.7,10.5-2.6,12.3-8.8c2.2-0.2,4.8,0.6,5.7-2.5c-1.3-0.3-2.7-0.7-4-1c-1.9-2.3,1.9-1.8,1.6-3.4c1.1,0.6,2.2,1.1,3.4,1.7
			C472.6,350.7,475,351.2,477.4,351.8z M467.3,360.6c0.8,2,1.6,4,2.8,6.8C472.1,363.4,470.4,361.7,467.3,360.6z"/>
		<path class="st0" d="M38.5,383.4c-9.9-2.4-14-11.6-21.1-17.4c4.6-4,11-4.1,15.9-7.3c3.5-2.9,7-0.5,10.5,0c0,0,0,0,0,0
			c0.7,1.4,2.1,1.7,3.5,1.9c-0.4,7.3,3.1,2.4,5.3,1.7c0,0.6,0,1.2,0,1.7c-1.2,2.9-2.4,5.8-3.5,8.8c-2.1,0.2-4.5,0.8-4.5,3
			c-0.1,3,2.7,2,4.5,2.2c0.3,2.8-2.4,3.5-3.5,5.3C43.3,383.4,40.9,383.4,38.5,383.4z"/>
		<path class="st0" d="M237.5,163.6c8.1,14.1,19.1,25.3,34.8,33c-4.4,1-7.4,1.7-10.5,2.4c-12.9-3.4-26-6-37.3-13.6
			C234.4,183.2,236.6,179.6,237.5,163.6z"/>
		<path class="st0" d="M301.7,188.4c5.9-13.6,15.7-24.5,25.5-35.3c8.3-9.2,19.3-17.6,9.7-32.9c8.9,6.7,10.2,15.6,4.4,24.9
			c-5,8-11.6,14.6-17.9,21.5c-10.7,11.9-19.7,24.6-21.7,41.1c-2.6-2.6-0.9-5.9-1.6-8.9c0-1.1,0-2.3-0.1-3.4
			C300.6,193.1,301.2,190.7,301.7,188.4z"/>
		<path class="st0" d="M292.9,188.5c3.2-15.5,13.4-27.4,21.2-40.5c4.6-6.9,7.8-14.3,9.2-22.5c3.2,2.4,0.7,6,1.8,8.8
			c-1.3,9.6-6.5,17.4-11.2,25.4c-4.9,8.3-10.8,15.9-13.7,25.3c-2,1.8-1.8,4.3-2.1,6.6c-2.7,5.1-1.1,10.6-1.3,15.9
			c-0.6,0.7-1.2,1.4-1.9,2c-7-0.1-14-0.2-21-0.3c4.7-3.5,10.7,0.7,15.4-2.7c1.6,0,4.5,3.3,4.1-1.8
			C293.1,199.3,293.1,193.9,292.9,188.5z"/>
		<path class="st0" d="M324.8,234.3c13.4-13.1,19.8-29.4,17.2-47.7c-1.6-11.2-0.4-20.5,5.9-29.5c0.5-0.1,1-0.2,1.5-0.3
			c0,1.3,0.1,2.6,0.1,3.9c-4.1,8.6-3,17.1-1.2,26.3c3.6,18.3-4.9,33.4-15.8,47.2c-3,3.8-7.9,4.8-12.8,3.3
			C321.4,236.4,323.1,235.3,324.8,234.3z"/>
		<path class="st0" d="M553,295.6c-4.8,2.6-8,0.4-10.5-3.6c0.6-1.2,1.1-2.3,1.7-3.5c1.2-6,5.2-5.2,9.6-2.9c-0.3-3.2-0.6-5.4-0.8-7.7
			c0-0.5,0-1,0-1.4c4-0.2,8-0.7,12-0.5c3.8,0.2,8.9-1.7,10.5,3.2c1.4,4.3-1,8.3-4.8,11.1c-1.7-0.3-3.7-1.3-5.1-0.8
			c-2.3,0.8-5.5-1.9-7,1.7c-1.8,4.6,3.6,3.5,4.7,5.9l0,0C559.9,297.4,556.3,297.7,553,295.6z"/>
		<path class="st0" d="M287.5,36.8c-3.6-9.3-7.8-15.7-18.9-17.9c9.9-4.3,15.7-9.6,18.5-18.8c2.6,9.2,7.6,14.8,17.4,17.7
			C296,22,288.8,25.9,287.5,36.8z"/>
		<path class="st0" d="M109,500.9c-1,2.2-3,1.8-4.9,1.7c-7.9-17.3-7-35.9-7.8-54.2c1.2,0.6,2.5,1.2,3.7,1.8c0,1.9-0.3,3.8,1.5,5.2
			c0.2,1.6,0.4,3.3,0.7,4.9c-0.5,3.6,0.3,6.6,3.2,9c-2.8,5.2-0.6,9.7,1.8,14.2C107.8,489.3,108.4,495.1,109,500.9z"/>
		<path class="st0" d="M224.5,185.3c11.3,7.6,24.5,10.2,37.3,13.6c-1.9,1.2-3.9,2.4-5.8,3.6c-1.8-2.8-4.7-1.5-7.2-1.9
			c-18.9-2.9-35.1-10.2-45.1-27.6C211.8,175.2,216.6,182.8,224.5,185.3z"/>
		<path class="st0" d="M475.5,385.8c0.9-1,1.8-1.9,2.6-2.9c0.5,0.9,0.9,1.8,1.4,2.7c-0.1,14.4,1,28.8-3.8,42.8
			c-1.2,3.4-1.5,7.4-5.1,9.6c-3.7-0.5-3.6-2.8-2.8-5.5c0.9-2.9,1.6-5.9,2.3-8.9c0.6-4.1,1.2-8.2,1.8-12.3
			C473.2,402.8,474.4,394.3,475.5,385.8z"/>
		<path class="st0" d="M282.8,123.6c-0.4,19.5,1.9,38.7,5.3,57.8c-0.5,1.1-1,2.3-1.5,3.4c-8.3-15.3-9.7-31.9-9.2-48.9
			c1.2-4.1,2.4-8.1,3.7-12.2C281.6,123.6,282.2,123.6,282.8,123.6z"/>
		<path class="st0" d="M33.4,358.8c-5,3.2-11.3,3.3-15.9,7.3c-1.7-1.4-3.3-2.8-5-4.2c2.3-1.6,6.8-2.1,3.4-6.6
			c-1.2-1.2-2.3-2.3-3.5-3.5c1.2-0.6,2.4-1.2,3.6-1.8c1.9-0.4,4.1,2.1,5.7,0c2.5-3.5-1.5-5.7-2.2-8.6c3.6,0,7.3-0.7,10.6,1.3
			c0.6,3,1.1,6.1,1.7,9.1C32.2,354.2,32.8,356.5,33.4,358.8z"/>
		<path class="st0" d="M45.7,383.4c1.1-1.8,3.8-2.6,3.5-5.3c0.5-1.7,2.8-3.5,0-5.2c1.2-2.9,2.4-5.8,3.5-8.8c2.5,1.9,1.5,4.6,1.7,7.1
			c-1.6,2.4,1,2.1,1.8,2.4c2,0.7,2.8-0.9,3.5-2.4c1.2,0,2.3,0,3.5,0c3.9-0.3,4.7,3.5,7,5.3c-2,4.1-5.6,6.9-8.7,10.1
			c-3.1,0.2-6.3,0.5-9.4,0.7c-1-0.2-2-0.3-3-0.5C48,385.6,46.8,384.5,45.7,383.4z"/>
		<path class="st0" d="M91.3,446.2c-11-5.3-13.3-9.5-10.2-18.8c1.7,0.1,2.6,4,4.9,1.4c2.5-2.9-1-4.6-1.8-6.8c1.5-2.8,4-3.7,7.1-3.4
			c3.8,1.7,0.6,7.6,5.3,8.8C93.9,433.3,92.3,439.6,91.3,446.2z"/>
		<path class="st0" d="M101.5,455.4c-1.7-1.4-1.4-3.4-1.5-5.2c0-0.6,0.1-1.2,0.1-1.9c2.5,1.1,4.9,2.4,5.3-2.2
			c0.4-4.1-0.9-7.9-1.8-11.8c0.2-0.2,0.3-0.5,0.5-0.7c0.2-0.2,0.6-0.5,0.7-0.5c3.2,1.9,0.9,6.1,4.3,9.4c0.5-6.6,2.1-12,5-17
			c2.5,0,5.1-0.1,5.3,3.4c0,0.6,0,1.2,0,1.8c0.9,6.7-6.9,10.7-5.3,17.6c-1.3,1.2-2.5,2.5-3.8,3.7l-0.5,0.2c0,0-0.5-0.2-0.5-0.2
			c-1.3,0-2.7-0.1-4-0.1c-0.5-0.1-1.1-0.1-1.6-0.1C100.7,451.7,101.8,454,101.5,455.4z"/>
		<path class="st0" d="M54.4,371.1c-0.2-2.4,0.8-5.2-1.7-7.1c0-0.6,0-1.2,0-1.7c1.2-0.6,1.2-1.2,0-1.8c0.5-4.6-2.8-7.9-3.9-12
			c0.2-0.3,0.5-0.5,0.9-0.6c6.9,2.6,13.8,5.2,18.7,11c-0.4,4.6-7.4,6.4-5.2,12.1c-1.2,0-2.3,0-3.5,0C57.9,369,56.2,371.7,54.4,371.1
			z"/>
		<path class="st0" d="M425,75.9c-0.7,0.7-1.3,1.4-2,2.1c-15.1-17-33-30.7-52.5-42.3c0.8-0.6,1.6-1.3,2.3-1.9
			C393.4,43.8,410.5,58.2,425,75.9z"/>
		<path class="st0" d="M553,278.1c0.2,2.3,0.5,4.5,0.8,7.7c-4.4-2.4-8.4-3.1-9.6,2.9c-2.8,0.3-5.2,1.2-7,3.5
			c-1.2,2.1-3.3,1.7-5.2,1.8c-2.6-1.8-1.5-4.6-1.8-7c0-1.7,0-3.5,0-5.2c4.7-3,9.9-3.6,15.3-3.7C548,277.7,550.4,282.2,553,278.1z"/>
		<path class="st0" d="M114.2,425.5c-2.9,5-4.5,10.4-5,17c-3.4-3.2-1.1-7.5-4.3-9.4c-0.1-0.1-0.5,0.3-0.7,0.5
			c-0.2,0.2-0.3,0.5-0.5,0.7c-2.3,4.4,0,9.9-3.5,14c0,0.6-0.1,1.2-0.1,1.9c-1.2-0.6-2.5-1.2-3.7-1.8c-1.1-0.6-2.2-1.2-3.3-1.8
			c5.1-6.8,3.7-16.2,8.9-22.9c0.3,1.3,0.5,2.5,0.8,3.8c0.8-1.1,2.2-2.2,2.1-3.2c-0.2-2.6-1.9-0.6-2.9-0.6c0-1.2,0-2.3,0-3.5l0,0
			c2.6-0.3,4.8,0.6,7,1.8c0,0.6,0,1.1,0,1.7c-1.5,1-3.1,3.1-2,4.1c1.8,1.5,2.1-2,3.7-2.3C111.8,425.5,113,425.5,114.2,425.5
			L114.2,425.5z"/>
		<path class="st0" d="M122.7,360.6c-2.1,1.3-4.3,2-6.8,1.7c0-0.6,0-1.2,0-1.7c1.8-1.2,3.5-2.3,5.3-3.5c0.1-0.3,0.3-0.5,0.3-0.8
			c0-0.2-0.2-0.7-0.4-0.7c-3.6-0.1-7.3-1.6-10.5,1.4c-3.6,0.6-7.1,1.2-10.7,1.7c-1.4-2.2-5.4-1.9-5.5-5.5c0,0,0.1,0.1,0.1,0.1
			c1.8-0.5,3.7-1.1,5.5-1.6c1.2-0.6,2.4-1.2,3.5-1.8c4.1,2.8,8.2,2.7,12.3,0c4,1.6,5.8-2.5,8.8-3.4c1.3-0.6,2.5-1.2,3.8-1.8
			C128.3,350.7,127,356.2,122.7,360.6z"/>
		<path class="st0" d="M516.2,306.1c-1.8-0.6-3.5-1.2-5.3-1.7c-0.9-3.2-1-6.8-4-9c4.8-7,12.5-9.1,19.6-12.4
			c0.8,5.9-4.5,10.5-3.5,16.7c0.4,2.8-5.2-1.3-5.1,2.9C516.5,303.4,516.2,304.7,516.2,306.1z M515.3,299.6c1.4-1.7,0.6-3-0.6-4.2
			c-0.2-0.2-1.3,0-1.3,0.1C513,297.3,514,298.5,515.3,299.6z"/>
		<path class="st0" d="M470.2,350.1c-1.1-0.6-2.2-1.1-3.3-1.7c-1.1-0.5-2.2-1-3.3-1.5c3.4-1.4,2.3-4.4,2.3-6.8
			c-0.3-10.7,0.9-21.5-0.7-32.1c2,0.8,4.1,1.5,5.3,3.4C469.3,324.3,469.8,337.2,470.2,350.1z"/>
		<path class="st0" d="M145.9,83.6c-0.7-0.7-1.3-1.4-2-2.1c11.1-14.8,24.1-27.5,40-37.1c0.7,0.7,1.5,1.3,2.2,2
			C171.4,57.3,157.8,69.5,145.9,83.6z"/>
		<path class="st0" d="M479.3,357.1c1.5-2.9,5.5-0.7,7-3.5c7.4,0.7,8.9,6.7,10.3,12.2c1.5,5.8-1.6,9.9-6.7,12.7
			c-0.4-2.5,0.8-5.4-1.8-7.3c-0.3-2.8-1.2-5.3-3.5-7.1c0-2.6,0.1-5.1-3.6-5.3C480.5,358.2,479.9,357.7,479.3,357.1z"/>
		<path class="st0" d="M212.4,228.7c0.7,3.3-2.4,2.6-3.8,3.4c-3.3,1.7-6.5,3.5-5.5,7.7c0.9,4,4.2,5.2,8.1,5.1c2-0.1,4.2-0.8,5.3,1.7
			c-1.8,0.8-3.6,1.8-5.5,2.4c-6.1,2-11.1,0-13.5-5.8c-3.3-7.7,1.9-11.6,8-14.6C207.7,228.6,210.1,228.7,212.4,228.7z"/>
		<path class="st0" d="M372.8,33.8c-0.8,0.6-1.6,1.3-2.3,1.9c-14.6-6.5-29.6-12.3-44.7-17.6C342.9,19.2,358.3,25,372.8,33.8z"/>
		<path class="st0" d="M200.2,34c15-8.2,30.6-14.5,47.9-16.1c-16.5,4.8-31.5,13-47.8,18.2C200.2,35.5,200.2,34.7,200.2,34z"/>
		<path class="st0" d="M15.8,350c-1.2,0.6-2.4,1.2-3.6,1.8c-1.3,0.2-3.9,0-3.5,0.9c1.2,2.9,3.4,5.2,7,2.6c3.4,4.5-1,5-3.4,6.6
			c-4.2-2.3-7.2-5.8-9.7-9.7c-4.9-7.6-3.4-10,6.1-10.8c-1.6,6.3,4.2,5.1,7,6.9C15.8,348.9,15.8,349.4,15.8,350z"/>
		<path class="st0" d="M110.6,413.2c11.1-5.3,16.2-4.1,22.3,5.3c-4.7-0.3-9.2,4.3-14.1,0.5c-0.1-0.1-1.9,1.9-2.9,2.9
			c-0.6-0.6-1.2-1.2-1.7-1.8c-1.8-1.2-3.5-2.3-5.3-3.5C112,416.8,111.5,415.1,110.6,413.2z"/>
		<path class="st0" d="M117.6,315c-0.6,0.6-1.2,1.1-1.8,1.7c1.4-4.7-2.8-4-5-5.2c1.6-3.3,3.4-6.6,6.4-9c1.3,1.2,2.6,2.5,3.9,3.7
			c3.9,1.9,7.5,1.6,10.6-1.8c1.9-0.1,4,0.3,5.3-1.8c2,1.3,1.5,3.5,1.8,5.4l-0.1-0.1c-4.7,1.8-9.4,3.5-14,5.3c0,0,0,0,0,0
			C122.3,313.5,119.5,312.3,117.6,315z"/>
		<path class="st0" d="M463.5,355.3c-1.8,6.2-6.6,8.1-12.3,8.8c0,0,0,0,0,0c-2.5-2.9-5.8-1.2-8.8-1.8c-0.5-0.6-0.9-1.1-1.4-1.7
			c-1-3.2,1.5-5,3-7.2c3,0,6,0.1,9,0.1c0,0,0,0,0,0c-0.6,0.7-1.4,1.2-1.6,2c-0.6,2.1,1.2,1.4,1.9,1.2c2.7-1.2,5.6-1.6,8.5-1.4
			C462.3,355.3,462.9,355.3,463.5,355.3z"/>
		<path class="st0" d="M115.9,422c1-1,2.7-3,2.9-2.9c4.9,3.8,9.4-0.8,14.1-0.5c1.6,2.7,2.8,5.5,2.3,8.7c-2.9,0.5-6.3-1.2-8.8,1.8
			c0,0.5,0,1.1,0,1.6c-2.3-0.6-4.7-1.2-7-1.8c-0.2-3.6-2.8-3.4-5.3-3.4c0,0,0,0,0,0C113.9,423.9,117.7,424.4,115.9,422z"/>
		<path class="st0" d="M103.6,378.1c0.8-1.5,2.2-1.6,3.7-1.6c1.5,12.4-1.2,24.9,1.5,37.2c-1.8,1-3.7,1.9-5.5,2.9
			C105,403.7,104.3,390.9,103.6,378.1z"/>
		<path class="st0" d="M119.4,428.9c2.3,0.6,4.7,1.2,7,1.8c2,0.1,3.9,0.3,5.8,1.4c3.7,2.1,2.5-1,2.5-2.7c0.2-0.2,0.5-0.4,0.7-0.6
			c1.5,3.7,1.4,7.4,0,11.1c-1.7-2.4-3.5-2.8-5.5-0.4c-0.6,0-1.2,0-1.7,0c-1.5-2-3.7-5.8-4.1,0.1c-0.2,3.8-2.8,3.7-4.7,5.2l0,0
			c-1.8-4.7,4.6-9.4,0-14.1C119.4,430.2,119.4,429.5,119.4,428.9z"/>
		<path class="st0" d="M63.2,371.1c-2.2-5.7,4.8-7.5,5.2-12.1c3.8,2.7,6.3,6.5,8.6,10.5c-2.2,1.9-1.3,4.6-1.5,6.9l0,0
			c-3-1.5-0.5-5.2-3.1-7.3c-1,2.6,0.4,5.6-2.2,7.3C67.9,374.6,67.1,370.8,63.2,371.1z"/>
		<path class="st0" d="M463.6,346.9c1.1,0.5,2.2,1,3.3,1.5c0.3,1.5-3.5,1.1-1.6,3.4c-0.8,1.4-2.1,1.7-3.5,1.8c-2.9,0-5.9,0-8.8,0
			c0,0,0,0,0,0c-1.5-2.8-5.5-0.6-7-3.4C451.1,344.8,456.9,343.7,463.6,346.9z"/>
		<path class="st0" d="M452.9,367.5c0.4,2.8-2.4,3.5-3.4,5.4c-0.4,4.3,1.2,8.3,2.3,12.3c0.4-0.3,0.8-0.6,1.1-1
			c0.2-0.2,0.1-0.6,0.2-0.8c2.5,0.9,3.3,2.5,1.8,4.9c-2.5,0.1-5,0.4-7.2-1.2c-0.2-6.2,0.1-12.7-6.9-16c0-0.6,0-1.2,0-1.8
			C444.8,368.7,448.9,368.1,452.9,367.5z"/>
		<path class="st0" d="M460,388.4c-1.5-7.1-3-14.1-4.9-23.6c6.8,7.6,7.7,15.7,11.9,22c-1.4,0-2.7,0.2-3.5,1.5
			C462.3,388.3,461.2,388.4,460,388.4z"/>
		<path class="st0" d="M122.9,295.9c4.6-3.1,9.2-6.1,13.8-9.2c4.2,3.7,1,6.2-1.5,8.8c-2.2,3.1-7.6,0.8-8.8,5.4
			c-1.1-0.6-2.3-1.1-3.4-1.7C123,298.1,122.9,297,122.9,295.9z"/>
		<path class="st0" d="M479.3,357.1c0.6,0.6,1.1,1.1,1.7,1.7c0.4,2.7-1.2,6.5,3.5,7c0,2.4,0,4.8,0.1,7.2c0,2.8-0.1,5.7-0.1,8.5
			c-0.4,0.4-1,0.6-1.6,0.5c-2.2-6.9-4.6-13.8-6.6-20.8C475.8,359.3,473.9,355.3,479.3,357.1z"/>
		<path class="st0" d="M484.4,309.7c-1.9-4.9-3.9-9.5-4.1-15.1c-0.2-5.3-3.5-8.9-9.7-7.8c0-0.6,0-1.1,0-1.7c2.4-0.3,5.2,0.8,7-1.8
			c1.1-1.9,2.2-0.1,3.3,0C483.7,291.9,485,300.6,484.4,309.7z"/>
		<path class="st0" d="M295,218.4c-7.4,5.1-1,10.4-0.3,15.6c-9.4-4.8-9.3-15.9,0.3-22.6c0.5,1.2,1,2.3,1.5,3.5
			C295.9,216.1,295.4,217.2,295,218.4z"/>
		<path class="st0" d="M101.8,420.3c0,1.2,0,2.3,0,3.5l0,0c-5.2,6.8-3.8,16.1-8.9,22.9c-0.6,0.1-1.2-0.1-1.6-0.5
			c0.9-6.5,2.6-12.8,5.2-18.9C97.2,424.1,97.7,420.8,101.8,420.3z"/>
		<path class="st0" d="M470.5,253.5c0.7,0,1.3,0,2-0.1c4,2.6,8.1,5.1,12.3,7.8c-3.1,2.2-7.7,2.1-9.2,6.3c-0.5,0-0.9,0-1.4,0
			C474.9,262.3,471.3,258.3,470.5,253.5z"/>
		<path class="st0" d="M89.7,385.6c0.7,1.2,1.9,2.4,0.8,3.8c-1,1.2-2.1,0.3-3-0.3c-1.2-0.9-2.3-1.9-3.5,0c-1.6-0.7-3.3-1.4-4.9-2.1
			c-2.2-1.7,0.5-3.6-0.1-5.3c2.1-1.4,1.7-3.6,1.9-5.6C85.5,377.7,85,384.1,89.7,385.6z"/>
		<path class="st0" d="M108.9,325.5c0.2,3.5,5,8.8-3.5,8.8c-1.9,0.6-3.8,1.1-5.7,1.7c1.4-4.1,2.9-8.2,4.3-12.2
			c0.6-0.6,1.1-1.2,1.7-1.8C106.7,323.1,107.8,324.3,108.9,325.5z"/>
		<path class="st0" d="M79,381.7c0.6,1.8-2.1,3.6,0.1,5.3c-9,2-18,1.6-27,0.2c3.1-0.2,6.3-0.5,9.4-0.7c6.2,1,10.8-1.3,14-6.5
			C76.8,380.5,77.9,381.1,79,381.7z"/>
		<path class="st0" d="M296.4,214.9c-0.5-1.2-1-2.3-1.5-3.5c0-0.6,0.1-1.2,0.1-1.8c0.6-0.7,1.2-1.4,1.9-2c3.1-2.2,0.5-6.4,3.2-8.7
			c0.7,2.9-1,6.3,1.6,8.9c0,4.2,0,8.4,0,12.8C298.4,219.6,298.3,216.5,296.4,214.9z"/>
		<path class="st0" d="M453,243c-3.1-0.8-6.3-1.1-8.8-3.5c0-0.6,0-1.2,0-1.8c3.7-0.5,9.2,1.9,8.8-5.3c0-0.6,0-1.2,0-1.8
			c3.3,1.4,5.2,4,6.6,7.2c-0.4,0-0.8,0-1.2,0C454.6,237.4,457,243.5,453,243z"/>
		<path class="st0" d="M440.7,371.1c7,3.3,6.7,9.8,6.9,16C437.5,385.2,441.6,377.1,440.7,371.1z"/>
		<path class="st0" d="M101.8,420.3c-4.2,0.5-4.6,3.8-5.3,7c-4.6-1.2-1.5-7.1-5.3-8.8c1.1-0.6,2.3-1.2,3.4-1.8
			c1.4-0.1,2.8-0.1,4.2-0.2c1.5,0,2.9,0,4.4,0c1.8-1,3.7-1.9,5.5-2.9c0.6-0.2,1.2-0.3,1.8-0.5c0.9,1.9,1.3,3.6-1.8,3.5
			C106.5,417.9,104.2,419.1,101.8,420.3C101.9,420.3,101.8,420.3,101.8,420.3z"/>
		<path class="st0" d="M31.6,351.8c-0.6-3-1.1-6.1-1.7-9.1c2.8-0.7,4.9,0.9,7,2.4c0.6,0.5,1.1,1,1.7,1.4c-0.9,2.8,2.8,5.9,0.3,8
			C36.1,356.8,34.2,352.6,31.6,351.8z"/>
		<path class="st0" d="M474.3,267.5c0.5,0,0.9,0,1.4,0c1.7,5.3,3.5,10.5,5.2,15.8c-1.1-0.2-2.2-1.9-3.3,0
			c-2.9-5.6-6.1-11.1-7.1-17.5C471.8,266.4,473,266.9,474.3,267.5z"/>
		<path class="st0" d="M94.5,353.3c0,3.6,4,3.3,5.5,5.5c-5.8,3.6-4.8,10.2-6.7,15.4c-0.9,2.3,0.5,5.3-1.7,7.4
			C91.1,372,92.3,362.6,94.5,353.3z"/>
		<path class="st0" d="M38.6,346.5c-0.6-0.5-1.1-1-1.7-1.4c4.8-1.5,8.9,0,12.8,2.9c-0.4,0.1-0.7,0.3-0.9,0.6
			c-2.8,2.4-0.4,4.6,0.3,6.8c-1.8,1-2.5,3.8-5.3,3.5c0,0,0,0,0,0C43.5,354.1,44.6,348.8,38.6,346.5z"/>
		<path class="st0" d="M509.3,321.6c5.3,0.2,10.6,0.3,15.9,0.5c-8.9,1.7-17.8,1.8-26.7-0.1c0.2-3-4.4-3.7-3.6-7.1c1.2,0,2.4,0,3.7,0
			C501.1,318.9,503.3,323.4,509.3,321.6z"/>
		<path class="st0" d="M110.3,452c1.3-1.2,2.5-2.5,3.8-3.7c0.5,2.3,1.3,4.3,3.3,1c0.8-1.4,0.3-3.5,2-4.5c0,0,0,0,0,0
			c3.3,2.4,3.9,8.9,10.2,6.7l0.3,0.4C123.4,454.6,116.9,454.2,110.3,452z"/>
		<path class="st0" d="M437.2,230.7c0-3.1,0-6.3,0-9.5c3.1-0.6,4.9,1.3,7,2.8c-0.2,2.5,0.7,4.6,1.8,6.7
			C443,233.1,440.1,231,437.2,230.7z"/>
		<path class="st0" d="M100.1,351.8c-1.8,0.5-3.7,1.1-5.5,1.6c-0.4-5.7,2.3-10.5,4.1-15.6c2.1,0.1,3.1,1.3,3.2,3.3
			C101.3,344.7,100.7,348.2,100.1,351.8z"/>
		<path class="st0" d="M506.9,295.4c3,2.3,3.1,5.8,4,9c-0.6,0.6-1.2,1.2-1.8,1.7c-2.5,0-4.3,1.2-5.3,3.5c-0.6,0.6-1.2,1.2-1.7,1.8
			c0,0,0,0,0,0c0.6-3.9,1.2-7.8,1.8-11.7C504.9,298.3,505.9,296.8,506.9,295.4z"/>
		<path class="st0" d="M128.2,439.6c0.6,0,1.2,0,1.7,0c0,3.4,2.9,3.9,5,5.2c0.5,3.9,0,7.1-5,7c0,0-0.3-0.4-0.3-0.4
			c0.1-1.4,0.8-3.4,0.1-4.3C126.8,443.7,126.7,443.8,128.2,439.6z"/>
		<path class="st0" d="M105.2,451.9c1.3,0,2.7,0.1,4,0.1c-3.8,10.3-0.1,21-2.1,31.4c-2.4-4.5-4.6-9-1.8-14.2
			C105.3,463.5,105.3,457.7,105.2,451.9z"/>
		<path class="st0" d="M437.2,230.7c2.9,0.3,5.8,2.4,8.8,0c1.7,1.2,3.4,2.4,5.1,3.6c-1.5,2.8-5.4,0.5-6.9,3.4c0,0.6,0,1.2,0,1.8
			c-2.2-0.9-3.9-4-7-1.8C437.2,235.3,437.2,233,437.2,230.7z"/>
		<path class="st0" d="M441,255.3c4.6,1.4,9.2,2.8,13.8,4.2c-2.3,4.6-8.4,0.9-10.9,4.9C442.1,261.7,441.5,258.5,441,255.3z"/>
		<path class="st0" d="M563.6,297.4c-1.1-2.4-6.5-1.3-4.7-5.9c1.4-3.6,4.7-0.9,7-1.7c1.4-0.5,3.3,0.5,5.1,0.8
			C569.2,293.5,566.6,295.7,563.6,297.4z"/>
		<path class="st0" d="M135.2,295.5c2.5-2.6,5.7-5.1,1.5-8.8c2-2,3.1-0.8,3.2,1.2c0,6.7,1.7,13.5-1.1,20.1c-0.3-1.9,0.2-4.1-1.8-5.4
			C133.7,300.9,141.9,296.4,135.2,295.5z"/>
		<path class="st0" d="M451.3,292.1c5.5,3.1,11.6,3.9,19.7,3.9c-6.3,4.6-12.4-1.2-16.6,3.5C452.4,297.5,451.5,294.9,451.3,292.1z"/>
		<path class="st0" d="M200.2,34c0,0.7,0.1,1.4,0.1,2.1c-4.1,4.2-9.1,7.2-14.2,10.2c-0.7-0.7-1.5-1.3-2.2-2
			C188.8,40,194,36.3,200.2,34z"/>
		<path class="st0" d="M124.7,313.2c4.7-1.8,9.4-3.5,14-5.3c0.1,1.9,0.3,3.9-1.3,5.4C133.2,313.7,128.9,316.5,124.7,313.2z"/>
		<path class="st0" d="M452.9,367.5c-4.1,0.6-8.1,1.2-12.2,1.9c0.1-2.9,0.2-5.8,0.3-8.7c0.5,0.6,0.9,1.1,1.4,1.7
			c2.4,3,5.8,1.3,8.8,1.8c0,0,0,0,0,0C451.8,365.2,452.4,366.3,452.9,367.5z"/>
		<path class="st0" d="M451.1,234.3c-1.7-1.2-3.4-2.4-5.1-3.6c-1.1-2.1-2.1-4.2-1.8-6.7c3.5,1.5,6.4,3.7,8.8,6.6c0,0.6,0,1.2,0,1.8
			C452.4,233,451.7,233.6,451.1,234.3z"/>
		<path class="st0" d="M498.6,314.9c-1.2,0-2.4,0-3.7,0c-0.7-0.1-1.3-0.1-2-0.2c0.5-3.8,3.3-6.1,5.7-8.6c1.2,1.7,2.3,3.5,3.5,5.2
			c0,0,0,0,0,0c0,0.6,0,1.2-0.1,1.8C500.9,313.8,499.8,314.4,498.6,314.9z"/>
		<path class="st0" d="M15.8,348.3c-2.9-1.8-8.6-0.6-7-6.9c2.3,0,4.7,0,7,0C15.2,343.7,19,346,15.8,348.3z"/>
		<path class="st0" d="M15.8,348.3c3.2-2.3-0.6-4.6,0-6.9c1.2,0,2.4,0,3.5,0.1c0.7,2.9,4.6,5.1,2.2,8.6c-1.5,2.1-3.8-0.3-5.7,0
			C15.8,349.4,15.8,348.9,15.8,348.3z"/>
		<path class="st0" d="M325.1,134.3c-1.1-2.8,1.4-6.4-1.8-8.8c-0.2-3.1-0.8-6.2,0.7-9.9C327.1,122.1,328.1,128.1,325.1,134.3z"/>
		<path class="st0" d="M122.9,295.9c0,1.1,0.1,2.2,0.1,3.3c0,1.1,0,2.2,0,3.3c-0.6,1.2-1.2,2.4-1.8,3.7c-1.3-1.2-2.6-2.5-3.9-3.7
			C117.7,299.1,120,297.2,122.9,295.9z"/>
		<path class="st0" d="M186.1,214.9c3,2.8,8.6,2.9,8.7,8.6c-3.9-1.7-7.9-3.4-10.7-6.8C184.8,216.1,185.4,215.5,186.1,214.9z"/>
		<path class="st0" d="M101.9,341.1c-0.1-2-1-3.2-3.2-3.3c0.3-0.6,0.6-1.3,1-1.9c1.9-0.6,3.8-1.1,5.7-1.7c-2.2,1.5,8.4,1.5,0.4,3.8
			C104.3,338.5,103.2,340.1,101.9,341.1z"/>
		<path class="st0" d="M79,381.7c-1.1-0.6-2.3-1.2-3.4-1.7c0-1.2-0.1-2.4-0.1-3.5c0,0,0,0,0,0c1.9-0.7,3-2.2,3.8-3.9
			c1.6,0.7,1.5,2.2,1.6,3.6C80.7,378.1,81.1,380.3,79,381.7z"/>
		<path class="st0" d="M502.1,311.4c-1.2-1.7-2.3-3.5-3.5-5.2c1.2-2.6,2.8-4.9,5.3-6.5C503.3,303.6,502.7,307.5,502.1,311.4z"/>
		<path class="st0" d="M135,444.8c-2.1-1.3-5-1.9-5-5.2c2-2.4,3.8-2.1,5.5,0.4C135.3,441.6,135.1,443.2,135,444.8z"/>
		<path class="st0" d="M84.3,421.9c0.8,2.2,4.3,3.9,1.8,6.8c-2.3,2.6-3.1-1.3-4.9-1.4C81.6,425.2,82.4,423.3,84.3,421.9z"/>
		<path class="st0" d="M370.5,388.5c0.9-4.3,4-5.9,8-6.5C377.5,386.2,374.7,388.2,370.5,388.5z"/>
		<path class="st0" d="M110.8,311.4c2.2,1.3,6.4,0.5,5,5.2c-1.2,0.6-2.3,1.2-3.5,1.8c-0.6-1.5-1.4-2.6-3-3.1
			c-0.2-0.3-0.5-0.5-0.8-0.6C109.4,313.6,110.1,312.5,110.8,311.4z"/>
		<path class="st0" d="M324.8,234.3c-1.7,1-3.4,2.1-5.1,3.1c-3.4,0-5.3-2.9-7.9-4.5C316.1,233.4,320.5,233.8,324.8,234.3z"/>
		<path class="st0" d="M212.4,228.7c-2.3,0-4.7-0.1-7-0.1c0-0.3,0-0.7,0.1-1c0.4-1.2-1.8-2.6-0.1-3.6c1.3-0.7,2.7,0,3.6,1.3
			C210.1,226.4,211.3,227.6,212.4,228.7z"/>
		<path class="st0" d="M405.6,348.3c0.6-0.7,1.3-1.3,1.9-2c2.4,2.5,4.3,5.2,4.9,8.7C408.1,354.8,407.4,351,405.6,348.3z"/>
		<path class="st0" d="M128.4,344.8c-1.3,0.6-2.5,1.2-3.8,1.8c-1.3-0.2-2.6-0.3-4.3-0.6c2.7-3.3,6.6-2.8,9.3-4.8
			C129.9,342.7,129.8,344,128.4,344.8z"/>
		<path class="st0" d="M349.4,156.8c-0.5,0.1-1,0.2-1.5,0.3c0-3.5,0-7,0-10.7c2.6,1,2.9,3.2,3,5.4C349.1,153,349.5,155,349.4,156.8z
			"/>
		<path class="st0" d="M553,295.6c3.2,2.1,6.9,1.8,10.5,1.7c-1.2,1-2.4,2.1-3.6,3.1C558.2,298.1,553,300.5,553,295.6z"/>
		<path class="st0" d="M196.6,193.8c2.7,1.3,4.8,3,5.2,6.2c-2.3-0.3-4.7-0.6-7-0.9C195.5,197.3,196.1,195.6,196.6,193.8z"/>
		<path class="st0" d="M407.5,278.2c-0.3,2.1-0.7,4.2-1.1,6.7c-3.9-2.6-3-4.7-0.5-6.9c0,0,0.8-0.1,0.8-0.1L407.5,278.2z"/>
		<path class="st0" d="M291.4,95.9c0-0.6,0.1-1.2,0.1-1.9c3.1-0.6,5.7,1.3,8.5,1.9c-0.6,0.6-1.2,1.1-1.8,1.7
			C295.8,97.2,293.3,97.6,291.4,95.9z"/>
		<path class="st0" d="M394.8,374.4c4.2-1.6,8.3-3,12.4,0.2c-3,0.5-5.9,1-8.9,1.4C397.1,375.5,396,375,394.8,374.4z"/>
		<path class="st0" d="M458.4,237.7c0.4,0,0.8,0,1.2,0c1.7,1.3,2.6,2.9,2.2,5.1c-0.1,0.7-0.1,1.4-0.2,2.1c0,0.5,0.1,1,0.1,1.5
			c-0.6,0-1.2,0-1.8,0c0,0,0,0,0,0C459.9,243.5,457.6,240.9,458.4,237.7z"/>
		<path class="st0" d="M382.9,381.6c-0.7-5.7,3.5-5,6.9-5.2c0,0.5,0,1.1,0,1.6C387.4,379.2,385.2,380.4,382.9,381.6z"/>
		<path class="st0" d="M45.7,383.4c1.2,1.1,2.3,2.2,3.5,3.3c-4,0.3-7.5-0.7-10.6-3.3C40.9,383.4,43.3,383.4,45.7,383.4z"/>
		<path class="st0" d="M298.2,191.6c0.2-2.4,0.1-4.8,2.1-6.6c0.5,1.1,1,2.3,1.5,3.4c-0.6,2.3-1.2,4.7-1.7,7
			C299.4,194.2,298.8,192.9,298.2,191.6z"/>
		<path class="st0" d="M235,146.5c-0.6,1.3-1.2,2.5-1.8,3.8c-2.2-3-1.5-6.3-1.7-10.3C234.3,142.1,234.4,144.5,235,146.5z"/>
		<path class="st0" d="M407.5,278.2l-0.8-0.2c0,0-0.8,0.1-0.8,0.1c1.6-2.4,3.3-4.8,4.9-7.2c0.6,0.6,1.2,1.3,1.7,1.9
			C411.9,275.6,409.5,276.7,407.5,278.2z"/>
		<path class="st0" d="M410.8,374.6c2.7-1.7,6.2,0.6,8.8-1.7C417.6,378.3,414.3,377.1,410.8,374.6z"/>
		<path class="st0" d="M389.7,378c0-0.5,0-1.1,0-1.6c1.3-1.7,3.2-1.7,5-2c1.2,0.5,2.4,1.1,3.5,1.6
			C395.5,376.7,392.6,377.3,389.7,378z"/>
		<path class="st0" d="M217.1,246.4c2-0.7,3.9-1.4,5.9-2.1c-1.3,3.2-3.2,5.5-6.9,5.7C216.4,248.8,216.7,247.6,217.1,246.4z"/>
		<path class="st0" d="M216,455c0.7-0.5,1.4-1.1,2.1-1.6c2.1-0.2,4.1-0.4,7.8-0.8C222,456.3,219,455.7,216,455z"/>
		<path class="st0" d="M446,350.1c1.5,2.8,5.5,0.6,7,3.4c-3,0-6-0.1-9-0.1C444,352,444.4,350.7,446,350.1z"/>
		<path class="st0" d="M484.5,381.5c0-2.8,0.1-5.7,0.1-8.5c2.8,1.2,0.4,5,3.1,6.2l0.3,0.7C487.3,381.2,486,381.7,484.5,381.5z"/>
		<path class="st0" d="M298.1,97.6c0.6-0.6,1.2-1.1,1.8-1.7c1.9,0.8,4.6,0.6,5.1,3.9C302.4,99.7,300.1,99.4,298.1,97.6z"/>
		<path class="st0" d="M79.3,372.4c-0.8,1.8-1.9,3.2-3.8,3.9c0.2-2.4-0.7-5,1.5-6.9C77.8,370.4,78.5,371.4,79.3,372.4z"/>
		<path class="st0" d="M553,278.1c-2.6,4.1-5-0.4-7.5-0.2c2.3-1.6,4.9-1.6,7.6-1.2C553.1,277.1,553,277.6,553,278.1z"/>
		<path class="st0" d="M130.2,338.1c-0.9-2.6-4.2-1.3-6.2-3.9c2.9,0,5.2,0,7.4,0C131.7,335.8,131.4,337.1,130.2,338.1z"/>
		<path class="st0" d="M317.3,108.9c-2.6-1.4-4.2-2.4-4.3-4.7C316.2,103.9,316.9,105.7,317.3,108.9z"/>
		<path class="st0" d="M349.4,156.8c0.1-1.8-0.3-3.7,1.6-5c0.3,3.1,1.1,6.3-1.4,8.9C349.5,159.4,349.4,158.1,349.4,156.8z"/>
		<path class="st0" d="M488.1,371.1c2.6,1.9,1.4,4.8,1.8,7.3c-0.6,0.5-1.2,1-1.8,1.5c0,0-0.3-0.7-0.3-0.7
			C487.9,376.5,488,373.8,488.1,371.1z"/>
		<path class="st0" d="M126.4,429.1c2.4-3,5.8-1.3,8.8-1.8c0.4,0.4,0.5,1,0.3,1.5c-0.2,0.2-0.5,0.4-0.7,0.6
			C132,429.3,129.2,429.2,126.4,429.1z"/>
		<path class="st0" d="M282.8,123.6c-0.6,0-1.2,0.1-1.8,0.1c-0.2-1.8,0.5-4.1,2.1-4c2.4,0.1,0.9,2.5,1.1,3.9
			C283.7,123.6,283.2,123.6,282.8,123.6z"/>
		<path class="st0" d="M310.1,376.4c1.4,2.2,2.9,4.5,4.3,6.7c-0.1,0.9-0.2,1.8-0.3,2.6c-1.1-0.8-2.2-1.6-3.2-2.5
			c-18.4-18.3-35.2-37.9-47.6-60.8c-9.3-17.1-17.3-34.9-19.4-54.6c0.5-1.2,1.1-2.5,1.6-3.7c11.7,41.4,33.9,76.9,61.4,109.3
			C307.9,374.6,309.1,375.4,310.1,376.4z"/>
		<path class="st0" d="M254.4,253.7c12.9,18.9,28.7,35.1,45.5,50.5c9,8.2,17.8,16.7,25.8,25.9c-29.3-21-58.9-41.8-74.8-76.2
			c0.1-0.8,0.2-1.7,0.3-2.5C252.3,252.1,253.3,252.9,254.4,253.7z"/>
		<path class="st0" d="M254.4,253.7c-1.1-0.8-2.1-1.6-3.2-2.4c-0.4-2.4-1.5-4.3-4.1-4.9c1.8-5.9,4.8-4.3,7.1-0.6
			C255.6,248,256.3,251,254.4,253.7z"/>
		<path class="st0" d="M230.2,290.5c-1.2-3.4,1.2-7.3-1.7-10.4c-0.1-3.7-1.4-7.6,1.4-11c0.6,0.6,1.1,1.2,1.7,1.8
			C231.3,277.4,233,284.1,230.2,290.5z"/>
		<path class="st0" d="M284.7,239.2c-0.6,0.6-1.2,1.2-1.9,1.8c-3.5-1.6-6-4.2-6.8-8.8C278.9,234.6,281.8,236.9,284.7,239.2z"/>
		<path class="st0" d="M216.1,276.4c-0.6-1.2-1.1-2.4-1.7-3.5c0-3,1.2-5.2,4.5-8.1C218.5,269.9,218.3,273.4,216.1,276.4z"/>
		<path class="st0" d="M232.6,246.7c0.7,3.8,2.2,7.6-1.5,11.3C229.5,253.5,232.7,250.2,232.6,246.7z"/>
		<path class="st0" d="M242,257.2c-2.3-3.4-1.6-7.1-0.7-12.6c1.1,4.7,1.8,7.7,2.5,10.8C243.2,256,242.6,256.6,242,257.2z"/>
		<path class="st0" d="M242,257.2c0.6-0.6,1.2-1.2,1.8-1.8c0.6,2.9,1.1,5.8,1.7,8.7c-0.5,1.2-1.1,2.5-1.6,3.7
			C241.4,264.7,242.5,260.8,242,257.2z"/>
		<path class="st0" d="M270.4,243.3c-0.1,0.6-0.2,1.3-0.3,1.9c-3.4-1.1-5.8-3.3-8.1-7.1C266.2,238.4,268.2,241,270.4,243.3z"/>
		<path class="st0" d="M305.3,243.2c1.8,0.7,3.7,1.3,6.5,2.3c-4.1,1.5-7.1,1.4-10-0.6C302.9,244.3,304.1,243.8,305.3,243.2z"/>
		<path class="st0" d="M231.5,270.9c-0.6-0.6-1.1-1.2-1.7-1.8c0.2-2.5,0.4-4.9,0.7-8.6C232.5,264.8,231.6,267.9,231.5,270.9z"/>
		<path class="st0" d="M247.1,246.4c2.6,0.6,3.7,2.5,4.1,4.9c-0.1,0.8-0.2,1.7-0.3,2.5C248.7,251.8,247.7,249.2,247.1,246.4z"/>
		<path class="st0" d="M314.2,385.7c0.1-0.9,0.2-1.8,0.3-2.6c2.3,1.6,4.1,3.4,5.2,6.5C316.5,389.2,315.3,387.5,314.2,385.7z"/>
		<path class="st0" d="M472.1,411.3c-0.6,4.1-1.2,8.2-1.8,12.3c-3.4-12.1-0.8-24.4-1.4-36.5c0.6-0.1,1.1-0.2,1.7-0.1
			C470.9,395.1,468.3,403.4,472.1,411.3z"/>
		<path class="st0" d="M279.1,192.3c-16.2-15.3-24.1-33.7-20-56.3c2.9,22,12.8,40.8,26.2,58C282.4,196,281.2,192.3,279.1,192.3z"/>
		<path class="st0" d="M280.9,203.9c-5.2,0-10.5,0-16.5,0c2.6-1.9,5-2.9,7.8-3C274.4,204,278.7,201.1,280.9,203.9z"/>
		<path class="st0" d="M279.1,192.3c2.2,0.1,3.4,3.7,6.2,1.7c1.9,3.2,0.9,4.8-2.7,5c-0.8-2.8-4-2.8-5.4-5
			C277.8,193.4,278.4,192.8,279.1,192.3z"/>
		<path class="st0" d="M286.5,184.7c0.5-1.1,1-2.3,1.5-3.4c0.7,1.8,1.3,3.6,2,5.4C287.2,189.1,287.2,186.3,286.5,184.7z"/>
		<path class="st0" d="M109.4,315.4c1.6,0.5,2.4,1.6,3,3.1c0,0,0,0,0,0c-3.2,1.3-3.7,4-3.5,7c0,0,0,0,0,0c-1.1-1.2-2.1-2.4-3.2-3.6
			C106.9,319.7,108.1,317.5,109.4,315.4z"/>
		<path class="st0" d="M240.9,217c-0.9-1.7-2.5-2-4.1-2.3c1.7-1.4,3.9-2.4,5.6-1C243.7,214.7,242,216.1,240.9,217z"/>
		<path class="st0" d="M461.7,246.4c0-0.5,0-1-0.1-1.5c4,1.7,6,5.6,8.9,8.6c0.7,4.8,4.4,8.8,3.7,14c-1.3-0.6-2.5-1.2-3.8-1.7
			c0,0,0,0,0,0c0.1-3-0.3-5.7-3.5-7c-1.5-2.2-0.6-5.6-3.5-7C462.9,250,462.3,248.2,461.7,246.4z"/>
		<path class="st0" d="M461.7,246.4c0.6,1.8,1.2,3.5,1.8,5.3c-3.5-0.7-6.9-2.4-11.5,1.6c2-5.6,6.4-4.1,8-6.8
			C460.6,246.4,461.2,246.4,461.7,246.4z"/>
		<path class="st0" d="M458.4,237.7c-0.8,3.2,1.4,5.8,1.6,8.7c-2.3-1.2-4.7-2.3-7-3.5C457,243.5,454.6,237.4,458.4,237.7z"/>
		<path class="st0" d="M470.5,285.1c0,0.6,0,1.1,0,1.7c-4.1-0.7-8.6,1.6-12.3-1.7C462.3,286,466.4,283.3,470.5,285.1z"/>
		<path class="st0" d="M452.8,275.2c2.4,0.5,4.8,1.1,7.5,1.7C457.3,279.2,455,277.7,452.8,275.2z"/>
		<path class="st0" d="M467,258.8c3.2,1.3,3.6,4.1,3.5,7C468.3,264,467.3,261.6,467,258.8z"/>
		<path class="st0" d="M477.9,350c-0.1-7.2-0.6-14.5,1.2-21.6C479,335.6,480.8,343,477.9,350z"/>
		<path class="st0" d="M464.3,291.2c-2.7,1.1-4.5,1.3-6.3,0.1C459.8,289.9,461.6,290.2,464.3,291.2z"/>
		<path class="st0" d="M516.2,306.1c0-1.4,0.3-2.8,1.7-3.5c1.8,1.8,3.5,3.5,5.3,5.3c0.6,1.1,1.2,2.3,1.7,3.4
			c0.9,1.9,1.4,3.6-1.8,3.6c-1.7-0.6-3.5-1.2-5.2-1.8C513,311.9,518.5,308.1,516.2,306.1z"/>
		<path class="st0" d="M498.6,314.9c1.2-0.6,2.3-1.2,3.5-1.8c2.4,2.8,4.8,5.6,7.2,8.4C503.3,323.4,501.1,318.9,498.6,314.9z"/>
		<path class="st0" d="M530.2,286.8c0.3,2.4-0.9,5.2,1.8,7c-2.5,2.2-5,4.5-1.2,8.5C522.6,296.8,528.7,291.9,530.2,286.8z"/>
		<path class="st0" d="M525,311.4c-0.6-1.1-1.2-2.3-1.7-3.4c4.1-5.5,5.8,1.2,8.8,1.7c-0.6,1.2-1.2,2.4-1.7,3.6
			C528.5,312.6,526.7,312,525,311.4z"/>
		<path class="st0" d="M530.2,313.2c0.6-1.2,1.2-2.4,1.7-3.6c2,1.4,3.9,2.8,6,4.3C534.7,316.9,532.1,317.2,530.2,313.2z"/>
		<path class="st0" d="M507.4,313.2c2.8,1.3,8.4,0.1,5.5,6.8C509.6,318.8,507.7,316.7,507.4,313.2
			C507.4,313.2,507.4,313.2,507.4,313.2z"/>
		<path class="st0" d="M517.9,313.2c1.7,0.6,3.5,1.2,5.2,1.8c0.8,1.4,1.7,2.9,3.1,5.4C521.7,318.7,519.7,316,517.9,313.2z"/>
		<path class="st0" d="M503.9,309.7c1-2.3,2.7-3.5,5.3-3.5c-1.2,2.2-2,4.5-1.8,7c0,0,0,0,0,0C506.2,312,505.1,310.8,503.9,309.7z"/>
		<path class="st0" d="M537.2,292.1c1.8-2.2,4.2-3.2,7-3.5c-0.6,1.2-1.1,2.3-1.7,3.5C540.7,292.1,539,292.1,537.2,292.1z"/>
		<path class="st0" d="M115.9,350c-4.1,2.7-8.2,2.8-12.3,0C107.7,348.4,111.8,348.4,115.9,350z"/>
		<path class="st0" d="M124.7,327.2c-1.2-1-2.5-2-3.8-3c3.6-1.4,6.1,1.3,9.5,1.5C128.5,328.1,126.4,326.8,124.7,327.2L124.7,327.2z"
			/>
		<path class="st0" d="M108.9,325.5c-0.2-3,0.3-5.7,3.5-7C111.1,320.7,113.4,324.8,108.9,325.5z"/>
		<path class="st0" d="M117.6,315c1.8-2.6,4.6-1.5,7-1.8C123.7,319.2,119.9,314.1,117.6,315z"/>
		<path class="st0" d="M124.7,327.2c-2,2.3-4.4,2.1-7.3,1C119.9,326.4,122.4,327.6,124.7,327.2C124.7,327.2,124.7,327.2,124.7,327.2
			z"/>
		<path class="st0" d="M115.9,360.6c0,0.6,0,1.2,0,1.7c-5.3,2.9-10.3-0.4-15.6-1.7C105.5,360.6,110.7,360.6,115.9,360.6z"/>
		<path class="st0" d="M110.7,357.1c3.1-3,6.9-1.5,10.5-1.4c0.1,0,0.4,0.4,0.4,0.7c0,0.3-0.2,0.5-0.3,0.8
			C117.7,357.1,114.2,357.1,110.7,357.1z"/>
		<path class="st0" d="M453,383.4c0,0.3,0,0.6-0.2,0.8c-0.3,0.4-0.7,0.7-1.1,1c-1.1-4-2.8-8-2.3-12.3
			C455.8,374.7,451.7,380,453,383.4z"/>
		<path class="st0" d="M461.7,353.6c1.5,0,2.8-0.3,3.5-1.8c1.3,0.3,2.7,0.7,4,1c-0.9,3.1-3.6,2.3-5.7,2.5c-0.6,0-1.2,0-1.8,0
			C461.7,354.7,461.7,354.1,461.7,353.6z"/>
		<path class="st0" d="M467.3,360.6c3.1,1.2,4.8,2.9,2.8,6.8C468.9,364.6,468.1,362.6,467.3,360.6z"/>
		<path class="st0" d="M38.6,346.5c6,2.3,4.9,7.6,5.3,12.3c-3.5-0.6-7-2.9-10.5,0c-0.6-2.3-1.2-4.7-1.7-7c2.6,0.8,4.5,5,7.3,2.7
			C41.4,352.5,37.8,349.3,38.6,346.5z"/>
		<path class="st0" d="M49.2,372.8c2.8,1.7,0.5,3.5,0,5.2c-1.8-0.2-4.6,0.8-4.5-2.2C44.7,373.6,47.1,373,49.2,372.8z"/>
		<path class="st0" d="M52.7,360.6c1.2,0.6,1.2,1.2,0,1.8c-2.2,0.7-5.7,5.6-5.3-1.7c0.6,0,1.2-0.1,1.8-0.1
			C50.4,360.6,51.6,360.6,52.7,360.6z"/>
		<path class="st0" d="M49.3,360.6c-0.6,0-1.2,0-1.8,0.1c-1.4-0.1-2.8-0.4-3.5-1.8c2.7,0.3,3.4-2.4,5.3-3.5
			C49.2,357.1,49.2,358.8,49.3,360.6z"/>
		<path class="st0" d="M298.2,191.6c0.6,1.3,1.2,2.5,1.9,3.8c0,1.1,0,2.3,0.1,3.4c-2.7,2.3-0.1,6.5-3.2,8.7
			C297,202.2,295.4,196.7,298.2,191.6z"/>
		<path class="st0" d="M105.2,451.9c0,5.8,0.1,11.6,0.1,17.4c-2.9-2.3-3.7-5.4-3.2-9c2.6-2.5,1.2-5.6,1.5-8.5
			C104.2,451.8,104.7,451.9,105.2,451.9z"/>
		<path class="st0" d="M103.6,451.9c-0.3,2.9,1.1,6-1.5,8.5c-0.2-1.6-0.4-3.3-0.7-4.9C101.8,454,100.7,451.7,103.6,451.9z"/>
		<path class="st0" d="M15.8,355.3c-3.6,2.6-5.8,0.3-7-2.6c-0.4-0.8,2.2-0.7,3.5-0.9C13.5,353,14.6,354.1,15.8,355.3z"/>
		<path class="st0" d="M75.5,376.4c0,1.2,0.1,2.4,0.1,3.5c-3.2,5.3-7.9,7.5-14,6.5c3.1-3.2,6.7-5.9,8.7-10.1
			c2.7-1.7,1.2-4.7,2.2-7.3C75,371.2,72.5,374.9,75.5,376.4z"/>
		<path class="st0" d="M54.4,371.1c1.8,0.6,3.5-2.1,5.3,0c-0.7,1.5-1.5,3.1-3.5,2.4C55.4,373.2,52.8,373.5,54.4,371.1z"/>
		<path class="st0" d="M119.4,444.8c-1.8,1.1-1.2,3.2-2,4.5c-2,3.3-2.8,1.3-3.3-1c-1.5-6.9,6.2-10.9,5.3-17.6
			C124,435.5,117.7,440.2,119.4,444.8z"/>
		<path class="st0" d="M100.1,448.3c3.5-4.1,1.2-9.6,3.5-14c0.9,3.9,2.2,7.7,1.8,11.8C105,450.7,102.6,449.5,100.1,448.3z"/>
		<path class="st0" d="M49.3,360.6c0-1.7-0.1-3.5-0.1-5.2c-0.7-2.2-3.1-4.4-0.3-6.8c1,4.1,4.4,7.4,3.9,12
			C51.6,360.6,50.4,360.6,49.3,360.6z"/>
		<path class="st0" d="M101.9,420.3c2.3-1.2,4.7-2.3,7-3.5c1.8,1.2,3.5,2.3,5.3,3.5c-1.8,0.6-3.5,1.2-5.3,1.8
			C106.7,420.8,104.4,420,101.9,420.3z"/>
		<path class="st0" d="M108.9,422.1c1.8-0.6,3.5-1.2,5.3-1.8c0.6,0.6,1.2,1.2,1.7,1.8c1.8,2.4-2,1.9-1.7,3.5c-1.2,0-2.4,0-3.5,0
			c-0.6-0.6-1.2-1.2-1.7-1.8C108.9,423.2,108.9,422.6,108.9,422.1z"/>
		<path class="st0" d="M108.9,423.8c0.6,0.6,1.2,1.2,1.7,1.8c-1.6,0.3-1.9,3.9-3.7,2.3C105.7,426.9,107.4,424.8,108.9,423.8z"/>
		<path class="st0" d="M101.8,423.8c1.1,0,2.8-2,2.9,0.6c0.1,1-1.4,2.1-2.1,3.2C102.4,426.3,102.1,425,101.8,423.8
			C101.9,423.8,101.8,423.8,101.8,423.8z"/>
		<path class="st0" d="M515.3,299.6c-1.3-1.1-2.3-2.3-1.9-4.1c0-0.1,1.1-0.3,1.3-0.1C515.9,296.6,516.7,297.9,515.3,299.6z"/>
		<path class="st0" d="M488.1,371.1c-0.1,2.7-0.2,5.4-0.3,8.1c-2.8-1.2-0.3-5-3.1-6.2c0-2.4,0-4.8-0.1-7.2c0-0.6,0-1.2,0-1.7
			C486.9,365.9,487.8,368.4,488.1,371.1z"/>
		<path class="st0" d="M484.6,364.1c0,0.6,0,1.2,0,1.7c-4.7-0.5-3.1-4.3-3.5-7C484.6,358.9,484.6,361.5,484.6,364.1z"/>
		<path class="st0" d="M135.2,295.5c6.6,0.8-1.5,5.4,1.8,7.1c-1.2,2.1-3.3,1.7-5.3,1.8c-0.6-0.6-1.2-1.2-1.8-1.8
			c-0.7-1.4-2.1-1.6-3.5-1.7C127.7,296.3,133.1,298.6,135.2,295.5z"/>
		<path class="st0" d="M129.9,302.6c0.6,0.6,1.2,1.2,1.8,1.8c-3.1,3.4-6.6,3.7-10.6,1.8c0.6-1.2,1.2-2.4,1.8-3.7
			C125.3,302.5,127.6,302.6,129.9,302.6z"/>
		<path class="st0" d="M461.7,353.6c0,0.6,0,1.2,0,1.7c-2.9-0.2-5.8,0.2-8.5,1.4c-0.7,0.3-2.5,1-1.9-1.2c0.2-0.8,1.1-1.3,1.6-2
			C455.9,353.6,458.8,353.6,461.7,353.6z"/>
		<path class="st0" d="M451.2,364.1c-2.9-0.5-6.3,1.2-8.8-1.8C445.3,362.9,448.7,361.2,451.2,364.1z"/>
		<path class="st0" d="M126.4,429.1c2.8,0.1,5.6,0.3,8.4,0.4c0,1.7,1.1,4.8-2.5,2.7c-1.9-1.1-3.8-1.3-5.8-1.4
			C126.4,430.2,126.4,429.6,126.4,429.1z"/>
		<path class="st0" d="M128.2,439.6c-1.5,4.2-1.4,4.1,1.5,7.7c0.7,0.8,0,2.8-0.1,4.3c-6.3,2.3-6.9-4.3-10.2-6.7
			c1.8-1.4,4.4-1.3,4.7-5.2C124.5,433.8,126.7,437.6,128.2,439.6z"/>
		<path class="st0" d="M129.9,302.6c-2.3,0-4.6-0.1-6.9-0.1c0-1.1,0-2.2,0-3.3c1.1,0.6,2.3,1.1,3.4,1.7
			C127.8,301,129.2,301.2,129.9,302.6z"/>
		<path class="st0" d="M451.1,234.3c0.7-0.7,1.3-1.3,2-2c0.4,7.2-5.1,4.9-8.8,5.3C445.7,234.8,449.6,237.1,451.1,234.3z"/>
	</g>
	<g>
		<path class="st0" d="M386.3,292.1c2.7,7,9.3,11.1,13,17.4c5.2,8.9,4.2,14.6-4,20.9c-9.1-7.3-17.9-14.9-28-20.8
			c-34.8-20.4-75.5-29.5-106.9-56.4c6.7,10.1,16.2,17,26.2,23.3c15.9,10.1,33.3,16.8,50.2,24.7c18,8.4,36.2,16.4,51.3,29.7
			c-19.8-3.5-24.7,2-19,21.4c0.7,2.2,1.3,4.5,1.4,6.8c1,16.8-16.6,29.3-35.6,25.8c-8.7-1.6-16.2-6.5-24.7-8.4
			c-1.1-1-2.3-1.8-3.2-2.9c-27.5-32.5-49.8-67.9-61.4-109.3c-0.6-2.9-1.1-5.8-1.7-8.7c-0.7-3-1.4-6.1-2.5-10.8
			c-1,5.5-1.6,9.1,0.7,12.6c0.5,3.6-0.7,7.4,1.9,10.6c2.2,19.7,10.1,37.5,19.4,54.6c12.5,22.9,29.3,42.5,47.6,60.8
			c-8.3,11.6-15,13.8-25.8,8.5c-7.6-3.7-12-9.9-14.2-17.9c-1.2-4.5-2.5-9-4.2-13.2c-1.6-3.8-4.8-5.6-9.1-5.5
			c-4.2,0.1-6.2,2.6-7.8,5.9c-3.5,7.3-2.1,14.8-1.4,22.3c0.8,9.1,3.3,18.6-4.1,26.5c-0.7-1.9-1.6-3.8-2.1-5.7
			c-9.7-37.3-12.5-75.3-12.1-113.6c2.8-6.4,1.1-13.1,1.3-19.6c0-3,0.9-6.1-1-10.3c-0.3,3.7-0.5,6.1-0.7,8.6c-2.7,3.4-1.4,7.3-1.4,11
			c-4.6,45.6-1.6,90.6,10.2,135c-6.5-2.7-9.9-7.5-11.1-14.6c-0.6-3.6-2.3-7.3-4.3-10.4c-2-3.1-4.9-6.5-9.4-3.9
			c-4.1,2.5-11.2,1.3-10.5,10c0.5,6.8,1.5,14-1.2,20.7c-0.1-2.9-0.4-5.8-0.4-8.7c1.5-44.3,3.5-88.5,14.2-131.7
			c2.3-3.1,2.5-6.6,2.8-11.7c-3.3,2.9-4.5,5.2-4.5,8.1c-7.5,21.3-11.6,43.2-14.7,65.5c-1.7,12.2,0.3,24.5-2.8,36.4
			c-0.1-3.2-0.4-6.4-0.3-9.6c0.1-3.8-1.3-5.7-5.3-6.5c-12.5-2.7-15.2-7.1-16-19.9c-0.7-12.4,2.7-24.2,3.8-36.3
			c1.9-6.5,5.3-12.2,9.5-17.4c7.4-9.3,14.7-18.7,22.1-28.1c1.8-2.3,3.5-4.7,5.3-7c3.7-0.1,5.7-2.5,6.9-5.7c0.6-1,1.2-2,1.8-3
			c8.6-1.6,15.1-6.2,18.4-14.3c2.9-7.1,7.9-11.2,15-13.2c5.3-1.5,10.6-3,15.9-4.5c7,0.1,14,0.2,21,0.3c0,0.6-0.1,1.2-0.1,1.8
			c-9.5,6.7-9.7,17.8-0.3,22.6c2.2,4.6,6.7,6.6,10.7,9.2c-1.2,0.6-2.4,1.1-3.5,1.7c-6.4,0.1-11.7-2.9-17.1-5.7
			c-2.9-2.3-5.8-4.7-8.7-7c0.9,4.6,3.4,7.2,6.8,8.8c16.4,12.5,35.1,11.7,54.1,10c14.7-1.4,29.4-4.9,44.3-1.3
			c-1.2,3.3,2.2,3.3,3.5,4.7c5.9,6.3,6.9,13.1,2.9,20.5c-1.5,2.8-3.5,5.3-3.4,8.7c-38.8-11.2-78.7-19-113.9-40.3
			c-2.2-2.3-4.2-4.9-8.4-5.2c2.3,3.8,4.7,6,8.1,7.1c2.6,3.7,6.7,5.6,10.3,7.9c17.1,10.9,36,17.5,55.3,23.4
			C352.5,281.6,370,284.8,386.3,292.1z M247.1,246.4c0.7,2.8,1.7,5.4,3.8,7.5c15.9,34.4,45.5,55.2,74.8,76.2
			c-8-9.2-16.8-17.7-25.8-25.9c-16.8-15.4-32.7-31.6-45.5-50.5c1.9-2.7,1.2-5.7-0.3-7.9C251.8,242.1,248.9,240.5,247.1,246.4z
			 M232.6,246.7c0.1,3.5-3.1,6.8-1.5,11.3C234.7,254.3,233.3,250.5,232.6,246.7z"/>
		<path class="st1" d="M470.7,438c-0.2,19.5-0.8,39.1-0.5,58.6c0.1,7.5-2.4,9.3-9.5,9.2c-49.9-0.3-99.9,0.2-149.8-0.4
			c-12.2-0.1-20.3,3.3-24,17.1c-3.8-14.5-12.6-17.2-25-17.1c-49.4,0.6-98.7,0.3-148.1,0.1c-3.3,0-7.8,2.3-9.8-2.9
			c1.9,0.1,3.8,0.5,4.9-1.7c5.2,0.2,10.5,0.6,15.7,0.7c45.9,0.1,91.8-0.4,137.8,0.3c12.6,0.2,20.9-3.2,24.3-16.4
			c6.2,14.6,8.5,16.1,23.3,16.1c48.8,0,97.7-0.1,146.5,0.2c7.2,0,9.5-1.7,9.4-9.1c-0.4-31.9-0.1-63.8-0.3-95.6
			c0-2.9,1.6-6.6-2.2-8.7c0.8-1.3,2.1-1.4,3.5-1.5c0.6,0.1,1.2,0.1,1.9,0.2c0.6,12.2-1.9,24.5,1.4,36.5c-0.8,3-1.5,6-2.3,8.9
			C467.1,435.2,467,437.5,470.7,438z"/>
		<path class="st0" d="M237.4,151.5c0.2-0.2,0.5-0.3,0.6-0.6c11.8-23.1,15.6-24.6,39.3-15.1c-0.5,17,0.9,33.6,9.2,48.9
			c0.7,1.6,0.6,4.4,3.6,2c0.9,0.6,1.8,1.2,2.7,1.7c0.2,5.4,0.2,10.8,0.7,16.2c0.4,5.1-2.4,1.9-4.1,1.8c-2.8-0.9-5.7-1.7-8.5-2.6
			c-2.3-2.8-6.5,0.1-8.7-3c3.4-0.6,6.8-1.3,10.3-1.9c3.6-0.2,4.6-1.8,2.7-5c-13.4-17.2-23.3-36-26.2-58c-4,22.6,3.8,41,20,56.3
			c-0.6,0.6-1.3,1.2-1.9,1.8C259,184.4,246.5,169.5,237.4,151.5z"/>
		<path class="st2" d="M244.4,409.9c1.8,10.7,5.5,20.8,10.3,30.4c2.8,5.6,7,10.3,14.2,10c7.1-0.3,9.4-6.2,12-11.3
			c1.2-2.3,1.5-5,2.2-7.5c3.6-14.1,14.3-20.9,28.9-18.5c6.3,1,12.7,1.9,19,2.9c11.2,1.7,19.7-1.9,26-11.8c3.1-4.9,5-11.3,11.6-13.4
			c-3.7,8.9-8.7,17.1-15,24.2c-5.2,5.9-12.7,6.8-20.2,6.1c-8.1-0.7-16.2-2.1-24.4-2.5c-12.2-0.6-17,3.2-19.9,15
			c-1.1,4.3-2.3,8.4-4.6,12.2c-8.9,14.8-24.2,15.1-33.6,0.4c-6.1-9.5-8.3-20.5-11.9-30.9c-11.8-44.4-14.8-89.4-10.2-135
			c2.9,3.1,0.6,7,1.7,10.4c-0.5,38.4,2.3,76.4,12.1,113.6C242.8,406.1,243.7,408,244.4,409.9z"/>
		<path class="st3" d="M145.9,83.6c-18.6,25.4-31.8,53-36.1,84.4c-3.6,25.9-2.1,52-1.9,78c0.1,9,8.7,11.6,15.7,15.2
			c-13.8,5.6-16.1,8.7-15.9,23.1c0.2,10.2-1.2,20.4,0.8,30.5c0.3,0.2,0.6,0.4,0.8,0.6c-1.2,2.2-2.5,4.4-3.7,6.5
			c-0.6,0.6-1.1,1.2-1.7,1.8c0-13.1-0.7-26.3,0.2-39.4c0.8-11.7-3.5-19.1-17.4-23.6c17-3.7,17.5-14.6,17.3-26.8
			c-0.3-27.1-1.9-54.3,4.8-81c6.6-26.3,17.4-50.6,35.1-71.4C144.6,82.1,145.3,82.9,145.9,83.6z"/>
		<path class="st2" d="M280.9,203.9c2.8,0.9,5.7,1.7,8.6,2.6c-4.7,3.4-10.8-0.8-15.4,2.7c-5.3,1.5-10.6,3-15.9,4.5
			c-7.1,2-12.1,6.1-15,13.2c-3.3,8-9.8,12.7-18.4,14.3c-0.7-0.5-1.5-1-2-1.6c-0.6-0.7-0.7-1.6,0.7-1.7c9.6-1,12.4-8.5,15.3-15.9
			c0.8-1.7,1.5-3.3,2.3-5c1.1-0.9,2.8-2.2,1.4-3.3c-1.7-1.3-3.9-0.4-5.6,1c-15.5,1.5-28.7-4.9-41.7-12.1c-0.1-1.2-0.1-2.3-0.2-3.5
			c2.3,0.3,4.7,0.6,7,0.9c17.7,7.5,35.4,17.3,54.1,2.5c1.9-1.2,3.9-2.4,5.8-3.6c3.1-0.7,6.1-1.4,10.5-2.4
			c-15.8-7.7-26.7-18.9-34.8-33c-1.4-4.4-2.8-8.8-4.3-13.3c0.6-1.3,1.2-2.5,1.8-3.8c0.8,1.6,1.6,3.3,2.4,4.9
			c9.1,18,21.6,32.9,39.7,42.6c1.4,2.1,4.6,2.2,5.4,5c-3.4,0.6-6.8,1.3-10.3,1.9c-2.8,0.1-5.2,1.1-7.8,3
			C270.5,203.9,275.7,203.9,280.9,203.9z"/>
		<path class="st0" d="M292.9,188.5c-0.9-0.6-1.8-1.2-2.7-1.7c-0.7-1.8-1.4-3.6-2-5.4c-3.4-19.1-5.8-38.3-5.3-57.8c0.5,0,1,0,1.4,0
			c0.1,2,0.2,4,0.2,6c0,3.4,0.6,4.7,4.5,2.9c16.4-7.8,21.1-5,23.8,13.6c0.1,0.7,0.9,1.4,1.4,2C306.2,161.1,296.1,173,292.9,188.5z"
			/>
		<path class="st4" d="M291.4,95.9c-15-0.8-29.1,2.6-41.8,10.3c-22.4,13.6-44.7,27.3-66.4,42c-18,12.1-21.4,27.3-12.8,47.2
			c3.2,8.1,9.5,13.7,15.6,19.5c-0.6,0.6-1.3,1.2-1.9,1.8c-29.6-17.9-31.8-54.8-3.7-74.2c19.9-13.7,40.7-25.9,61.5-38.3
			c15.2-9.1,31.8-12.6,49.5-10.3C291.4,94.6,291.4,95.2,291.4,95.9z"/>
		<path class="st0" d="M256,202.5c-18.8,14.8-36.4,5.1-54.1-2.5c-0.4-3.2-2.6-4.9-5.2-6.2c-2.4-4-6.7-6.6-8.2-11.2
			c-2.5-7.6,0.2-11.3,8-10c2.5,0.4,5.1-2.1,7.3,0.4c10,17.4,26.2,24.7,45.1,27.6C251.3,201,254.2,199.7,256,202.5z"/>
		<path class="st2" d="M386.3,292.1c-16.2-7.3-33.7-10.5-50.6-15.6c-19.3-5.9-38.2-12.5-55.3-23.4c-3.7-2.3-7.7-4.2-10.3-7.9
			c0.1-0.6,0.2-1.3,0.3-1.9c35.2,21.3,75.1,29.1,113.9,40.3c11.9,6.1,24.4,10.7,34.5,20.1c12.4,11.5,17,25.2,14.2,42.1
			C432,315,412.7,300.4,386.3,292.1z"/>
		<path class="st5" d="M441,255.3c-1.7-5.8-4.6-11.3-3.8-17.6c3-2.3,4.7,0.8,7,1.8c2.4,2.4,5.7,2.7,8.8,3.5c2.3,1.2,4.7,2.3,7,3.5
			c0,0,0,0,0,0c-1.5,2.8-5.9,1.2-8,6.8c4.6-3.9,8-2.2,11.5-1.6c2.9,1.5,2,4.9,3.5,7c0.2,2.8,1.2,5.2,3.5,7l0,0
			c0.9,6.4,4.1,11.9,7.1,17.5c-1.8,2.7-4.6,1.5-7,1.8c-4.1-1.8-8.2,0.9-12.3,0c-4.2,1.2-6.8-2.2-10.1-3.5
			c-1.4-5.7-2.8-11.4-4.2-17.2c2.5-4.1,8.6-0.3,10.9-4.9C450.2,258.1,445.6,256.7,441,255.3z M452.8,275.2c2.2,2.5,4.5,4,7.5,1.7
			C457.5,276.2,455.1,275.7,452.8,275.2z"/>
		<path class="st6" d="M305.3,243.2c-3.9-2.6-8.4-4.6-10.7-9.2c-0.7-5.2-7.1-10.6,0.3-15.6c3,15.8,21.3,28.8,37.7,27.2
			c14.8-1.4,29.4-4.9,44.4-2.7c10,1.5,19.6,3.9,27.6,10c6.4,4.8,12.2,10.5,7.8,19.9c-0.6-0.6-1.2-1.3-1.7-1.9
			c-0.3-11-8.7-14.7-17-18.2c-3.9-1.6-8.3-2-12.5-2.9c-14.9-3.6-29.6-0.1-44.3,1.3c-19,1.7-37.7,2.5-54.1-10
			c0.6-0.6,1.2-1.2,1.9-1.8c5.4,2.8,10.7,5.8,17.1,5.7c2.9,2,5.9,2.1,10,0.6C309,244.5,307.1,243.8,305.3,243.2z"/>
		<path class="st6" d="M196.4,413.2c0.2-12.8,0.4-25.6,0.6-38.4c3.1-12,1.1-24.3,2.8-36.4c3-22.3,7.2-44.2,14.7-65.5
			c0.6,1.2,1.1,2.3,1.7,3.5c-10.7,43.3-12.7,87.5-14.2,131.7c-0.1,2.9,0.2,5.8,0.4,8.7c-0.1,6.1-0.2,12.1,0.8,18.1
			c1.6,9,6.4,15.2,15,18.4c-0.7,0.5-1.4,1.1-2.1,1.6c-11.2-2-15.7-10.3-17.5-20.1C197.2,427.8,197,420.5,196.4,413.2z"/>
		<path class="st7" d="M448.2,281.6c3.3,1.3,5.9,4.7,10.1,3.5c3.7,3.4,8.2,1.1,12.3,1.7c6.2-1.2,9.5,2.5,9.7,7.8
			c0.2,5.5,2.3,10.2,4.1,15.1c0.4,4.8,0.8,9.5,1.4,15.6c2.9-4.2,5-7.3,7.2-10.5c0.7,0.1,1.3,0.1,2,0.2c-0.8,3.4,3.7,4,3.6,7.1
			c-3.9-0.5-5.5,1.8-6.8,5c-2.9,7.1-6,14.2-9,21.3c-1.7,1.2-2.5,3.8-5.2,3.4c0.2-0.6,0.3-1.2,0.5-1.7c2.9-7.1,1.1-14.4,1.2-21.6
			c0.6-7.4-0.2-14.1-8.6-17c-1.2-2-3.3-2.6-5.3-3.4c-4.6-1.5-9-3.3-10.7-8.5c4.2-4.7,10.2,1.1,16.6-3.5c-8.1,0-14.2-0.9-19.7-3.9
			C449.3,288.9,448.6,285.3,448.2,281.6z M464.3,291.2c-2.7-1-4.5-1.3-6.3,0.1C459.8,292.5,461.6,292.3,464.3,291.2z"/>
		<path class="st8" d="M179.1,302.5c-15.7,21.4-27.1,44.9-29,71.6c-0.9,13.8,8.1,20.8,22.1,21.6c4.6,0.3,9.6-0.1,12,5.2
			c-3.9-1.5-7.9-2.6-12-1.9c-17.5,2.8-30.1-14.2-28-31.8c1.4-12,5.6-23.3,10.4-34.2c11.9-27,27.7-51.3,48.9-72c2-1.9,3.3-5.1,7.1-4
			c-7.4,9.4-14.7,18.8-22.1,28.1C184.4,290.4,181,296,179.1,302.5z"/>
		<path class="st0" d="M186.1,214.9c-6.1-5.8-12.4-11.4-15.6-19.5c6.2-2.6,10.8,1.4,15.9,3.6c2.9,1.2,5.8,2.3,8.7,3.5
			c13,7.2,26.2,13.7,41.7,12.1c1.6,0.3,3.2,0.6,4.1,2.3c-0.8,1.7-1.5,3.3-2.3,5c-9.8,1.9-19.6,4.5-29.7,3.3c-0.9-1.3-2.3-2-3.6-1.3
			c-1.7,1,0.6,2.4,0.1,3.6c-3.5-1.5-6.6-3.9-10.7-4.1C194.7,217.9,189.1,217.7,186.1,214.9z"/>
		<path class="st6" d="M405.6,348.3c-5.7-6-10.7-12.7-17.6-17.5c-15.1-13.3-33.3-21.3-51.3-29.7c-16.9-7.9-34.4-14.6-50.2-24.7
			c-10-6.3-19.4-13.2-26.2-23.3c31.4,27,72.2,36,106.9,56.4c10.1,6,18.9,13.5,28,20.8c4.1,5.3,9.2,9.8,12.3,15.8
			C406.9,346.9,406.2,347.6,405.6,348.3z"/>
		<path class="st5" d="M560,300.5c-7.9,7-14.2,16-24.6,19.8c-3.3,1.2-6.6,2-10.1,1.8c-5.3-0.2-10.6-0.3-15.9-0.5
			c-2.4-2.8-4.8-5.6-7.2-8.4c0-0.6,0-1.2,0.1-1.8c0.6-0.6,1.2-1.2,1.7-1.8c1.2,1.2,2.3,2.3,3.5,3.5c0.3,3.6,2.2,5.6,5.4,6.8
			c3-6.6-2.7-5.4-5.5-6.8c-0.3-2.6,0.6-4.8,1.8-7c0.6-0.6,1.2-1.2,1.8-1.7c1.8,0.6,3.5,1.2,5.3,1.7c2.3,1.9-3.2,5.8,1.8,7
			c1.8,2.9,3.8,5.5,8.3,7.1c-1.5-2.5-2.3-3.9-3.1-5.4c3.1,0.1,2.7-1.6,1.8-3.6c1.8,0.6,3.5,1.2,5.3,1.8c1.9,3.9,4.5,3.6,7.8,0.8
			c-2.1-1.5-4.1-2.9-6-4.3c-2.9-0.5-4.6-7.3-8.8-1.7c-1.8-1.8-3.5-3.5-5.3-5.3c0-4.2,5.5-0.1,5.1-2.9c-0.9-6.2,4.4-10.7,3.5-16.7
			c0.8-1.7,2.2-1.5,3.7-1.4c0,1.7,0,3.5,0,5.2c-1.5,5-7.6,9.9,0.6,15.5c-3.8-4-1.3-6.2,1.2-8.5c1.9,0,4,0.3,5.2-1.8
			c1.8,0,3.5,0,5.3,0c2.6,3.9,5.7,6.2,10.5,3.6C553,300.5,558.2,298.1,560,300.5z"/>
		<path class="st9" d="M425,75.9c23.3,25.5,36.5,55.9,42.1,89.7c4.2,24.9,2.8,50.1,2.9,75.2c0,4.4,0,8.8,2.5,12.7
			c-0.7,0-1.3,0-2,0.1c-2.8-3-4.8-6.8-8.9-8.6c0.1-0.7,0.1-1.4,0.2-2.1c3.6,1,3.9-1.3,3.9-3.8c0.2-39,2.2-78.1-14.5-115.1
			C443.8,107.3,434,92.3,423,78C423.7,77.3,424.3,76.6,425,75.9z"/>
		<path class="st10" d="M137.4,313.3c-2,7-4,14-6,20.9c-2.3,0-4.5,0-7.4,0c2,2.6,5.2,1.3,6.2,3.9c-0.2,1-0.3,2.1-0.5,3.1
			c-2.7,2-6.6,1.5-9.3,4.8c1.7,0.2,3,0.4,4.3,0.6c-3,1-4.8,5.1-8.8,3.4c-4.1-1.7-8.2-1.7-12.3,0c-1.2,0.6-2.4,1.2-3.5,1.8
			c0.6-3.6,1.2-7.1,1.8-10.7c1.3-1.1,2.4-2.7,3.9-3.1c8-2.3-2.6-2.3-0.4-3.8c8.6,0.1,3.8-5.3,3.5-8.8c0,0,0,0,0,0
			c4.5-0.7,2.2-4.8,3.5-7l0,0c1.2-0.6,2.3-1.2,3.5-1.8c0.6-0.6,1.2-1.1,1.8-1.7c2.3-0.9,6.1,4.3,7-1.8l0,0
			C128.9,316.5,133.2,313.7,137.4,313.3z M124.7,327.2c1.7-0.4,3.8,0.9,5.8-1.5c-3.5-0.3-5.9-3-9.5-1.5
			C122.2,325.2,123.4,326.2,124.7,327.2c-2.3,0.4-4.8-0.8-7.3,1C120.3,329.3,122.7,329.5,124.7,327.2z"/>
		<path class="st7" d="M94.7,416.7c-3.5-9.2-7.1-18.4-10.6-27.7c1.2-1.9,2.3-0.8,3.5,0c0.9,0.7,2,1.5,3,0.3c1.2-1.4-0.1-2.6-0.8-3.8
			c1.8-0.8,1.5-2.6,1.9-4c2.2-2.1,0.9-5.1,1.7-7.4c1.9-5.3,1-11.8,6.7-15.4c3.6-0.6,7.1-1.2,10.7-1.7c3.5,0,7,0,10.5,0
			c-1.8,1.2-3.5,2.3-5.3,3.5c-5.2,0-10.4,0-15.6,0c5.2,1.3,10.2,4.6,15.6,1.7c2.5,0.3,4.7-0.4,6.8-1.7c1,6.1-3.5,8.5-7.6,10.9
			c-2.6,1.6-5.9,2.2-7.8,4.9c-1.5,0-2.9,0.1-3.7,1.6c-4.2,1.8-6,4.7-5.7,9.6c0.6,9.6,0.7,19.3,1,28.9
			C97.5,416.6,96.1,416.7,94.7,416.7z"/>
		<path class="st11" d="M477.4,351.8c2.7,0.4,3.5-2.3,5.2-3.4c-0.8,3.1,1.2,4.4,3.7,5.3c-1.5,2.7-5.5,0.6-7,3.5
			c-5.4-1.8-3.6,2.2-3,4.2c2,7,4.4,13.9,6.6,20.8c-1.1,1.2-2.3,2.4-3.4,3.5c-0.5-0.9-0.9-1.8-1.4-2.7c-0.9,1-1.8,1.9-2.6,2.9
			c-1.6,0.4-3.3,0.8-4.9,1.2c-0.6-0.1-1.2-0.1-1.7,0.1c-0.6-0.1-1.2-0.1-1.9-0.2c-4.2-6.3-5.1-14.4-11.9-22c2,9.4,3.5,16.5,4.9,23.6
			c-1.7,0-3.5-0.1-5.2-0.1c1.5-2.4,0.8-4-1.8-4.9c-1.3-3.5,2.8-8.7-3.5-10.5c1-1.9,3.8-2.7,3.4-5.4c-0.6-1.1-1.2-2.3-1.7-3.4
			c5.7-0.7,10.5-2.6,12.3-8.8c2.2-0.2,4.8,0.6,5.7-2.5c-1.3-0.3-2.7-0.7-4-1c-1.9-2.3,1.9-1.8,1.6-3.4c1.1,0.6,2.2,1.1,3.4,1.7
			C472.6,350.7,475,351.2,477.4,351.8z M467.3,360.6c0.8,2,1.6,4,2.8,6.8C472.1,363.4,470.4,361.7,467.3,360.6z"/>
		<path class="st12" d="M38.5,383.4c-9.9-2.4-14-11.6-21.1-17.4c4.6-4,11-4.1,15.9-7.3c3.5-2.9,7-0.5,10.5,0c0,0,0,0,0,0
			c0.7,1.4,2.1,1.7,3.5,1.9c-0.4,7.3,3.1,2.4,5.3,1.7c0,0.6,0,1.2,0,1.7c-1.2,2.9-2.4,5.8-3.5,8.8c-2.1,0.2-4.5,0.8-4.5,3
			c-0.1,3,2.7,2,4.5,2.2c0.3,2.8-2.4,3.5-3.5,5.3C43.3,383.4,40.9,383.4,38.5,383.4z"/>
		<path class="st0" d="M237.5,163.6c8.1,14.1,19.1,25.3,34.8,33c-4.4,1-7.4,1.7-10.5,2.4c-12.9-3.4-26-6-37.3-13.6
			C234.4,183.2,236.6,179.6,237.5,163.6z"/>
		<path class="st3" d="M301.7,188.4c5.9-13.6,15.7-24.5,25.5-35.3c8.3-9.2,19.3-17.6,9.7-32.9c8.9,6.7,10.2,15.6,4.4,24.9
			c-5,8-11.6,14.6-17.9,21.5c-10.7,11.9-19.7,24.6-21.7,41.1c-2.6-2.6-0.9-5.9-1.6-8.9c0-1.1,0-2.3-0.1-3.4
			C300.6,193.1,301.2,190.7,301.7,188.4z"/>
		<path class="st13" d="M292.9,188.5c3.2-15.5,13.4-27.4,21.2-40.5c4.6-6.9,7.8-14.3,9.2-22.5c3.2,2.4,0.7,6,1.8,8.8
			c-1.3,9.6-6.5,17.4-11.2,25.4c-4.9,8.3-10.8,15.9-13.7,25.3c-2,1.8-1.8,4.3-2.1,6.6c-2.7,5.1-1.1,10.6-1.3,15.9
			c-0.6,0.7-1.2,1.4-1.9,2c-7-0.1-14-0.2-21-0.3c4.7-3.5,10.7,0.7,15.4-2.7c1.6,0,4.5,3.3,4.1-1.8
			C293.1,199.3,293.1,193.9,292.9,188.5z"/>
		<path class="st14" d="M324.8,234.3c13.4-13.1,19.8-29.4,17.2-47.7c-1.6-11.2-0.4-20.5,5.9-29.5c0.5-0.1,1-0.2,1.5-0.3
			c0,1.3,0.1,2.6,0.1,3.9c-4.1,8.6-3,17.1-1.2,26.3c3.6,18.3-4.9,33.4-15.8,47.2c-3,3.8-7.9,4.8-12.8,3.3
			C321.4,236.4,323.1,235.3,324.8,234.3z"/>
		<path class="st15" d="M553,295.6c-4.8,2.6-8,0.4-10.5-3.6c0.6-1.2,1.1-2.3,1.7-3.5c1.2-6,5.2-5.2,9.6-2.9
			c-0.3-3.2-0.6-5.4-0.8-7.7c0-0.5,0-1,0-1.4c4-0.2,8-0.7,12-0.5c3.8,0.2,8.9-1.7,10.5,3.2c1.4,4.3-1,8.3-4.8,11.1
			c-1.7-0.3-3.7-1.3-5.1-0.8c-2.3,0.8-5.5-1.9-7,1.7c-1.8,4.6,3.6,3.5,4.7,5.9l0,0C559.9,297.4,556.3,297.7,553,295.6z"/>
		<path class="st8" d="M287.5,36.8c-3.6-9.3-7.8-15.7-18.9-17.9c9.9-4.3,15.7-9.6,18.5-18.8c2.6,9.2,7.6,14.8,17.4,17.7
			C296,22,288.8,25.9,287.5,36.8z"/>
		<path class="st16" d="M109,500.9c-1,2.2-3,1.8-4.9,1.7c-7.9-17.3-7-35.9-7.8-54.2c1.2,0.6,2.5,1.2,3.7,1.8c0,1.9-0.3,3.8,1.5,5.2
			c0.2,1.6,0.4,3.3,0.7,4.9c-0.5,3.6,0.3,6.6,3.2,9c-2.8,5.2-0.6,9.7,1.8,14.2C107.8,489.3,108.4,495.1,109,500.9z"/>
		<path class="st17" d="M224.5,185.3c11.3,7.6,24.5,10.2,37.3,13.6c-1.9,1.2-3.9,2.4-5.8,3.6c-1.8-2.8-4.7-1.5-7.2-1.9
			c-18.9-2.9-35.1-10.2-45.1-27.6C211.8,175.2,216.6,182.8,224.5,185.3z"/>
		<path class="st18" d="M475.5,385.8c0.9-1,1.8-1.9,2.6-2.9c0.5,0.9,0.9,1.8,1.4,2.7c-0.1,14.4,1,28.8-3.8,42.8
			c-1.2,3.4-1.5,7.4-5.1,9.6c-3.7-0.5-3.6-2.8-2.8-5.5c0.9-2.9,1.6-5.9,2.3-8.9c0.6-4.1,1.2-8.2,1.8-12.3
			C473.2,402.8,474.4,394.3,475.5,385.8z"/>
		<path class="st13" d="M282.8,123.6c-0.4,19.5,1.9,38.7,5.3,57.8c-0.5,1.1-1,2.3-1.5,3.4c-8.3-15.3-9.7-31.9-9.2-48.9
			c1.2-4.1,2.4-8.1,3.7-12.2C281.6,123.6,282.2,123.6,282.8,123.6z"/>
		<path class="st15" d="M33.4,358.8c-5,3.2-11.3,3.3-15.9,7.3c-1.7-1.4-3.3-2.8-5-4.2c2.3-1.6,6.8-2.1,3.4-6.6
			c-1.2-1.2-2.3-2.3-3.5-3.5c1.2-0.6,2.4-1.2,3.6-1.8c1.9-0.4,4.1,2.1,5.7,0c2.5-3.5-1.5-5.7-2.2-8.6c3.6,0,7.3-0.7,10.6,1.3
			c0.6,3,1.1,6.1,1.7,9.1C32.2,354.2,32.8,356.5,33.4,358.8z"/>
		<path class="st15" d="M45.7,383.4c1.1-1.8,3.8-2.6,3.5-5.3c0.5-1.7,2.8-3.5,0-5.2c1.2-2.9,2.4-5.8,3.5-8.8
			c2.5,1.9,1.5,4.6,1.7,7.1c-1.6,2.4,1,2.1,1.8,2.4c2,0.7,2.8-0.9,3.5-2.4c1.2,0,2.3,0,3.5,0c3.9-0.3,4.7,3.5,7,5.3
			c-2,4.1-5.6,6.9-8.7,10.1c-3.1,0.2-6.3,0.5-9.4,0.7c-1-0.2-2-0.3-3-0.5C48,385.6,46.8,384.5,45.7,383.4z"/>
		<path class="st19" d="M91.3,446.2c-11-5.3-13.3-9.5-10.2-18.8c1.7,0.1,2.6,4,4.9,1.4c2.5-2.9-1-4.6-1.8-6.8c1.5-2.8,4-3.7,7.1-3.4
			c3.8,1.7,0.6,7.6,5.3,8.8C93.9,433.3,92.3,439.6,91.3,446.2z"/>
		<path class="st20" d="M101.5,455.4c-1.7-1.4-1.4-3.4-1.5-5.2c0-0.6,0.1-1.2,0.1-1.9c2.5,1.1,4.9,2.4,5.3-2.2
			c0.4-4.1-0.9-7.9-1.8-11.8c0.2-0.2,0.3-0.5,0.5-0.7c0.2-0.2,0.6-0.5,0.7-0.5c3.2,1.9,0.9,6.1,4.3,9.4c0.5-6.6,2.1-12,5-17
			c2.5,0,5.1-0.1,5.3,3.4c0,0.6,0,1.2,0,1.8c0.9,6.7-6.9,10.7-5.3,17.6c-1.3,1.2-2.5,2.5-3.8,3.7l-0.5,0.2c0,0-0.5-0.2-0.5-0.2
			c-1.3,0-2.7-0.1-4-0.1c-0.5-0.1-1.1-0.1-1.6-0.1C100.7,451.7,101.8,454,101.5,455.4z"/>
		<path class="st21" d="M54.4,371.1c-0.2-2.4,0.8-5.2-1.7-7.1c0-0.6,0-1.2,0-1.7c1.2-0.6,1.2-1.2,0-1.8c0.5-4.6-2.8-7.9-3.9-12
			c0.2-0.3,0.5-0.5,0.9-0.6c6.9,2.6,13.8,5.2,18.7,11c-0.4,4.6-7.4,6.4-5.2,12.1c-1.2,0-2.3,0-3.5,0C57.9,369,56.2,371.7,54.4,371.1
			z"/>
		<path class="st22" d="M425,75.9c-0.7,0.7-1.3,1.4-2,2.1c-15.1-17-33-30.7-52.5-42.3c0.8-0.6,1.6-1.3,2.3-1.9
			C393.4,43.8,410.5,58.2,425,75.9z"/>
		<path class="st23" d="M553,278.1c0.2,2.3,0.5,4.5,0.8,7.7c-4.4-2.4-8.4-3.1-9.6,2.9c-2.8,0.3-5.2,1.2-7,3.5
			c-1.2,2.1-3.3,1.7-5.2,1.8c-2.6-1.8-1.5-4.6-1.8-7c0-1.7,0-3.5,0-5.2c4.7-3,9.9-3.6,15.3-3.7C548,277.7,550.4,282.2,553,278.1z"/>
		<path class="st24" d="M114.2,425.5c-2.9,5-4.5,10.4-5,17c-3.4-3.2-1.1-7.5-4.3-9.4c-0.1-0.1-0.5,0.3-0.7,0.5
			c-0.2,0.2-0.3,0.5-0.5,0.7c-2.3,4.4,0,9.9-3.5,14c0,0.6-0.1,1.2-0.1,1.9c-1.2-0.6-2.5-1.2-3.7-1.8c-1.1-0.6-2.2-1.2-3.3-1.8
			c5.1-6.8,3.7-16.2,8.9-22.9c0.3,1.3,0.5,2.5,0.8,3.8c0.8-1.1,2.2-2.2,2.1-3.2c-0.2-2.6-1.9-0.6-2.9-0.6c0-1.2,0-2.3,0-3.5l0,0
			c2.6-0.3,4.8,0.6,7,1.8c0,0.6,0,1.1,0,1.7c-1.5,1-3.1,3.1-2,4.1c1.8,1.5,2.1-2,3.7-2.3C111.8,425.5,113,425.5,114.2,425.5
			L114.2,425.5z"/>
		<path class="st16" d="M122.7,360.6c-2.1,1.3-4.3,2-6.8,1.7c0-0.6,0-1.2,0-1.7c1.8-1.2,3.5-2.3,5.3-3.5c0.1-0.3,0.3-0.5,0.3-0.8
			c0-0.2-0.2-0.7-0.4-0.7c-3.6-0.1-7.3-1.6-10.5,1.4c-3.6,0.6-7.1,1.2-10.7,1.7c-1.4-2.2-5.4-1.9-5.5-5.5c0,0,0.1,0.1,0.1,0.1
			c1.8-0.5,3.7-1.1,5.5-1.6c1.2-0.6,2.4-1.2,3.5-1.8c4.1,2.8,8.2,2.7,12.3,0c4,1.6,5.8-2.5,8.8-3.4c1.3-0.6,2.5-1.2,3.8-1.8
			C128.3,350.7,127,356.2,122.7,360.6z"/>
		<path class="st21" d="M516.2,306.1c-1.8-0.6-3.5-1.2-5.3-1.7c-0.9-3.2-1-6.8-4-9c4.8-7,12.5-9.1,19.6-12.4
			c0.8,5.9-4.5,10.5-3.5,16.7c0.4,2.8-5.2-1.3-5.1,2.9C516.5,303.4,516.2,304.7,516.2,306.1z M515.3,299.6c1.4-1.7,0.6-3-0.6-4.2
			c-0.2-0.2-1.3,0-1.3,0.1C513,297.3,514,298.5,515.3,299.6z"/>
		<path class="st25" d="M470.2,350.1c-1.1-0.6-2.2-1.1-3.3-1.7c-1.1-0.5-2.2-1-3.3-1.5c3.4-1.4,2.3-4.4,2.3-6.8
			c-0.3-10.7,0.9-21.5-0.7-32.1c2,0.8,4.1,1.5,5.3,3.4C469.3,324.3,469.8,337.2,470.2,350.1z"/>
		<path class="st26" d="M145.9,83.6c-0.7-0.7-1.3-1.4-2-2.1c11.1-14.8,24.1-27.5,40-37.1c0.7,0.7,1.5,1.3,2.2,2
			C171.4,57.3,157.8,69.5,145.9,83.6z"/>
		<path class="st27" d="M479.3,357.1c1.5-2.9,5.5-0.7,7-3.5c7.4,0.7,8.9,6.7,10.3,12.2c1.5,5.8-1.6,9.9-6.7,12.7
			c-0.4-2.5,0.8-5.4-1.8-7.3c-0.3-2.8-1.2-5.3-3.5-7.1c0-2.6,0.1-5.1-3.6-5.3C480.5,358.2,479.9,357.7,479.3,357.1z"/>
		<path class="st28" d="M212.4,228.7c0.7,3.3-2.4,2.6-3.8,3.4c-3.3,1.7-6.5,3.5-5.5,7.7c0.9,4,4.2,5.2,8.1,5.1
			c2-0.1,4.2-0.8,5.3,1.7c-1.8,0.8-3.6,1.8-5.5,2.4c-6.1,2-11.1,0-13.5-5.8c-3.3-7.7,1.9-11.6,8-14.6
			C207.7,228.6,210.1,228.7,212.4,228.7z"/>
		<path class="st29" d="M372.8,33.8c-0.8,0.6-1.6,1.3-2.3,1.9c-14.6-6.5-29.6-12.3-44.7-17.6C342.9,19.2,358.3,25,372.8,33.8z"/>
		<path class="st29" d="M200.2,34c15-8.2,30.6-14.5,47.9-16.1c-16.5,4.8-31.5,13-47.8,18.2C200.2,35.5,200.2,34.7,200.2,34z"/>
		<path class="st30" d="M15.8,350c-1.2,0.6-2.4,1.2-3.6,1.8c-1.3,0.2-3.9,0-3.5,0.9c1.2,2.9,3.4,5.2,7,2.6c3.4,4.5-1,5-3.4,6.6
			c-4.2-2.3-7.2-5.8-9.7-9.7c-4.9-7.6-3.4-10,6.1-10.8c-1.6,6.3,4.2,5.1,7,6.9C15.8,348.9,15.8,349.4,15.8,350z"/>
		<path class="st31" d="M110.6,413.2c11.1-5.3,16.2-4.1,22.3,5.3c-4.7-0.3-9.2,4.3-14.1,0.5c-0.1-0.1-1.9,1.9-2.9,2.9
			c-0.6-0.6-1.2-1.2-1.7-1.8c-1.8-1.2-3.5-2.3-5.3-3.5C112,416.8,111.5,415.1,110.6,413.2z"/>
		<path class="st32" d="M117.6,315c-0.6,0.6-1.2,1.1-1.8,1.7c1.4-4.7-2.8-4-5-5.2c1.6-3.3,3.4-6.6,6.4-9c1.3,1.2,2.6,2.5,3.9,3.7
			c3.9,1.9,7.5,1.6,10.6-1.8c1.9-0.1,4,0.3,5.3-1.8c2,1.3,1.5,3.5,1.8,5.4l-0.1-0.1c-4.7,1.8-9.4,3.5-14,5.3c0,0,0,0,0,0
			C122.3,313.5,119.5,312.3,117.6,315z"/>
		<path class="st7" d="M463.5,355.3c-1.8,6.2-6.6,8.1-12.3,8.8c0,0,0,0,0,0c-2.5-2.9-5.8-1.2-8.8-1.8c-0.5-0.6-0.9-1.1-1.4-1.7
			c-1-3.2,1.5-5,3-7.2c3,0,6,0.1,9,0.1c0,0,0,0,0,0c-0.6,0.7-1.4,1.2-1.6,2c-0.6,2.1,1.2,1.4,1.9,1.2c2.7-1.2,5.6-1.6,8.5-1.4
			C462.3,355.3,462.9,355.3,463.5,355.3z"/>
		<path class="st18" d="M115.9,422c1-1,2.7-3,2.9-2.9c4.9,3.8,9.4-0.8,14.1-0.5c1.6,2.7,2.8,5.5,2.3,8.7c-2.9,0.5-6.3-1.2-8.8,1.8
			c0,0.5,0,1.1,0,1.6c-2.3-0.6-4.7-1.2-7-1.8c-0.2-3.6-2.8-3.4-5.3-3.4c0,0,0,0,0,0C113.9,423.9,117.7,424.4,115.9,422z"/>
		<path class="st2" d="M103.6,378.1c0.8-1.5,2.2-1.6,3.7-1.6c1.5,12.4-1.2,24.9,1.5,37.2c-1.8,1-3.7,1.9-5.5,2.9
			C105,403.7,104.3,390.9,103.6,378.1z"/>
		<path class="st33" d="M119.4,428.9c2.3,0.6,4.7,1.2,7,1.8c2,0.1,3.9,0.3,5.8,1.4c3.7,2.1,2.5-1,2.5-2.7c0.2-0.2,0.5-0.4,0.7-0.6
			c1.5,3.7,1.4,7.4,0,11.1c-1.7-2.4-3.5-2.8-5.5-0.4c-0.6,0-1.2,0-1.7,0c-1.5-2-3.7-5.8-4.1,0.1c-0.2,3.8-2.8,3.7-4.7,5.2l0,0
			c-1.8-4.7,4.6-9.4,0-14.1C119.4,430.2,119.4,429.5,119.4,428.9z"/>
		<path class="st34" d="M63.2,371.1c-2.2-5.7,4.8-7.5,5.2-12.1c3.8,2.7,6.3,6.5,8.6,10.5c-2.2,1.9-1.3,4.6-1.5,6.9l0,0
			c-3-1.5-0.5-5.2-3.1-7.3c-1,2.6,0.4,5.6-2.2,7.3C67.9,374.6,67.1,370.8,63.2,371.1z"/>
		<path class="st35" d="M463.6,346.9c1.1,0.5,2.2,1,3.3,1.5c0.3,1.5-3.5,1.1-1.6,3.4c-0.8,1.4-2.1,1.7-3.5,1.8c-2.9,0-5.9,0-8.8,0
			c0,0,0,0,0,0c-1.5-2.8-5.5-0.6-7-3.4C451.1,344.8,456.9,343.7,463.6,346.9z"/>
		<path class="st36" d="M452.9,367.5c0.4,2.8-2.4,3.5-3.4,5.4c-0.4,4.3,1.2,8.3,2.3,12.3c0.4-0.3,0.8-0.6,1.1-1
			c0.2-0.2,0.1-0.6,0.2-0.8c2.5,0.9,3.3,2.5,1.8,4.9c-2.5,0.1-5,0.4-7.2-1.2c-0.2-6.2,0.1-12.7-6.9-16c0-0.6,0-1.2,0-1.8
			C444.8,368.7,448.9,368.1,452.9,367.5z"/>
		<path class="st37" d="M460,388.4c-1.5-7.1-3-14.1-4.9-23.6c6.8,7.6,7.7,15.7,11.9,22c-1.4,0-2.7,0.2-3.5,1.5
			C462.3,388.3,461.2,388.4,460,388.4z"/>
		<path class="st38" d="M122.9,295.9c4.6-3.1,9.2-6.1,13.8-9.2c4.2,3.7,1,6.2-1.5,8.8c-2.2,3.1-7.6,0.8-8.8,5.4
			c-1.1-0.6-2.3-1.1-3.4-1.7C123,298.1,122.9,297,122.9,295.9z"/>
		<path class="st39" d="M479.3,357.1c0.6,0.6,1.1,1.1,1.7,1.7c0.4,2.7-1.2,6.5,3.5,7c0,2.4,0,4.8,0.1,7.2c0,2.8-0.1,5.7-0.1,8.5
			c-0.4,0.4-1,0.6-1.6,0.5c-2.2-6.9-4.6-13.8-6.6-20.8C475.8,359.3,473.9,355.3,479.3,357.1z"/>
		<path class="st40" d="M484.4,309.7c-1.9-4.9-3.9-9.5-4.1-15.1c-0.2-5.3-3.5-8.9-9.7-7.8c0-0.6,0-1.1,0-1.7c2.4-0.3,5.2,0.8,7-1.8
			c1.1-1.9,2.2-0.1,3.3,0C483.7,291.9,485,300.6,484.4,309.7z"/>
		<path class="st41" d="M295,218.4c-7.4,5.1-1,10.4-0.3,15.6c-9.4-4.8-9.3-15.9,0.3-22.6c0.5,1.2,1,2.3,1.5,3.5
			C295.9,216.1,295.4,217.2,295,218.4z"/>
		<path class="st39" d="M101.8,420.3c0,1.2,0,2.3,0,3.5l0,0c-5.2,6.8-3.8,16.1-8.9,22.9c-0.6,0.1-1.2-0.1-1.6-0.5
			c0.9-6.5,2.6-12.8,5.2-18.9C97.2,424.1,97.7,420.8,101.8,420.3z"/>
		<path class="st42" d="M470.5,253.5c0.7,0,1.3,0,2-0.1c4,2.6,8.1,5.1,12.3,7.8c-3.1,2.2-7.7,2.1-9.2,6.3c-0.5,0-0.9,0-1.4,0
			C474.9,262.3,471.3,258.3,470.5,253.5z"/>
		<path class="st43" d="M89.7,385.6c0.7,1.2,1.9,2.4,0.8,3.8c-1,1.2-2.1,0.3-3-0.3c-1.2-0.9-2.3-1.9-3.5,0c-1.6-0.7-3.3-1.4-4.9-2.1
			c-2.2-1.7,0.5-3.6-0.1-5.3c2.1-1.4,1.7-3.6,1.9-5.6C85.5,377.7,85,384.1,89.7,385.6z"/>
		<path class="st44" d="M108.9,325.5c0.2,3.5,5,8.8-3.5,8.8c-1.9,0.6-3.8,1.1-5.7,1.7c1.4-4.1,2.9-8.2,4.3-12.2
			c0.6-0.6,1.1-1.2,1.7-1.8C106.7,323.1,107.8,324.3,108.9,325.5z"/>
		<path class="st36" d="M79,381.7c0.6,1.8-2.1,3.6,0.1,5.3c-9,2-18,1.6-27,0.2c3.1-0.2,6.3-0.5,9.4-0.7c6.2,1,10.8-1.3,14-6.5
			C76.8,380.5,77.9,381.1,79,381.7z"/>
		<path class="st45" d="M296.4,214.9c-0.5-1.2-1-2.3-1.5-3.5c0-0.6,0.1-1.2,0.1-1.8c0.6-0.7,1.2-1.4,1.9-2c3.1-2.2,0.5-6.4,3.2-8.7
			c0.7,2.9-1,6.3,1.6,8.9c0,4.2,0,8.4,0,12.8C298.4,219.6,298.3,216.5,296.4,214.9z"/>
		<path class="st19" d="M453,243c-3.1-0.8-6.3-1.1-8.8-3.5c0-0.6,0-1.2,0-1.8c3.7-0.5,9.2,1.9,8.8-5.3c0-0.6,0-1.2,0-1.8
			c3.3,1.4,5.2,4,6.6,7.2c-0.4,0-0.8,0-1.2,0C454.6,237.4,457,243.5,453,243z"/>
		<path class="st7" d="M440.7,371.1c7,3.3,6.7,9.8,6.9,16C437.5,385.2,441.6,377.1,440.7,371.1z"/>
		<path class="st46" d="M101.8,420.3c-4.2,0.5-4.6,3.8-5.3,7c-4.6-1.2-1.5-7.1-5.3-8.8c1.1-0.6,2.3-1.2,3.4-1.8
			c1.4-0.1,2.8-0.1,4.2-0.2c1.5,0,2.9,0,4.4,0c1.8-1,3.7-1.9,5.5-2.9c0.6-0.2,1.2-0.3,1.8-0.5c0.9,1.9,1.3,3.6-1.8,3.5
			C106.5,417.9,104.2,419.1,101.8,420.3C101.9,420.3,101.8,420.3,101.8,420.3z"/>
		<path class="st7" d="M31.6,351.8c-0.6-3-1.1-6.1-1.7-9.1c2.8-0.7,4.9,0.9,7,2.4c0.6,0.5,1.1,1,1.7,1.4c-0.9,2.8,2.8,5.9,0.3,8
			C36.1,356.8,34.2,352.6,31.6,351.8z"/>
		<path class="st47" d="M474.3,267.5c0.5,0,0.9,0,1.4,0c1.7,5.3,3.5,10.5,5.2,15.8c-1.1-0.2-2.2-1.9-3.3,0
			c-2.9-5.6-6.1-11.1-7.1-17.5C471.8,266.4,473,266.9,474.3,267.5z"/>
		<path class="st48" d="M94.5,353.3c0,3.6,4,3.3,5.5,5.5c-5.8,3.6-4.8,10.2-6.7,15.4c-0.9,2.3,0.5,5.3-1.7,7.4
			C91.1,372,92.3,362.6,94.5,353.3z"/>
		<path class="st49" d="M38.6,346.5c-0.6-0.5-1.1-1-1.7-1.4c4.8-1.5,8.9,0,12.8,2.9c-0.4,0.1-0.7,0.3-0.9,0.6
			c-2.8,2.4-0.4,4.6,0.3,6.8c-1.8,1-2.5,3.8-5.3,3.5c0,0,0,0,0,0C43.5,354.1,44.6,348.8,38.6,346.5z"/>
		<path class="st50" d="M509.3,321.6c5.3,0.2,10.6,0.3,15.9,0.5c-8.9,1.7-17.8,1.8-26.7-0.1c0.2-3-4.4-3.7-3.6-7.1
			c1.2,0,2.4,0,3.7,0C501.1,318.9,503.3,323.4,509.3,321.6z"/>
		<path class="st51" d="M110.3,452c1.3-1.2,2.5-2.5,3.8-3.7c0.5,2.3,1.3,4.3,3.3,1c0.8-1.4,0.3-3.5,2-4.5c0,0,0,0,0,0
			c3.3,2.4,3.9,8.9,10.2,6.7l0.3,0.4C123.4,454.6,116.9,454.2,110.3,452z"/>
		<path class="st23" d="M437.2,230.7c0-3.1,0-6.3,0-9.5c3.1-0.6,4.9,1.3,7,2.8c-0.2,2.5,0.7,4.6,1.8,6.7
			C443,233.1,440.1,231,437.2,230.7z"/>
		<path class="st52" d="M100.1,351.8c-1.8,0.5-3.7,1.1-5.5,1.6c-0.4-5.7,2.3-10.5,4.1-15.6c2.1,0.1,3.1,1.3,3.2,3.3
			C101.3,344.7,100.7,348.2,100.1,351.8z"/>
		<path class="st53" d="M506.9,295.4c3,2.3,3.1,5.8,4,9c-0.6,0.6-1.2,1.2-1.8,1.7c-2.5,0-4.3,1.2-5.3,3.5c-0.6,0.6-1.2,1.2-1.7,1.8
			c0,0,0,0,0,0c0.6-3.9,1.2-7.8,1.8-11.7C504.9,298.3,505.9,296.8,506.9,295.4z"/>
		<path class="st54" d="M128.2,439.6c0.6,0,1.2,0,1.7,0c0,3.4,2.9,3.9,5,5.2c0.5,3.9,0,7.1-5,7c0,0-0.3-0.4-0.3-0.4
			c0.1-1.4,0.8-3.4,0.1-4.3C126.8,443.7,126.7,443.8,128.2,439.6z"/>
		<path class="st55" d="M105.2,451.9c1.3,0,2.7,0.1,4,0.1c-3.8,10.3-0.1,21-2.1,31.4c-2.4-4.5-4.6-9-1.8-14.2
			C105.3,463.5,105.3,457.7,105.2,451.9z"/>
		<path class="st18" d="M437.2,230.7c2.9,0.3,5.8,2.4,8.8,0c1.7,1.2,3.4,2.4,5.1,3.6c-1.5,2.8-5.4,0.5-6.9,3.4c0,0.6,0,1.2,0,1.8
			c-2.2-0.9-3.9-4-7-1.8C437.2,235.3,437.2,233,437.2,230.7z"/>
		<path class="st53" d="M441,255.3c4.6,1.4,9.2,2.8,13.8,4.2c-2.3,4.6-8.4,0.9-10.9,4.9C442.1,261.7,441.5,258.5,441,255.3z"/>
		<path class="st56" d="M563.6,297.4c-1.1-2.4-6.5-1.3-4.7-5.9c1.4-3.6,4.7-0.9,7-1.7c1.4-0.5,3.3,0.5,5.1,0.8
			C569.2,293.5,566.6,295.7,563.6,297.4z"/>
		<path class="st57" d="M135.2,295.5c2.5-2.6,5.7-5.1,1.5-8.8c2-2,3.1-0.8,3.2,1.2c0,6.7,1.7,13.5-1.1,20.1
			c-0.3-1.9,0.2-4.1-1.8-5.4C133.7,300.9,141.9,296.4,135.2,295.5z"/>
		<path class="st33" d="M451.3,292.1c5.5,3.1,11.6,3.9,19.7,3.9c-6.3,4.6-12.4-1.2-16.6,3.5C452.4,297.5,451.5,294.9,451.3,292.1z"
			/>
		<path class="st58" d="M200.2,34c0,0.7,0.1,1.4,0.1,2.1c-4.1,4.2-9.1,7.2-14.2,10.2c-0.7-0.7-1.5-1.3-2.2-2
			C188.8,40,194,36.3,200.2,34z"/>
		<path class="st59" d="M124.7,313.2c4.7-1.8,9.4-3.5,14-5.3c0.1,1.9,0.3,3.9-1.3,5.4C133.2,313.7,128.9,316.5,124.7,313.2z"/>
		<path class="st49" d="M452.9,367.5c-4.1,0.6-8.1,1.2-12.2,1.9c0.1-2.9,0.2-5.8,0.3-8.7c0.5,0.6,0.9,1.1,1.4,1.7
			c2.4,3,5.8,1.3,8.8,1.8c0,0,0,0,0,0C451.8,365.2,452.4,366.3,452.9,367.5z"/>
		<path class="st60" d="M451.1,234.3c-1.7-1.2-3.4-2.4-5.1-3.6c-1.1-2.1-2.1-4.2-1.8-6.7c3.5,1.5,6.4,3.7,8.8,6.6c0,0.6,0,1.2,0,1.8
			C452.4,233,451.7,233.6,451.1,234.3z"/>
		<path class="st31" d="M498.6,314.9c-1.2,0-2.4,0-3.7,0c-0.7-0.1-1.3-0.1-2-0.2c0.5-3.8,3.3-6.1,5.7-8.6c1.2,1.7,2.3,3.5,3.5,5.2
			c0,0,0,0,0,0c0,0.6,0,1.2-0.1,1.8C500.9,313.8,499.8,314.4,498.6,314.9z"/>
		<path class="st7" d="M15.8,348.3c-2.9-1.8-8.6-0.6-7-6.9c2.3,0,4.7,0,7,0C15.2,343.7,19,346,15.8,348.3z"/>
		<path class="st61" d="M15.8,348.3c3.2-2.3-0.6-4.6,0-6.9c1.2,0,2.4,0,3.5,0.1c0.7,2.9,4.6,5.1,2.2,8.6c-1.5,2.1-3.8-0.3-5.7,0
			C15.8,349.4,15.8,348.9,15.8,348.3z"/>
		<path class="st62" d="M325.1,134.3c-1.1-2.8,1.4-6.4-1.8-8.8c-0.2-3.1-0.8-6.2,0.7-9.9C327.1,122.1,328.1,128.1,325.1,134.3z"/>
		<path class="st23" d="M122.9,295.9c0,1.1,0.1,2.2,0.1,3.3c0,1.1,0,2.2,0,3.3c-0.6,1.2-1.2,2.4-1.8,3.7c-1.3-1.2-2.6-2.5-3.9-3.7
			C117.7,299.1,120,297.2,122.9,295.9z"/>
		<path class="st63" d="M186.1,214.9c3,2.8,8.6,2.9,8.7,8.6c-3.9-1.7-7.9-3.4-10.7-6.8C184.8,216.1,185.4,215.5,186.1,214.9z"/>
		<path class="st64" d="M101.9,341.1c-0.1-2-1-3.2-3.2-3.3c0.3-0.6,0.6-1.3,1-1.9c1.9-0.6,3.8-1.1,5.7-1.7c-2.2,1.5,8.4,1.5,0.4,3.8
			C104.3,338.5,103.2,340.1,101.9,341.1z"/>
		<path class="st65" d="M79,381.7c-1.1-0.6-2.3-1.2-3.4-1.7c0-1.2-0.1-2.4-0.1-3.5c0,0,0,0,0,0c1.9-0.7,3-2.2,3.8-3.9
			c1.6,0.7,1.5,2.2,1.6,3.6C80.7,378.1,81.1,380.3,79,381.7z"/>
		<path class="st46" d="M502.1,311.4c-1.2-1.7-2.3-3.5-3.5-5.2c1.2-2.6,2.8-4.9,5.3-6.5C503.3,303.6,502.7,307.5,502.1,311.4z"/>
		<path class="st20" d="M135,444.8c-2.1-1.3-5-1.9-5-5.2c2-2.4,3.8-2.1,5.5,0.4C135.3,441.6,135.1,443.2,135,444.8z"/>
		<path class="st54" d="M84.3,421.9c0.8,2.2,4.3,3.9,1.8,6.8c-2.3,2.6-3.1-1.3-4.9-1.4C81.6,425.2,82.4,423.3,84.3,421.9z"/>
		<path class="st66" d="M370.5,388.5c0.9-4.3,4-5.9,8-6.5C377.5,386.2,374.7,388.2,370.5,388.5z"/>
		<path class="st67" d="M110.8,311.4c2.2,1.3,6.4,0.5,5,5.2c-1.2,0.6-2.3,1.2-3.5,1.8c-0.6-1.5-1.4-2.6-3-3.1
			c-0.2-0.3-0.5-0.5-0.8-0.6C109.4,313.6,110.1,312.5,110.8,311.4z"/>
		<path class="st68" d="M324.8,234.3c-1.7,1-3.4,2.1-5.1,3.1c-3.4,0-5.3-2.9-7.9-4.5C316.1,233.4,320.5,233.8,324.8,234.3z"/>
		<path class="st69" d="M212.4,228.7c-2.3,0-4.7-0.1-7-0.1c0-0.3,0-0.7,0.1-1c0.4-1.2-1.8-2.6-0.1-3.6c1.3-0.7,2.7,0,3.6,1.3
			C210.1,226.4,211.3,227.6,212.4,228.7z"/>
		<path class="st70" d="M405.6,348.3c0.6-0.7,1.3-1.3,1.9-2c2.4,2.5,4.3,5.2,4.9,8.7C408.1,354.8,407.4,351,405.6,348.3z"/>
		<path class="st71" d="M128.4,344.8c-1.3,0.6-2.5,1.2-3.8,1.8c-1.3-0.2-2.6-0.3-4.3-0.6c2.7-3.3,6.6-2.8,9.3-4.8
			C129.9,342.7,129.8,344,128.4,344.8z"/>
		<path class="st72" d="M349.4,156.8c-0.5,0.1-1,0.2-1.5,0.3c0-3.5,0-7,0-10.7c2.6,1,2.9,3.2,3,5.4C349.1,153,349.5,155,349.4,156.8
			z"/>
		<path class="st56" d="M553,295.6c3.2,2.1,6.9,1.8,10.5,1.7c-1.2,1-2.4,2.1-3.6,3.1C558.2,298.1,553,300.5,553,295.6z"/>
		<path class="st73" d="M196.6,193.8c2.7,1.3,4.8,3,5.2,6.2c-2.3-0.3-4.7-0.6-7-0.9C195.5,197.3,196.1,195.6,196.6,193.8z"/>
		<path class="st74" d="M407.5,278.2c-0.3,2.1-0.7,4.2-1.1,6.7c-3.9-2.6-3-4.7-0.5-6.9c0,0,0.8-0.1,0.8-0.1L407.5,278.2z"/>
		<path class="st28" d="M291.4,95.9c0-0.6,0.1-1.2,0.1-1.9c3.1-0.6,5.7,1.3,8.5,1.9c-0.6,0.6-1.2,1.1-1.8,1.7
			C295.8,97.2,293.3,97.6,291.4,95.9z"/>
		<path class="st75" d="M394.8,374.4c4.2-1.6,8.3-3,12.4,0.2c-3,0.5-5.9,1-8.9,1.4C397.1,375.5,396,375,394.8,374.4z"/>
		<path class="st39" d="M458.4,237.7c0.4,0,0.8,0,1.2,0c1.7,1.3,2.6,2.9,2.2,5.1c-0.1,0.7-0.1,1.4-0.2,2.1c0,0.5,0.1,1,0.1,1.5
			c-0.6,0-1.2,0-1.8,0c0,0,0,0,0,0C459.9,243.5,457.6,240.9,458.4,237.7z"/>
		<path class="st76" d="M382.9,381.6c-0.7-5.7,3.5-5,6.9-5.2c0,0.5,0,1.1,0,1.6C387.4,379.2,385.2,380.4,382.9,381.6z"/>
		<path class="st77" d="M45.7,383.4c1.2,1.1,2.3,2.2,3.5,3.3c-4,0.3-7.5-0.7-10.6-3.3C40.9,383.4,43.3,383.4,45.7,383.4z"/>
		<path class="st78" d="M298.2,191.6c0.2-2.4,0.1-4.8,2.1-6.6c0.5,1.1,1,2.3,1.5,3.4c-0.6,2.3-1.2,4.7-1.7,7
			C299.4,194.2,298.8,192.9,298.2,191.6z"/>
		<path class="st79" d="M235,146.5c-0.6,1.3-1.2,2.5-1.8,3.8c-2.2-3-1.5-6.3-1.7-10.3C234.3,142.1,234.4,144.5,235,146.5z"/>
		<path class="st80" d="M407.5,278.2l-0.8-0.2c0,0-0.8,0.1-0.8,0.1c1.6-2.4,3.3-4.8,4.9-7.2c0.6,0.6,1.2,1.3,1.7,1.9
			C411.9,275.6,409.5,276.7,407.5,278.2z"/>
		<path class="st81" d="M410.8,374.6c2.7-1.7,6.2,0.6,8.8-1.7C417.6,378.3,414.3,377.1,410.8,374.6z"/>
		<path class="st82" d="M389.7,378c0-0.5,0-1.1,0-1.6c1.3-1.7,3.2-1.7,5-2c1.2,0.5,2.4,1.1,3.5,1.6
			C395.5,376.7,392.6,377.3,389.7,378z"/>
		<path class="st83" d="M217.1,246.4c2-0.7,3.9-1.4,5.9-2.1c-1.3,3.2-3.2,5.5-6.9,5.7C216.4,248.8,216.7,247.6,217.1,246.4z"/>
		<path class="st25" d="M216,455c0.7-0.5,1.4-1.1,2.1-1.6c2.1-0.2,4.1-0.4,7.8-0.8C222,456.3,219,455.7,216,455z"/>
		<path class="st84" d="M446,350.1c1.5,2.8,5.5,0.6,7,3.4c-3,0-6-0.1-9-0.1C444,352,444.4,350.7,446,350.1z"/>
		<path class="st85" d="M484.5,381.5c0-2.8,0.1-5.7,0.1-8.5c2.8,1.2,0.4,5,3.1,6.2l0.3,0.7C487.3,381.2,486,381.7,484.5,381.5z"/>
		<path class="st86" d="M298.1,97.6c0.6-0.6,1.2-1.1,1.8-1.7c1.9,0.8,4.6,0.6,5.1,3.9C302.4,99.7,300.1,99.4,298.1,97.6z"/>
		<path class="st87" d="M79.3,372.4c-0.8,1.8-1.9,3.2-3.8,3.9c0.2-2.4-0.7-5,1.5-6.9C77.8,370.4,78.5,371.4,79.3,372.4z"/>
		<path class="st60" d="M553,278.1c-2.6,4.1-5-0.4-7.5-0.2c2.3-1.6,4.9-1.6,7.6-1.2C553.1,277.1,553,277.6,553,278.1z"/>
		<path class="st88" d="M130.2,338.1c-0.9-2.6-4.2-1.3-6.2-3.9c2.9,0,5.2,0,7.4,0C131.7,335.8,131.4,337.1,130.2,338.1z"/>
		<path class="st89" d="M317.3,108.9c-2.6-1.4-4.2-2.4-4.3-4.7C316.2,103.9,316.9,105.7,317.3,108.9z"/>
		<path class="st90" d="M349.4,156.8c0.1-1.8-0.3-3.7,1.6-5c0.3,3.1,1.1,6.3-1.4,8.9C349.5,159.4,349.4,158.1,349.4,156.8z"/>
		<path class="st67" d="M488.1,371.1c2.6,1.9,1.4,4.8,1.8,7.3c-0.6,0.5-1.2,1-1.8,1.5c0,0-0.3-0.7-0.3-0.7
			C487.9,376.5,488,373.8,488.1,371.1z"/>
		<path class="st33" d="M126.4,429.1c2.4-3,5.8-1.3,8.8-1.8c0.4,0.4,0.5,1,0.3,1.5c-0.2,0.2-0.5,0.4-0.7,0.6
			C132,429.3,129.2,429.2,126.4,429.1z"/>
		<path class="st91" d="M282.8,123.6c-0.6,0-1.2,0.1-1.8,0.1c-0.2-1.8,0.5-4.1,2.1-4c2.4,0.1,0.9,2.5,1.1,3.9
			C283.7,123.6,283.2,123.6,282.8,123.6z"/>
		<path class="st92" d="M310.1,376.4c1.4,2.2,2.9,4.5,4.3,6.7c-0.1,0.9-0.2,1.8-0.3,2.6c-1.1-0.8-2.2-1.6-3.2-2.5
			c-18.4-18.3-35.2-37.9-47.6-60.8c-9.3-17.1-17.3-34.9-19.4-54.6c0.5-1.2,1.1-2.5,1.6-3.7c11.7,41.4,33.9,76.9,61.4,109.3
			C307.9,374.6,309.1,375.4,310.1,376.4z"/>
		<path class="st92" d="M254.4,253.7c12.9,18.9,28.7,35.1,45.5,50.5c9,8.2,17.8,16.7,25.8,25.9c-29.3-21-58.9-41.8-74.8-76.2
			c0.1-0.8,0.2-1.7,0.3-2.5C252.3,252.1,253.3,252.9,254.4,253.7z"/>
		<path class="st93" d="M254.4,253.7c-1.1-0.8-2.1-1.6-3.2-2.4c-0.4-2.4-1.5-4.3-4.1-4.9c1.8-5.9,4.8-4.3,7.1-0.6
			C255.6,248,256.3,251,254.4,253.7z"/>
		<path class="st94" d="M230.2,290.5c-1.2-3.4,1.2-7.3-1.7-10.4c-0.1-3.7-1.4-7.6,1.4-11c0.6,0.6,1.1,1.2,1.7,1.8
			C231.3,277.4,233,284.1,230.2,290.5z"/>
		<path class="st95" d="M284.7,239.2c-0.6,0.6-1.2,1.2-1.9,1.8c-3.5-1.6-6-4.2-6.8-8.8C278.9,234.6,281.8,236.9,284.7,239.2z"/>
		<path class="st96" d="M216.1,276.4c-0.6-1.2-1.1-2.4-1.7-3.5c0-3,1.2-5.2,4.5-8.1C218.5,269.9,218.3,273.4,216.1,276.4z"/>
		<path class="st97" d="M232.6,246.7c0.7,3.8,2.2,7.6-1.5,11.3C229.5,253.5,232.7,250.2,232.6,246.7z"/>
		<path class="st98" d="M242,257.2c-2.3-3.4-1.6-7.1-0.7-12.6c1.1,4.7,1.8,7.7,2.5,10.8C243.2,256,242.6,256.6,242,257.2z"/>
		<path class="st99" d="M242,257.2c0.6-0.6,1.2-1.2,1.8-1.8c0.6,2.9,1.1,5.8,1.7,8.7c-0.5,1.2-1.1,2.5-1.6,3.7
			C241.4,264.7,242.5,260.8,242,257.2z"/>
		<path class="st100" d="M270.4,243.3c-0.1,0.6-0.2,1.3-0.3,1.9c-3.4-1.1-5.8-3.3-8.1-7.1C266.2,238.4,268.2,241,270.4,243.3z"/>
		<path class="st97" d="M305.3,243.2c1.8,0.7,3.7,1.3,6.5,2.3c-4.1,1.5-7.1,1.4-10-0.6C302.9,244.3,304.1,243.8,305.3,243.2z"/>
		<path class="st101" d="M231.5,270.9c-0.6-0.6-1.1-1.2-1.7-1.8c0.2-2.5,0.4-4.9,0.7-8.6C232.5,264.8,231.6,267.9,231.5,270.9z"/>
		<path class="st102" d="M247.1,246.4c2.6,0.6,3.7,2.5,4.1,4.9c-0.1,0.8-0.2,1.7-0.3,2.5C248.7,251.8,247.7,249.2,247.1,246.4z"/>
		<path class="st103" d="M314.2,385.7c0.1-0.9,0.2-1.8,0.3-2.6c2.3,1.6,4.1,3.4,5.2,6.5C316.5,389.2,315.3,387.5,314.2,385.7z"/>
		<path class="st104" d="M472.1,411.3c-0.6,4.1-1.2,8.2-1.8,12.3c-3.4-12.1-0.8-24.4-1.4-36.5c0.6-0.1,1.1-0.2,1.7-0.1
			C470.9,395.1,468.3,403.4,472.1,411.3z"/>
		<path class="st13" d="M279.1,192.3c-16.2-15.3-24.1-33.7-20-56.3c2.9,22,12.8,40.8,26.2,58C282.4,196,281.2,192.3,279.1,192.3z"/>
		<path class="st105" d="M280.9,203.9c-5.2,0-10.5,0-16.5,0c2.6-1.9,5-2.9,7.8-3C274.4,204,278.7,201.1,280.9,203.9z"/>
		<path class="st106" d="M279.1,192.3c2.2,0.1,3.4,3.7,6.2,1.7c1.9,3.2,0.9,4.8-2.7,5c-0.8-2.8-4-2.8-5.4-5
			C277.8,193.4,278.4,192.8,279.1,192.3z"/>
		<path class="st107" d="M286.5,184.7c0.5-1.1,1-2.3,1.5-3.4c0.7,1.8,1.3,3.6,2,5.4C287.2,189.1,287.2,186.3,286.5,184.7z"/>
		<path class="st7" d="M109.4,315.4c1.6,0.5,2.4,1.6,3,3.1c0,0,0,0,0,0c-3.2,1.3-3.7,4-3.5,7c0,0,0,0,0,0c-1.1-1.2-2.1-2.4-3.2-3.6
			C106.9,319.7,108.1,317.5,109.4,315.4z"/>
		<path class="st108" d="M240.9,217c-0.9-1.7-2.5-2-4.1-2.3c1.7-1.4,3.9-2.4,5.6-1C243.7,214.7,242,216.1,240.9,217z"/>
		<path class="st109" d="M461.7,246.4c0-0.5,0-1-0.1-1.5c4,1.7,6,5.6,8.9,8.6c0.7,4.8,4.4,8.8,3.7,14c-1.3-0.6-2.5-1.2-3.8-1.7
			c0,0,0,0,0,0c0.1-3-0.3-5.7-3.5-7c-1.5-2.2-0.6-5.6-3.5-7C462.9,250,462.3,248.2,461.7,246.4z"/>
		<path class="st46" d="M461.7,246.4c0.6,1.8,1.2,3.5,1.8,5.3c-3.5-0.7-6.9-2.4-11.5,1.6c2-5.6,6.4-4.1,8-6.8
			C460.6,246.4,461.2,246.4,461.7,246.4z"/>
		<path class="st24" d="M458.4,237.7c-0.8,3.2,1.4,5.8,1.6,8.7c-2.3-1.2-4.7-2.3-7-3.5C457,243.5,454.6,237.4,458.4,237.7z"/>
		<path class="st53" d="M470.5,285.1c0,0.6,0,1.1,0,1.7c-4.1-0.7-8.6,1.6-12.3-1.7C462.3,286,466.4,283.3,470.5,285.1z"/>
		<path class="st110" d="M452.8,275.2c2.4,0.5,4.8,1.1,7.5,1.7C457.3,279.2,455,277.7,452.8,275.2z"/>
		<path class="st111" d="M467,258.8c3.2,1.3,3.6,4.1,3.5,7C468.3,264,467.3,261.6,467,258.8z"/>
		<path class="st11" d="M477.9,350c-0.1-7.2-0.6-14.5,1.2-21.6C479,335.6,480.8,343,477.9,350z"/>
		<path class="st112" d="M464.3,291.2c-2.7,1.1-4.5,1.3-6.3,0.1C459.8,289.9,461.6,290.2,464.3,291.2z"/>
		<path class="st113" d="M516.2,306.1c0-1.4,0.3-2.8,1.7-3.5c1.8,1.8,3.5,3.5,5.3,5.3c0.6,1.1,1.2,2.3,1.7,3.4
			c0.9,1.9,1.4,3.6-1.8,3.6c-1.7-0.6-3.5-1.2-5.2-1.8C513,311.9,518.5,308.1,516.2,306.1z"/>
		<path class="st46" d="M498.6,314.9c1.2-0.6,2.3-1.2,3.5-1.8c2.4,2.8,4.8,5.6,7.2,8.4C503.3,323.4,501.1,318.9,498.6,314.9z"/>
		<path class="st46" d="M530.2,286.8c0.3,2.4-0.9,5.2,1.8,7c-2.5,2.2-5,4.5-1.2,8.5C522.6,296.8,528.7,291.9,530.2,286.8z"/>
		<path class="st114" d="M525,311.4c-0.6-1.1-1.2-2.3-1.7-3.4c4.1-5.5,5.8,1.2,8.8,1.7c-0.6,1.2-1.2,2.4-1.7,3.6
			C528.5,312.6,526.7,312,525,311.4z"/>
		<path class="st53" d="M530.2,313.2c0.6-1.2,1.2-2.4,1.7-3.6c2,1.4,3.9,2.8,6,4.3C534.7,316.9,532.1,317.2,530.2,313.2z"/>
		<path class="st115" d="M507.4,313.2c2.8,1.3,8.4,0.1,5.5,6.8C509.6,318.8,507.7,316.7,507.4,313.2
			C507.4,313.2,507.4,313.2,507.4,313.2z"/>
		<path class="st24" d="M517.9,313.2c1.7,0.6,3.5,1.2,5.2,1.8c0.8,1.4,1.7,2.9,3.1,5.4C521.7,318.7,519.7,316,517.9,313.2z"/>
		<path class="st116" d="M503.9,309.7c1-2.3,2.7-3.5,5.3-3.5c-1.2,2.2-2,4.5-1.8,7c0,0,0,0,0,0C506.2,312,505.1,310.8,503.9,309.7z"
			/>
		<path class="st46" d="M537.2,292.1c1.8-2.2,4.2-3.2,7-3.5c-0.6,1.2-1.1,2.3-1.7,3.5C540.7,292.1,539,292.1,537.2,292.1z"/>
		<path class="st117" d="M115.9,350c-4.1,2.7-8.2,2.8-12.3,0C107.7,348.4,111.8,348.4,115.9,350z"/>
		<path class="st118" d="M124.7,327.2c-1.2-1-2.5-2-3.8-3c3.6-1.4,6.1,1.3,9.5,1.5C128.5,328.1,126.4,326.8,124.7,327.2L124.7,327.2
			z"/>
		<path class="st44" d="M108.9,325.5c-0.2-3,0.3-5.7,3.5-7C111.1,320.7,113.4,324.8,108.9,325.5z"/>
		<path class="st33" d="M117.6,315c1.8-2.6,4.6-1.5,7-1.8C123.7,319.2,119.9,314.1,117.6,315z"/>
		<path class="st119" d="M124.7,327.2c-2,2.3-4.4,2.1-7.3,1C119.9,326.4,122.4,327.6,124.7,327.2
			C124.7,327.2,124.7,327.2,124.7,327.2z"/>
		<path class="st120" d="M115.9,360.6c0,0.6,0,1.2,0,1.7c-5.3,2.9-10.3-0.4-15.6-1.7C105.5,360.6,110.7,360.6,115.9,360.6z"/>
		<path class="st121" d="M110.7,357.1c3.1-3,6.9-1.5,10.5-1.4c0.1,0,0.4,0.4,0.4,0.7c0,0.3-0.2,0.5-0.3,0.8
			C117.7,357.1,114.2,357.1,110.7,357.1z"/>
		<path class="st49" d="M453,383.4c0,0.3,0,0.6-0.2,0.8c-0.3,0.4-0.7,0.7-1.1,1c-1.1-4-2.8-8-2.3-12.3
			C455.8,374.7,451.7,380,453,383.4z"/>
		<path class="st18" d="M461.7,353.6c1.5,0,2.8-0.3,3.5-1.8c1.3,0.3,2.7,0.7,4,1c-0.9,3.1-3.6,2.3-5.7,2.5c-0.6,0-1.2,0-1.8,0
			C461.7,354.7,461.7,354.1,461.7,353.6z"/>
		<path class="st113" d="M467.3,360.6c3.1,1.2,4.8,2.9,2.8,6.8C468.9,364.6,468.1,362.6,467.3,360.6z"/>
		<path class="st44" d="M38.6,346.5c6,2.3,4.9,7.6,5.3,12.3c-3.5-0.6-7-2.9-10.5,0c-0.6-2.3-1.2-4.7-1.7-7c2.6,0.8,4.5,5,7.3,2.7
			C41.4,352.5,37.8,349.3,38.6,346.5z"/>
		<path class="st116" d="M49.2,372.8c2.8,1.7,0.5,3.5,0,5.2c-1.8-0.2-4.6,0.8-4.5-2.2C44.7,373.6,47.1,373,49.2,372.8z"/>
		<path class="st15" d="M52.7,360.6c1.2,0.6,1.2,1.2,0,1.8c-2.2,0.7-5.7,5.6-5.3-1.7c0.6,0,1.2-0.1,1.8-0.1
			C50.4,360.6,51.6,360.6,52.7,360.6z"/>
		<path class="st122" d="M49.3,360.6c-0.6,0-1.2,0-1.8,0.1c-1.4-0.1-2.8-0.4-3.5-1.8c2.7,0.3,3.4-2.4,5.3-3.5
			C49.2,357.1,49.2,358.8,49.3,360.6z"/>
		<path class="st123" d="M298.2,191.6c0.6,1.3,1.2,2.5,1.9,3.8c0,1.1,0,2.3,0.1,3.4c-2.7,2.3-0.1,6.5-3.2,8.7
			C297,202.2,295.4,196.7,298.2,191.6z"/>
		<path class="st124" d="M105.2,451.9c0,5.8,0.1,11.6,0.1,17.4c-2.9-2.3-3.7-5.4-3.2-9c2.6-2.5,1.2-5.6,1.5-8.5
			C104.2,451.8,104.7,451.9,105.2,451.9z"/>
		<path class="st125" d="M103.6,451.9c-0.3,2.9,1.1,6-1.5,8.5c-0.2-1.6-0.4-3.3-0.7-4.9C101.8,454,100.7,451.7,103.6,451.9z"/>
		<path class="st40" d="M15.8,355.3c-3.6,2.6-5.8,0.3-7-2.6c-0.4-0.8,2.2-0.7,3.5-0.9C13.5,353,14.6,354.1,15.8,355.3z"/>
		<path class="st77" d="M75.5,376.4c0,1.2,0.1,2.4,0.1,3.5c-3.2,5.3-7.9,7.5-14,6.5c3.1-3.2,6.7-5.9,8.7-10.1
			c2.7-1.7,1.2-4.7,2.2-7.3C75,371.2,72.5,374.9,75.5,376.4z"/>
		<path class="st77" d="M54.4,371.1c1.8,0.6,3.5-2.1,5.3,0c-0.7,1.5-1.5,3.1-3.5,2.4C55.4,373.2,52.8,373.5,54.4,371.1z"/>
		<path class="st19" d="M119.4,444.8c-1.8,1.1-1.2,3.2-2,4.5c-2,3.3-2.8,1.3-3.3-1c-1.5-6.9,6.2-10.9,5.3-17.6
			C124,435.5,117.7,440.2,119.4,444.8z"/>
		<path class="st87" d="M100.1,448.3c3.5-4.1,1.2-9.6,3.5-14c0.9,3.9,2.2,7.7,1.8,11.8C105,450.7,102.6,449.5,100.1,448.3z"/>
		<path class="st39" d="M49.3,360.6c0-1.7-0.1-3.5-0.1-5.2c-0.7-2.2-3.1-4.4-0.3-6.8c1,4.1,4.4,7.4,3.9,12
			C51.6,360.6,50.4,360.6,49.3,360.6z"/>
		<path class="st126" d="M101.9,420.3c2.3-1.2,4.7-2.3,7-3.5c1.8,1.2,3.5,2.3,5.3,3.5c-1.8,0.6-3.5,1.2-5.3,1.8
			C106.7,420.8,104.4,420,101.9,420.3z"/>
		<path class="st20" d="M108.9,422.1c1.8-0.6,3.5-1.2,5.3-1.8c0.6,0.6,1.2,1.2,1.7,1.8c1.8,2.4-2,1.9-1.7,3.5c-1.2,0-2.4,0-3.5,0
			c-0.6-0.6-1.2-1.2-1.7-1.8C108.9,423.2,108.9,422.6,108.9,422.1z"/>
		<path class="st127" d="M108.9,423.8c0.6,0.6,1.2,1.2,1.7,1.8c-1.6,0.3-1.9,3.9-3.7,2.3C105.7,426.9,107.4,424.8,108.9,423.8z"/>
		<path class="st128" d="M101.8,423.8c1.1,0,2.8-2,2.9,0.6c0.1,1-1.4,2.1-2.1,3.2C102.4,426.3,102.1,425,101.8,423.8
			C101.9,423.8,101.8,423.8,101.8,423.8z"/>
		<path class="st129" d="M515.3,299.6c-1.3-1.1-2.3-2.3-1.9-4.1c0-0.1,1.1-0.3,1.3-0.1C515.9,296.6,516.7,297.9,515.3,299.6z"/>
		<path class="st39" d="M488.1,371.1c-0.1,2.7-0.2,5.4-0.3,8.1c-2.8-1.2-0.3-5-3.1-6.2c0-2.4,0-4.8-0.1-7.2c0-0.6,0-1.2,0-1.7
			C486.9,365.9,487.8,368.4,488.1,371.1z"/>
		<path class="st71" d="M484.6,364.1c0,0.6,0,1.2,0,1.7c-4.7-0.5-3.1-4.3-3.5-7C484.6,358.9,484.6,361.5,484.6,364.1z"/>
		<path class="st59" d="M135.2,295.5c6.6,0.8-1.5,5.4,1.8,7.1c-1.2,2.1-3.3,1.7-5.3,1.8c-0.6-0.6-1.2-1.2-1.8-1.8
			c-0.7-1.4-2.1-1.6-3.5-1.7C127.7,296.3,133.1,298.6,135.2,295.5z"/>
		<path class="st5" d="M129.9,302.6c0.6,0.6,1.2,1.2,1.8,1.8c-3.1,3.4-6.6,3.7-10.6,1.8c0.6-1.2,1.2-2.4,1.8-3.7
			C125.3,302.5,127.6,302.6,129.9,302.6z"/>
		<path class="st110" d="M461.7,353.6c0,0.6,0,1.2,0,1.7c-2.9-0.2-5.8,0.2-8.5,1.4c-0.7,0.3-2.5,1-1.9-1.2c0.2-0.8,1.1-1.3,1.6-2
			C455.9,353.6,458.8,353.6,461.7,353.6z"/>
		<path class="st130" d="M451.2,364.1c-2.9-0.5-6.3,1.2-8.8-1.8C445.3,362.9,448.7,361.2,451.2,364.1z"/>
		<path class="st18" d="M126.4,429.1c2.8,0.1,5.6,0.3,8.4,0.4c0,1.7,1.1,4.8-2.5,2.7c-1.9-1.1-3.8-1.3-5.8-1.4
			C126.4,430.2,126.4,429.6,126.4,429.1z"/>
		<path class="st131" d="M128.2,439.6c-1.5,4.2-1.4,4.1,1.5,7.7c0.7,0.8,0,2.8-0.1,4.3c-6.3,2.3-6.9-4.3-10.2-6.7
			c1.8-1.4,4.4-1.3,4.7-5.2C124.5,433.8,126.7,437.6,128.2,439.6z"/>
		<path class="st132" d="M129.9,302.6c-2.3,0-4.6-0.1-6.9-0.1c0-1.1,0-2.2,0-3.3c1.1,0.6,2.3,1.1,3.4,1.7
			C127.8,301,129.2,301.2,129.9,302.6z"/>
		<path class="st36" d="M451.1,234.3c0.7-0.7,1.3-1.3,2-2c0.4,7.2-5.1,4.9-8.8,5.3C445.7,234.8,449.6,237.1,451.1,234.3z"/>
	</g>
</g>
<g>
	<path class="st39" d="M141,561.2c-1.9-2-4.1-3-6.8-3c-2.8,0-5.2,1-7,3c-1.9,2-2.8,4.3-2.8,6.9c0,2.6,0.9,4.9,2.8,6.9
		c1.9,2,4.2,3,7,3c2.6,0,4.9-1,6.8-3c1.9-2,2.8-4.3,2.8-6.9C143.8,565.4,142.8,563.1,141,561.2z M117.4,561.2c-2-2-4.3-3-6.9-3
		c-2.8,0-5.2,1-7.1,3c-1.9,2-2.8,4.3-2.8,6.9c0,2.6,0.9,4.9,2.8,6.9c1.9,2,4.2,3,7.1,3c2.6,0,4.9-1,6.9-3c2-2,2.9-4.3,2.9-6.9
		C120.4,565.4,119.4,563.1,117.4,561.2z"/>
	<path class="st39" d="M196.1,563.4c-1.9-2-4.1-3-6.8-3c-2.8,0-5.1,1-7,3c-1.9,2-2.8,4.3-2.8,6.9c0,2.6,0.9,4.9,2.8,6.9
		c1.9,2,4.2,3,7,3c2.6,0,4.9-1,6.8-3c1.9-2,2.8-4.3,2.8-6.9C198.9,567.7,198,565.4,196.1,563.4z M172.6,563.4c-2-2-4.3-3-6.9-3
		c-2.8,0-5.2,1-7,3c-1.9,2-2.8,4.3-2.8,6.9c0,2.6,0.9,4.9,2.8,6.9c1.9,2,4.2,3,7,3c2.6,0,4.9-1,6.9-3c2-2,3-4.3,3-6.9
		C175.6,567.7,174.6,565.4,172.6,563.4z"/>
	<path class="st39" d="M228.6,654.8c-1.2-5.1-2.9-9.8-5.1-14.2c-2.2-4.4-4.7-8.6-7.7-12.5c-3-3.9-6.3-7.8-9.9-11.5
		c-2.8-3-4.8-6.2-5.9-9.7c-1.1-3.5-1.7-6.9-1.7-10.3c0-1.3,0.2-2.6,0.7-3.9c0.5-1.3,1-2.4,1.5-3.4l-1.7-0.8
		c-0.9,1.1-3.3,4.2-7.2,9.3c-3.9,5.1-7.9,10.8-12.1,17.3c-4.2,6.5-8,13-11.4,19.6c-3.4,6.6-5.1,12-5.1,16.3c0,5.3,1.7,9.1,5.1,11.7
		c3.4,2.5,7.8,4.1,13.2,4.7c11.8,0.9,20.5,3.9,25.9,8.9c5.4,5,8.2,10.5,8.2,16.5c0,1.5-0.2,3.2-0.6,5.2c-0.4,2-0.8,3.7-1.4,5.2h-0.3
		c-2.3-11.1-6.7-18.7-13.4-22.9c-6.7-4.2-15.4-6.3-26.3-6.3h-24.8c0-4.3-0.2-8.7-0.7-13.1c-0.5-4.4-1.2-9.1-2.1-13.9h-2.8
		c0.2,2.1,0.3,4.1,0.4,6.1c0.1,2,0.1,4,0.1,6c0,2.5,0,4.9-0.1,7.3c-0.1,2.4-0.2,5-0.4,7.6h-9.6v-87.8h-2c-0.8,1.7-1.7,3.4-2.8,5.2
		c-1.1,1.8-2.6,3.8-4.4,6.2c-1.8,2.4-4,5.1-6.6,8.2c-2.6,3.1-5.8,6.8-9.6,11.1c-4.1,4.9-8.5,10.6-13,17.2
		c-4.5,6.6-8.7,13.8-12.5,21.5c-3.8,7.8-7,16.1-9.4,25.1c-2.5,8.9-3.7,18.1-3.7,27.7c0,5.1,0.9,9.8,2.5,14.2c1.7,4.4,4,8.3,7,11.7
		c3,3.4,6.6,6.1,10.8,8c4.2,2,8.9,3,13.9,3c5.3,0,10.1-1.2,14.7-3.5c4.5-2.4,8.5-5.6,12.1-9.9c3.6-4.2,6.7-9.2,9.3-14.9
		c2.6-5.7,4.7-12,6.2-18.7h23.1c11.6,0,20.5,2.6,26.5,7.7c6,5.2,10,11.5,12.1,19h1.1c2.1-3,4.3-6.5,6.8-10.5c2.4-4,4.7-8.4,6.9-13.1
		c2.2-4.7,4-9.6,5.5-14.6c1.5-5.1,2.3-10,2.3-14.9C230.5,665.4,229.9,659.8,228.6,654.8z M200.6,646.9c-1.3-0.9-3.4-1.8-6.3-2.5
		c-2.9-0.7-5.5-1.3-7.7-1.7c-4.1-0.4-7-1.3-8.7-2.8c-1.7-1.5-2.5-3.4-2.5-5.6c0-1.5,0.8-3.7,2.4-6.7c1.6-3,3.1-5.5,4.4-7.6l0.8,0.6
		c0,3,0.8,5.9,2.4,8.6c1.6,2.7,3.4,5.2,5.5,7.5c1.7,1.7,3.6,3.4,5.6,5.2c2.1,1.8,3.6,3.4,4.5,4.9L200.6,646.9z M137.2,702.6
		c-0.7,1.5-1.4,3-2.1,4.5c-2.8,4.9-6.4,8.4-10.8,10.6c-4.4,2.1-8.3,3.2-11.7,3.2c-5.3,0-9.7-0.8-13.4-2.5c-3.7-1.7-6.7-3.9-9-6.8
		c-2.3-2.8-4.1-6.1-5.2-9.7c-1.1-3.7-1.7-7.5-1.7-11.4c0-8.3,1.1-16.1,3.4-23.5c2.3-7.4,5-14.2,8.3-20.4c3.3-6.2,6.7-11.8,10.1-16.7
		c3.5-5,6.4-9.1,8.9-12.3h1.7v80.2H139C138.4,699.5,137.8,701.1,137.2,702.6z"/>
	<path class="st39" d="M295.1,594.1c-2-2-4.4-2.9-7.2-2.9c-2.8,0-5.2,1-7.2,2.9c-2,2-2.9,4.4-2.9,7.2c0,2.8,1,5.2,2.9,7.2
		c2,2,4.4,2.9,7.2,2.9c2.8,0,5.2-1,7.2-2.9c2-2,3-4.4,3-7.2C298,598.4,297,596.1,295.1,594.1z"/>
	<path class="st39" d="M308.7,675.9c0,2.8-0.7,6-2.1,9.6c-1.4,3.6-3.1,7.2-5.1,10.8c-2,3.7-4.1,7.2-6.3,10.7
		c-2.3,3.5-4.2,6.4-5.9,8.9h-1.4c-1.9-5.8-4.4-10.3-7.6-13.4c-3.2-3.1-7.4-4.6-12.7-4.6h0c-3.9,0-6.8,1-8.6,3.1
		c-1.8,2.1-2.9,4.7-3.2,7.9h-1.7c-2.1-1.9-3.9-3.7-5.6-5.6c-1.7-1.9-3.1-3.9-4.2-6.2c-1.1-2.3-2-4.9-2.7-7.9c-0.7-3-1-6.6-1-10.7
		V557.9l16.6-16.6h1.4v123.9c0,5.6,3,8.4,9,8.4h0c4.1,0,8.7,1.4,13.6,4.2c5,2.8,8.8,8.3,11.4,16.3h0.3c1.3-2.4,2-4.9,2-7.3
		c0-2.6-0.7-5.2-2.3-7.6c-1.5-2.4-3.2-4.9-5.1-7.3c-3.2-3.6-6-6.7-8.5-9.6c-2.4-2.8-3.7-6.1-3.7-9.9c0-3.2,1.3-6.7,3.9-10.4
		c2.6-3.7,5-7,7-9.9c0.9-1.3,1.8-2.6,2.7-3.9c0.8-1.3,1.4-2.5,1.8-3.7l1.7,0.8c-0.2,0.4-0.4,1-0.7,2c-0.3,0.9-0.4,1.9-0.4,2.8
		c0,1.5,0.2,3.1,0.7,4.9c0.5,1.8,1.5,3.9,3,6.3c3.9,6,7.2,11.6,9.7,16.7C307.5,663.4,308.7,669.3,308.7,675.9z"/>
	<path class="st39" d="M391.2,561.9v121.6c0,6.2-0.9,12.4-2.8,18.6c-1.9,6.2-4.8,11.8-8.7,16.8c-3.9,5-9,9-15.1,12
		c-6.1,3-13.5,4.5-22.1,4.5c-3.9,0-8.3-0.4-13.1-1.3c-4.8-0.8-9.1-1.9-12.8-3.2v-5.3c1.3,0.4,3.1,0.8,5.3,1.4c2.3,0.6,5,0.8,8.2,0.8
		c6,0,10.9-1.5,14.6-4.6c3.8-3.1,5.6-8,5.6-14.8c0-4.3-1.5-9.2-4.4-14.6c-2.9-5.4-6.3-11.3-10.3-17.5c-3.8-5.6-7.6-11.4-11.5-17.3
		c-3.9-5.9-7.3-11.7-10.1-17.3c-2.3-4.7-4.3-10-6.2-15.9c-1.9-5.9-2.8-11.2-2.8-15.9c0-11.3,1.9-20.6,5.8-28
		c3.8-7.4,8.6-13.4,14.4-17.9c5.7-4.5,12.1-7.7,19-9.6c6.9-1.9,13.5-2.8,19.7-2.8c4.9,0,9.3,0.4,13.2,1.3c3.9,0.8,6.9,1.7,9,2.7
		l-0.8,2.2c-1.5-0.6-3.8-1.2-6.9-1.8c-3.1-0.7-6-1-8.6-1c-5.8,0-11.6,0.8-17.3,2.5c-5.7,1.7-10.8,4.3-15.3,7.7
		c-4.5,3.5-8.2,7.7-11,12.8c-2.8,5.1-4.2,11-4.2,17.7c0,4.5,0.7,9.3,2.3,14.5c1.5,5.2,4,10.7,7.6,16.8c3.2,5.6,6.8,11.2,11,16.6
		c4.1,5.4,7.8,10.8,11,16c3.8,6,6.8,11.7,9,17.2c2.3,5.4,3.4,10.8,3.4,16c0,5.4-1,11-3.1,16.6c-2.1,5.6-5.9,10.3-11.5,14.1l0.3,0.8
		c1.9-0.6,4.1-1.5,6.6-2.7c2.5-1.2,4.9-3.3,7-6.3c2.2-3,4-6.9,5.5-11.8c1.5-4.9,2.2-11.3,2.2-19.1V578.2l16.6-16.3H391.2z
		 M351.8,542.7l-14.9,3.4c-6.4,1.3-10.8,2.6-13.4,3.8c-2.5,1.2-4.6,2.4-6.1,3.5l-1.7-1.4c1.3-2.1,2.7-3.9,4.1-5.6
		c1.4-1.7,2.9-3,4.4-3.9v-0.6c-0.9-0.4-2.2-1.1-3.7-2.1c-1.5-1-2.7-2.2-3.7-3.5c-1.1-0.7-1.7-1.9-1.7-3.4c0-0.7,0.2-1.6,0.7-2.5
		c0.5-0.9,1-1.9,1.5-2.8l7.9-14.6h5.6c3,3.9,6.9,5.9,11.8,5.9c2.3,0,4.1-0.5,5.5-1.4c1.4-0.9,2.6-2.1,3.5-3.4l1.4,0.6
		c-0.9,3.2-2.4,6.2-4.4,9.1c-2,2.9-4.8,4.4-8.6,4.4c-6.2,0-10.7-1.9-13.5-5.6h-0.6l-3.7,6.2c1.5,2.1,3.5,3.8,5.9,5.1
		c2.4,1.3,5.3,2,8.7,2c3,0,5.9-0.3,8.6-1c2.7-0.7,5.9-1.7,9.4-3.2l0.6,0.8L351.8,542.7z"/>
	<path class="st39" d="M471.2,693.6c5.6,0,11.6-0.7,18-2.1s11.9-2.9,16.6-4.4l0.6,1.4c-11.5,6.2-22.1,10.7-32.1,13.5
		c-10,2.8-18.2,4.2-24.8,4.2c-8.3,0-15.2-1.4-20.8-4.1c-5.6-2.7-10.2-6.3-13.7-10.8c-3.5-4.5-6-9.8-7.5-15.8
		c-1.5-6-2.3-12.3-2.3-18.9v-98.8l16.6-16.6h1.4v91.5c0,12.2,1.4,22.2,4.1,30.1c2.7,7.9,6.3,14.1,10.8,18.6
		c4.5,4.5,9.6,7.6,15.3,9.4C459.3,692.7,465.1,693.6,471.2,693.6z"/>
</g>
</svg>
