<?xml version="1.0" encoding="utf-8"?>
<!-- Generator: Adobe Illustrator 24.2.1, SVG Export Plug-In . SVG Version: 6.00 Build 0)  -->
<svg version="1.1" id="Layer_1" xmlns="http://www.w3.org/2000/svg" xmlns:xlink="http://www.w3.org/1999/xlink" x="0px" y="0px"
	 viewBox="0 0 1280 1024" style="enable-background:new 0 0 1280 1024;" xml:space="preserve">
<style type="text/css">
	.st0{fill:#DDC3AE;}
	.st1{fill:#AC674D;}
	.st2{fill:#A55A3D;}
	.st3{fill:#A65C40;}
	.st4{fill:#A65B3E;}
	.st5{fill:#7B3C24;}
	.st6{fill:#A55A3E;}
	.st7{fill:#7C3D25;}
	.st8{fill:#A65B3F;}
	.st9{fill:#AA6449;}
	.st10{fill:#7B3B24;}
	.st11{fill:#8A4F37;}
	.st12{fill:#7C3C25;}
	.st13{fill:#A65C3F;}
	.st14{fill:#A75E42;}
	.st15{fill:#7E4028;}
	.st16{fill:#7E3F28;}
	.st17{fill:#A75D40;}
	.st18{fill:#7D3E26;}
	.st19{fill:#80422A;}
	.st20{fill:#8C5239;}
	.st21{fill:#8B5138;}
	.st22{fill:#A96246;}
	.st23{fill:#80422B;}
	.st24{fill:#894E35;}
	.st25{fill:#A4593C;}
	.st26{fill:#AB654B;}
	.st27{fill:#7F4129;}
	.st28{fill:#A96146;}
	.st29{fill:#AB654A;}
	.st30{fill:#80432C;}
	.st31{fill:#874C35;}
	.st32{fill:#7F422B;}
	.st33{fill:#90573E;}
	.st34{fill:#8C523A;}
	.st35{fill:#83472F;}
	.st36{fill:#935B42;}
	.st37{fill:#844830;}
	.st38{fill:#884C34;}
	.st39{fill:#7B3B23;}
	.st40{fill:#8E543B;}
	.st41{fill:#F8F3F1;}
	.st42{fill:#A66045;}
	.st43{fill:#8F5740;}
	.st44{fill:#884D35;}
	.st45{fill:#B3745B;}
	.st46{fill:#8A5037;}
	.st47{fill:#8E553D;}
	.st48{fill:#915A43;}
	.st49{fill:#7C3C24;}
	.st50{fill:#915940;}
	.st51{fill:#8D5239;}
	.st52{fill:#83462E;}
	.st53{fill:#83462D;}
	.st54{fill:#8A5038;}
	.st55{fill:#A3593D;}
	.st56{fill:#7F422A;}
	.st57{fill:#8C543D;}
	.st58{fill:#B06E54;}
	.st59{fill:#81442C;}
	.st60{fill:#8C533C;}
	.st61{fill:#854830;}
	.st62{fill:#CA9E8E;}
	.st63{fill:#B06E55;}
	.st64{fill:#905840;}
	.st65{fill:#8E563E;}
	.st66{fill:#B77C65;}
	.st67{fill:#8B5139;}
	.st68{fill:#B17159;}
	.st69{fill:#F8F3EF;}
	.st70{fill:#B5775F;}
	.st71{fill:#8A4E35;}
	.st72{fill:#C2907D;}
	.st73{fill:#F9F4F2;}
	.st74{fill:#CDA393;}
	.st75{fill:#D5B1A4;}
	.st76{fill:#BC8570;}
	.st77{fill:#80432B;}
	.st78{fill:#F1E6E2;}
	.st79{fill:#B97F69;}
	.st80{fill:#AB664B;}
	.st81{fill:#F1E5E1;}
	.st82{fill:#C3927F;}
	.st83{fill:#CFA896;}
	.st84{fill:#925B44;}
	.st85{fill:#925D46;}
	.st86{fill:#C49380;}
	.st87{fill:#7E3F27;}
	.st88{fill:#82452C;}
	.st89{fill:#E8D6CF;}
	.st90{fill:#B2725A;}
	.st91{fill:#D2AD9F;}
	.st92{fill:#A55B3E;}
	.st93{fill:#CEA68F;}
	.st94{fill:#BD876E;}
	.st95{fill:#B27358;}
	.st96{fill:#B27257;}
	.st97{fill:#CDA58E;}
	.st98{fill:#BD876D;}
	.st99{fill:#AD694D;}
	.st100{fill:#B17155;}
	.st101{fill:#B06E53;}
	.st102{fill:#AB6549;}
	.st103{fill:#B27259;}
	.st104{fill:#B58371;}
	.st105{fill:#CDA68E;}
	.st106{fill:#D3B19B;}
	.st107{fill:#B67A5F;}
	.st108{fill:#CFA790;}
	.st109{fill:#85452C;}
	.st110{fill:#894F36;}
	.st111{fill:#925B41;}
	.st112{fill:#8A4F36;}
	.st113{fill:#804229;}
	.st114{fill:#8C5138;}
	.st115{fill:#82442C;}
	.st116{fill:#8D533A;}
	.st117{fill:#83472E;}
	.st118{fill:#84482F;}
	.st119{fill:#85482F;}
	.st120{fill:#90563E;}
	.st121{fill:#884D34;}
	.st122{fill:#8E553C;}
	.st123{fill:#DDC2B7;}
	.st124{fill:#C19280;}
	.st125{fill:#F7F4F3;}
	.st126{fill:#7D3F27;}
	.st127{fill:#7F4027;}
	.st128{fill:#804129;}
	.st129{fill:#7F4128;}
	.st130{fill:#95604A;}
	.st131{fill:#844932;}
	.st132{fill:#955F48;}
</style>
<g>
	<g>
		<path class="st0" d="M738.2,419.5c2.7,7,9.3,11.1,13,17.4c5.2,8.9,4.2,14.6-4,20.9c-9.1-7.3-17.9-14.9-28-20.8
			c-34.8-20.4-75.5-29.5-106.9-56.4c6.7,10.1,16.2,17,26.2,23.3c15.9,10.1,33.3,16.8,50.2,24.7c18,8.4,36.2,16.4,51.3,29.7
			c-19.8-3.5-24.7,2-19,21.4c0.7,2.2,1.3,4.5,1.4,6.8c1,16.8-16.6,29.3-35.6,25.8c-8.7-1.6-16.2-6.5-24.7-8.4
			c-1.1-1-2.3-1.8-3.2-2.9c-27.5-32.5-49.8-67.9-61.4-109.3c-0.6-2.9-1.1-5.8-1.7-8.7c-0.7-3-1.4-6.1-2.5-10.8
			c-1,5.5-1.6,9.1,0.7,12.6c0.5,3.6-0.7,7.4,1.9,10.6c2.2,19.7,10.1,37.5,19.4,54.6c12.5,22.9,29.3,42.5,47.6,60.8
			c-8.3,11.6-15,13.8-25.8,8.5c-7.6-3.7-12-9.9-14.2-17.9c-1.2-4.5-2.5-9-4.2-13.2c-1.6-3.8-4.8-5.6-9.1-5.5
			c-4.2,0.1-6.2,2.6-7.8,5.9c-3.5,7.3-2.1,14.8-1.4,22.3c0.8,9.1,3.3,18.6-4.1,26.5c-0.7-1.9-1.6-3.8-2.1-5.7
			c-9.7-37.3-12.5-75.3-12.1-113.6c2.8-6.4,1.1-13.1,1.3-19.6c0-3,0.9-6.1-1-10.3c-0.3,3.7-0.5,6.1-0.7,8.6c-2.7,3.4-1.4,7.3-1.4,11
			c-4.6,45.6-1.6,90.6,10.2,135c-6.5-2.7-9.9-7.5-11.1-14.6c-0.6-3.6-2.3-7.3-4.3-10.4c-2-3.1-4.9-6.5-9.4-3.9
			c-4.1,2.5-11.2,1.3-10.5,10c0.5,6.8,1.5,14-1.2,20.7c-0.1-2.9-0.4-5.8-0.4-8.7c1.5-44.3,3.5-88.5,14.2-131.7
			c2.3-3.1,2.5-6.6,2.8-11.7c-3.3,2.9-4.5,5.2-4.5,8.1c-7.5,21.3-11.6,43.2-14.7,65.5c-1.7,12.2,0.3,24.5-2.8,36.4
			c-0.1-3.2-0.4-6.4-0.3-9.6c0.1-3.8-1.3-5.7-5.3-6.5c-12.5-2.7-15.2-7.1-16-19.9c-0.7-12.4,2.7-24.2,3.8-36.3
			c1.9-6.5,5.3-12.2,9.5-17.4c7.4-9.3,14.7-18.7,22.1-28.1c1.8-2.3,3.5-4.7,5.3-7c3.7-0.1,5.7-2.5,6.9-5.7c0.6-1,1.2-2,1.8-3
			c8.6-1.6,15.1-6.2,18.4-14.3c2.9-7.1,7.9-11.2,15-13.2c5.3-1.5,10.6-3,15.9-4.5c7,0.1,14,0.2,21,0.3c0,0.6-0.1,1.2-0.1,1.8
			c-9.5,6.7-9.7,17.8-0.3,22.6c2.2,4.6,6.7,6.6,10.7,9.2c-1.2,0.6-2.4,1.1-3.5,1.7c-6.4,0.1-11.7-2.9-17.1-5.7
			c-2.9-2.3-5.8-4.7-8.7-7c0.9,4.6,3.4,7.2,6.8,8.8c16.4,12.5,35.1,11.7,54.1,10c14.7-1.4,29.4-4.9,44.3-1.3
			c-1.2,3.3,2.2,3.3,3.5,4.7c5.9,6.3,6.9,13.1,2.9,20.5c-1.5,2.8-3.5,5.3-3.4,8.7c-38.8-11.2-78.7-19-113.9-40.3
			c-2.2-2.3-4.2-4.9-8.4-5.2c2.3,3.8,4.7,6,8.1,7.1c2.6,3.7,6.7,5.6,10.3,7.9c17.1,10.9,36,17.5,55.3,23.4
			C704.5,409,722,412.1,738.2,419.5z M599,373.8c0.7,2.8,1.7,5.4,3.8,7.5c15.9,34.4,45.5,55.2,74.8,76.2c-8-9.2-16.8-17.7-25.8-25.9
			c-16.8-15.4-32.7-31.6-45.5-50.5c1.9-2.7,1.2-5.7-0.3-7.9C603.8,369.5,600.9,367.9,599,373.8z M584.6,374.1
			c0.1,3.5-3.1,6.8-1.5,11.3C586.7,381.7,585.3,377.9,584.6,374.1z"/>
		<path class="st0" d="M822.7,565.3c-0.2,19.5-0.8,39.1-0.5,58.6c0.1,7.5-2.4,9.3-9.5,9.2c-49.9-0.3-99.9,0.2-149.8-0.4
			c-12.2-0.1-20.3,3.3-24,17.1c-3.8-14.5-12.6-17.2-25-17.1c-49.4,0.6-98.7,0.3-148.1,0.1c-3.3,0-7.8,2.3-9.8-2.9
			c1.9,0.1,3.8,0.5,4.9-1.7c5.2,0.2,10.5,0.6,15.7,0.7c45.9,0.1,91.8-0.4,137.8,0.3c12.6,0.2,20.9-3.2,24.3-16.4
			c6.2,14.6,8.5,16.1,23.3,16.1c48.8,0,97.7-0.1,146.5,0.2c7.2,0,9.5-1.7,9.4-9.1c-0.4-31.9-0.1-63.8-0.3-95.6
			c0-2.9,1.6-6.6-2.2-8.7c0.8-1.3,2.1-1.4,3.5-1.5c0.6,0.1,1.2,0.1,1.9,0.2c0.6,12.2-1.9,24.5,1.4,36.5c-0.8,3-1.5,6-2.3,8.9
			C819.1,562.6,819,564.9,822.7,565.3z"/>
		<path class="st0" d="M589.4,278.8c0.2-0.2,0.5-0.3,0.6-0.6c11.8-23.1,15.6-24.6,39.3-15.1c-0.5,17,0.9,33.6,9.2,48.9
			c0.7,1.6,0.6,4.4,3.6,2c0.9,0.6,1.8,1.2,2.7,1.7c0.2,5.4,0.2,10.8,0.7,16.2c0.4,5.1-2.4,1.9-4.1,1.8c-2.8-0.9-5.7-1.7-8.5-2.6
			c-2.3-2.8-6.5,0.1-8.7-3c3.4-0.6,6.8-1.3,10.3-1.9c3.6-0.2,4.6-1.8,2.7-5c-13.4-17.2-23.3-36-26.2-58c-4,22.6,3.8,41,20,56.3
			c-0.6,0.6-1.3,1.2-1.9,1.8C610.9,311.8,598.5,296.9,589.4,278.8z"/>
		<path class="st0" d="M596.3,537.2c1.8,10.7,5.5,20.8,10.3,30.4c2.8,5.6,7,10.3,14.2,10c7.1-0.3,9.4-6.2,12-11.3
			c1.2-2.3,1.5-5,2.2-7.5c3.6-14.1,14.3-20.9,28.9-18.5c6.3,1,12.7,1.9,19,2.9c11.2,1.7,19.7-1.9,26-11.8c3.1-4.9,5-11.3,11.6-13.4
			c-3.7,8.9-8.7,17.1-15,24.2c-5.2,5.9-12.7,6.8-20.2,6.1c-8.1-0.7-16.2-2.1-24.4-2.5c-12.2-0.6-17,3.2-19.9,15
			c-1.1,4.3-2.3,8.4-4.6,12.2c-8.9,14.8-24.2,15.1-33.6,0.4c-6.1-9.5-8.3-20.5-11.9-30.9c-11.8-44.4-14.8-89.4-10.2-135
			c2.9,3.1,0.6,7,1.7,10.4c-0.5,38.4,2.3,76.4,12.1,113.6C594.8,533.5,595.6,535.3,596.3,537.2z"/>
		<path class="st0" d="M497.9,210.9c-18.6,25.4-31.8,53-36.1,84.4c-3.6,25.9-2.1,52-1.9,78c0.1,9,8.7,11.6,15.7,15.2
			c-13.8,5.6-16.1,8.7-15.9,23.1c0.2,10.2-1.2,20.4,0.8,30.5c0.3,0.2,0.6,0.4,0.8,0.6c-1.2,2.2-2.5,4.4-3.7,6.5
			c-0.6,0.6-1.1,1.2-1.7,1.8c0-13.1-0.7-26.3,0.2-39.4c0.8-11.7-3.5-19.1-17.4-23.6c17-3.7,17.5-14.6,17.3-26.8
			c-0.3-27.1-1.9-54.3,4.8-81c6.6-26.3,17.4-50.6,35.1-71.4C496.6,209.5,497.3,210.2,497.9,210.9z"/>
		<path class="st0" d="M632.9,331.3c2.8,0.9,5.7,1.7,8.6,2.6c-4.7,3.4-10.8-0.8-15.4,2.7c-5.3,1.5-10.6,3-15.9,4.5
			c-7.1,2-12.1,6.1-15,13.2c-3.3,8-9.8,12.7-18.4,14.3c-0.7-0.5-1.5-1-2-1.6c-0.6-0.7-0.7-1.6,0.7-1.7c9.6-1,12.4-8.5,15.3-15.9
			c0.8-1.7,1.5-3.3,2.3-5c1.1-0.9,2.8-2.2,1.4-3.3c-1.7-1.3-3.9-0.4-5.6,1c-15.5,1.5-28.7-4.9-41.7-12.1c-0.1-1.2-0.1-2.3-0.2-3.5
			c2.3,0.3,4.7,0.6,7,0.9c17.7,7.5,35.4,17.3,54.1,2.5c1.9-1.2,3.9-2.4,5.8-3.6c3.1-0.7,6.1-1.4,10.5-2.4
			c-15.8-7.7-26.7-18.9-34.8-33c-1.4-4.4-2.8-8.8-4.3-13.3c0.6-1.3,1.2-2.5,1.8-3.8c0.8,1.6,1.6,3.3,2.4,4.9
			c9.1,18,21.6,32.9,39.7,42.6c1.4,2.1,4.6,2.2,5.4,5c-3.4,0.6-6.8,1.3-10.3,1.9c-2.8,0.1-5.2,1.1-7.8,3
			C622.4,331.3,627.7,331.3,632.9,331.3z"/>
		<path class="st0" d="M644.8,315.9c-0.9-0.6-1.8-1.2-2.7-1.7c-0.7-1.8-1.4-3.6-2-5.4c-3.4-19.1-5.8-38.3-5.3-57.8c0.5,0,1,0,1.4,0
			c0.1,2,0.2,4,0.2,6c0,3.4,0.6,4.7,4.5,2.9c16.4-7.8,21.1-5,23.8,13.6c0.1,0.7,0.9,1.4,1.4,2C658.2,288.5,648.1,300.4,644.8,315.9z
			"/>
		<path class="st0" d="M643.3,223.2c-15-0.8-29.1,2.6-41.8,10.3c-22.4,13.6-44.7,27.3-66.4,42c-18,12.1-21.4,27.3-12.8,47.2
			c3.2,8.1,9.5,13.7,15.6,19.5c-0.6,0.6-1.3,1.2-1.9,1.8c-29.6-17.9-31.8-54.8-3.7-74.2c19.9-13.7,40.7-25.9,61.5-38.3
			c15.2-9.1,31.8-12.6,49.5-10.3C643.4,222,643.4,222.6,643.3,223.2z"/>
		<path class="st0" d="M608,329.9c-18.8,14.8-36.4,5.1-54.1-2.5c-0.4-3.2-2.6-4.9-5.2-6.2c-2.4-4-6.7-6.6-8.2-11.2
			c-2.5-7.6,0.2-11.3,8-10c2.5,0.4,5.1-2.1,7.3,0.4c10,17.4,26.2,24.7,45.1,27.6C603.3,328.4,606.2,327.1,608,329.9z"/>
		<path class="st0" d="M738.2,419.5c-16.2-7.3-33.7-10.5-50.6-15.6c-19.3-5.9-38.2-12.5-55.3-23.4c-3.7-2.3-7.7-4.2-10.3-7.9
			c0.1-0.6,0.2-1.3,0.3-1.9c35.2,21.3,75.1,29.1,113.9,40.3c11.9,6.1,24.4,10.7,34.5,20.1c12.4,11.5,17,25.2,14.2,42.1
			C783.9,442.4,764.7,427.7,738.2,419.5z"/>
		<path class="st0" d="M793,382.6c-1.7-5.8-4.6-11.3-3.8-17.6c3-2.3,4.7,0.8,7,1.8c2.4,2.4,5.7,2.7,8.8,3.5c2.3,1.2,4.7,2.3,7,3.5
			c0,0,0,0,0,0c-1.5,2.8-5.9,1.2-8,6.8c4.6-3.9,8-2.2,11.5-1.6c2.9,1.5,2,4.9,3.5,7c0.2,2.8,1.2,5.2,3.5,7l0,0
			c0.9,6.4,4.1,11.9,7.1,17.5c-1.8,2.7-4.6,1.5-7,1.8c-4.1-1.8-8.2,0.9-12.3,0c-4.2,1.2-6.8-2.2-10.1-3.5
			c-1.4-5.7-2.8-11.4-4.2-17.2c2.5-4.1,8.6-0.3,10.9-4.9C802.2,385.4,797.6,384,793,382.6z M804.7,402.5c2.2,2.5,4.5,4,7.5,1.7
			C809.5,403.6,807.1,403.1,804.7,402.5z"/>
		<path class="st0" d="M657.3,370.5c-3.9-2.6-8.4-4.6-10.7-9.2c-0.7-5.2-7.1-10.6,0.3-15.6c3,15.8,21.3,28.8,37.7,27.2
			c14.8-1.4,29.4-4.9,44.4-2.7c10,1.5,19.6,3.9,27.6,10c6.4,4.8,12.2,10.5,7.8,19.9c-0.6-0.6-1.2-1.3-1.7-1.9
			c-0.3-11-8.7-14.7-17-18.2c-3.9-1.6-8.3-2-12.5-2.9c-14.9-3.6-29.6-0.1-44.3,1.3c-19,1.7-37.7,2.5-54.1-10
			c0.6-0.6,1.2-1.2,1.9-1.8c5.4,2.8,10.7,5.8,17.1,5.7c2.9,2,5.9,2.1,10,0.6C660.9,371.9,659.1,371.2,657.3,370.5z"/>
		<path class="st0" d="M548.3,540.6c0.2-12.8,0.4-25.6,0.6-38.4c3.1-12,1.1-24.3,2.8-36.4c3-22.3,7.2-44.2,14.7-65.5
			c0.6,1.2,1.1,2.3,1.7,3.5c-10.7,43.3-12.7,87.5-14.2,131.7c-0.1,2.9,0.2,5.8,0.4,8.7c-0.1,6.1-0.2,12.1,0.8,18.1
			c1.6,9,6.4,15.2,15,18.4c-0.7,0.5-1.4,1.1-2.1,1.6c-11.2-2-15.7-10.3-17.5-20.1C549.1,555.1,549,547.8,548.3,540.6z"/>
		<path class="st0" d="M800.1,408.9c3.3,1.3,5.9,4.7,10.1,3.5c3.7,3.4,8.2,1.1,12.3,1.7c6.2-1.2,9.5,2.5,9.7,7.8
			c0.2,5.5,2.3,10.2,4.1,15.1c0.4,4.8,0.8,9.5,1.4,15.6c2.9-4.2,5-7.3,7.2-10.5c0.7,0.1,1.3,0.1,2,0.2c-0.8,3.4,3.7,4,3.6,7.1
			c-3.9-0.5-5.5,1.8-6.8,5c-2.9,7.1-6,14.2-9,21.3c-1.7,1.2-2.5,3.8-5.2,3.4c0.2-0.6,0.3-1.2,0.5-1.7c2.9-7.1,1.1-14.4,1.2-21.6
			c0.6-7.4-0.2-14.1-8.6-17c-1.2-2-3.3-2.6-5.3-3.4c-4.6-1.5-9-3.3-10.7-8.5c4.2-4.7,10.2,1.1,16.6-3.5c-8.1,0-14.2-0.9-19.7-3.9
			C801.2,416.2,800.6,412.6,800.1,408.9z M816.2,418.6c-2.7-1-4.5-1.3-6.3,0.1C811.7,419.8,813.5,419.7,816.2,418.6z"/>
		<path class="st0" d="M531.1,429.9c-15.7,21.4-27.1,44.9-29,71.6c-0.9,13.8,8.1,20.8,22.1,21.6c4.6,0.3,9.6-0.1,12,5.2
			c-3.9-1.5-7.9-2.6-12-1.9c-17.5,2.8-30.1-14.2-28-31.8c1.4-12,5.6-23.3,10.4-34.2c11.9-27,27.7-51.3,48.9-72c2-1.9,3.3-5.1,7.1-4
			c-7.4,9.4-14.7,18.8-22.1,28.1C536.4,417.7,533,423.4,531.1,429.9z"/>
		<path class="st0" d="M538,342.3c-6.1-5.8-12.4-11.4-15.6-19.5c6.2-2.6,10.8,1.4,15.9,3.6c2.9,1.2,5.8,2.3,8.7,3.5
			c13,7.2,26.2,13.7,41.7,12.1c1.6,0.3,3.2,0.6,4.1,2.3c-0.8,1.7-1.5,3.3-2.3,5c-9.8,1.9-19.6,4.5-29.7,3.3c-0.9-1.3-2.3-2-3.6-1.3
			c-1.7,1,0.6,2.4,0.1,3.6c-3.5-1.5-6.6-3.9-10.7-4.1C546.7,345.2,541,345.1,538,342.3z"/>
		<path class="st0" d="M757.6,475.6c-5.7-6-10.7-12.7-17.6-17.5c-15.1-13.3-33.3-21.3-51.3-29.7c-16.9-7.9-34.4-14.6-50.2-24.7
			c-10-6.3-19.4-13.2-26.2-23.3c31.4,27,72.2,36,106.9,56.4c10.1,6,18.9,13.5,28,20.8c4.1,5.3,9.2,9.8,12.3,15.8
			C758.9,474.3,758.2,475,757.6,475.6z"/>
		<path class="st0" d="M911.9,427.9c-7.9,7-14.2,16-24.6,19.8c-3.3,1.2-6.6,2-10.1,1.8c-5.3-0.2-10.6-0.3-15.9-0.5
			c-2.4-2.8-4.8-5.6-7.2-8.4c0-0.6,0-1.2,0.1-1.8c0.6-0.6,1.2-1.2,1.7-1.8c1.2,1.2,2.3,2.3,3.5,3.5c0.3,3.6,2.2,5.6,5.4,6.8
			c3-6.6-2.7-5.4-5.5-6.8c-0.3-2.6,0.6-4.8,1.8-7c0.6-0.6,1.2-1.2,1.8-1.7c1.8,0.6,3.5,1.2,5.3,1.7c2.3,1.9-3.2,5.8,1.8,7
			c1.8,2.9,3.8,5.5,8.3,7.1c-1.5-2.5-2.3-3.9-3.1-5.4c3.1,0.1,2.7-1.6,1.8-3.6c1.8,0.6,3.5,1.2,5.3,1.8c1.9,3.9,4.5,3.6,7.8,0.8
			c-2.1-1.5-4.1-2.9-6-4.3c-2.9-0.5-4.6-7.3-8.8-1.7c-1.8-1.8-3.5-3.5-5.3-5.3c0-4.2,5.5-0.1,5.1-2.9c-0.9-6.2,4.4-10.7,3.5-16.7
			c0.8-1.7,2.2-1.5,3.7-1.4c0,1.7,0,3.5,0,5.2c-1.5,5-7.6,9.9,0.6,15.5c-3.8-4-1.3-6.2,1.2-8.5c1.9,0,4,0.3,5.2-1.8
			c1.8,0,3.5,0,5.3,0c2.6,3.9,5.7,6.2,10.5,3.6C905,427.9,910.2,425.4,911.9,427.9z"/>
		<path class="st0" d="M777,203.3c23.3,25.5,36.5,55.9,42.1,89.7c4.2,24.9,2.8,50.1,2.9,75.2c0,4.4,0,8.8,2.5,12.7
			c-0.7,0-1.3,0-2,0.1c-2.8-3-4.8-6.8-8.9-8.6c0.1-0.7,0.1-1.4,0.2-2.1c3.6,1,3.9-1.3,3.9-3.8c0.2-39,2.2-78.1-14.5-115.1
			c-7.5-16.6-17.3-31.6-28.2-45.9C775.7,204.6,776.3,203.9,777,203.3z"/>
		<path class="st0" d="M489.4,440.6c-2,7-4,14-6,20.9c-2.3,0-4.5,0-7.4,0c2,2.6,5.2,1.3,6.2,3.9c-0.2,1-0.3,2.1-0.5,3.1
			c-2.7,2-6.6,1.5-9.3,4.8c1.7,0.2,3,0.4,4.3,0.6c-3,1-4.8,5.1-8.8,3.4c-4.1-1.7-8.2-1.7-12.3,0c-1.2,0.6-2.4,1.2-3.5,1.8
			c0.6-3.6,1.2-7.1,1.8-10.7c1.3-1.1,2.4-2.7,3.9-3.1c8-2.3-2.6-2.3-0.4-3.8c8.6,0.1,3.8-5.3,3.5-8.8c0,0,0,0,0,0
			c4.5-0.7,2.2-4.8,3.5-7l0,0c1.2-0.6,2.3-1.2,3.5-1.8c0.6-0.6,1.2-1.1,1.8-1.7c2.3-0.9,6.1,4.3,7-1.8l0,0
			C480.9,443.8,485.1,441.1,489.4,440.6z M476.6,454.6c1.7-0.4,3.8,0.9,5.8-1.5c-3.5-0.3-5.9-3-9.5-1.5
			C474.2,452.6,475.4,453.6,476.6,454.6c-2.3,0.4-4.8-0.8-7.3,1C472.3,456.7,474.6,456.9,476.6,454.6z"/>
		<path class="st0" d="M446.7,544.1c-3.5-9.2-7.1-18.4-10.6-27.7c1.2-1.9,2.3-0.8,3.5,0c0.9,0.7,2,1.5,3,0.3
			c1.2-1.4-0.1-2.6-0.8-3.8c1.8-0.8,1.5-2.6,1.9-4c2.2-2.1,0.9-5.1,1.7-7.4c1.9-5.3,1-11.8,6.7-15.4c3.6-0.6,7.1-1.2,10.7-1.7
			c3.5,0,7,0,10.5,0c-1.8,1.2-3.5,2.3-5.3,3.5c-5.2,0-10.4,0-15.6,0c5.2,1.3,10.2,4.6,15.6,1.7c2.5,0.3,4.7-0.4,6.8-1.7
			c1,6.1-3.5,8.5-7.6,10.9c-2.6,1.6-5.9,2.2-7.8,4.9c-1.5,0-2.9,0.1-3.7,1.6c-4.2,1.8-6,4.7-5.7,9.6c0.6,9.6,0.7,19.3,1,28.9
			C449.5,544,448.1,544,446.7,544.1z"/>
		<path class="st0" d="M829.4,479.1c2.7,0.4,3.5-2.3,5.2-3.4c-0.8,3.1,1.2,4.4,3.7,5.3c-1.5,2.7-5.5,0.6-7,3.5
			c-5.4-1.8-3.6,2.2-3,4.2c2,7,4.4,13.9,6.6,20.8c-1.1,1.2-2.3,2.4-3.4,3.5c-0.5-0.9-0.9-1.8-1.4-2.7c-0.9,1-1.8,1.9-2.6,2.9
			c-1.6,0.4-3.3,0.8-4.9,1.2c-0.6-0.1-1.2-0.1-1.7,0.1c-0.6-0.1-1.2-0.1-1.9-0.2c-4.2-6.3-5.1-14.4-11.9-22c2,9.4,3.5,16.5,4.9,23.6
			c-1.7,0-3.5-0.1-5.2-0.1c1.5-2.4,0.8-4-1.8-4.9c-1.3-3.5,2.8-8.7-3.5-10.5c1-1.9,3.8-2.7,3.4-5.4c-0.6-1.1-1.2-2.3-1.7-3.4
			c5.7-0.7,10.5-2.6,12.3-8.8c2.2-0.2,4.8,0.6,5.7-2.5c-1.3-0.3-2.7-0.7-4-1c-1.9-2.3,1.9-1.8,1.6-3.4c1.1,0.6,2.2,1.1,3.4,1.7
			C824.6,478,827,478.6,829.4,479.1z M819.3,487.9c0.8,2,1.6,4,2.8,6.8C824.1,490.8,822.4,489.1,819.3,487.9z"/>
		<path class="st0" d="M390.5,510.8c-9.9-2.4-14-11.6-21.1-17.4c4.6-4,11-4.1,15.9-7.3c3.5-2.9,7-0.5,10.5,0c0,0,0,0,0,0
			c0.7,1.4,2.1,1.7,3.5,1.9c-0.4,7.3,3.1,2.4,5.3,1.7c0,0.6,0,1.2,0,1.7c-1.2,2.9-2.4,5.8-3.5,8.8c-2.1,0.2-4.5,0.8-4.5,3
			c-0.1,3,2.7,2,4.5,2.2c0.3,2.8-2.4,3.5-3.5,5.3C395.3,510.8,392.9,510.8,390.5,510.8z"/>
		<path class="st0" d="M589.5,290.9c8.1,14.1,19.1,25.3,34.8,33c-4.4,1-7.4,1.7-10.5,2.4c-12.9-3.4-26-6-37.3-13.6
			C586.4,310.6,588.5,306.9,589.5,290.9z"/>
		<path class="st0" d="M653.7,315.8c5.9-13.6,15.7-24.5,25.5-35.3c8.3-9.2,19.3-17.6,9.7-32.9c8.9,6.7,10.2,15.6,4.4,24.9
			c-5,8-11.6,14.6-17.9,21.5c-10.7,11.9-19.7,24.6-21.7,41.1c-2.6-2.6-0.9-5.9-1.6-8.9c0-1.1,0-2.3-0.1-3.4
			C652.6,320.4,653.1,318.1,653.7,315.8z"/>
		<path class="st0" d="M644.8,315.9c3.2-15.5,13.4-27.4,21.2-40.5c4.6-6.9,7.8-14.3,9.2-22.5c3.2,2.4,0.7,6,1.8,8.8
			c-1.3,9.6-6.5,17.4-11.2,25.4c-4.9,8.3-10.8,15.9-13.7,25.3c-2,1.8-1.8,4.3-2.1,6.6c-2.7,5.1-1.1,10.6-1.3,15.9
			c-0.6,0.7-1.2,1.4-1.9,2c-7-0.1-14-0.2-21-0.3c4.7-3.5,10.7,0.7,15.4-2.7c1.6,0,4.5,3.3,4.1-1.8C645,326.7,645,321.3,644.8,315.9z
			"/>
		<path class="st0" d="M676.8,361.7c13.4-13.1,19.8-29.4,17.2-47.7c-1.6-11.2-0.4-20.5,5.9-29.5c0.5-0.1,1-0.2,1.5-0.3
			c0,1.3,0.1,2.6,0.1,3.9c-4.1,8.6-3,17.1-1.2,26.3c3.6,18.3-4.9,33.4-15.8,47.2c-3,3.8-7.9,4.8-12.8,3.3
			C673.4,363.7,675.1,362.7,676.8,361.7z"/>
		<path class="st0" d="M905,423c-4.8,2.6-8,0.4-10.5-3.6c0.6-1.2,1.1-2.3,1.7-3.5c1.2-6,5.2-5.2,9.6-2.9c-0.3-3.2-0.6-5.4-0.8-7.7
			c0-0.5,0-1,0-1.4c4-0.2,8-0.7,12-0.5c3.8,0.2,8.9-1.7,10.5,3.2c1.4,4.3-1,8.3-4.8,11.1c-1.7-0.3-3.7-1.3-5.1-0.8
			c-2.3,0.8-5.5-1.9-7,1.7c-1.8,4.6,3.6,3.5,4.7,5.9l0,0C911.9,424.8,908.3,425.1,905,423z"/>
		<path class="st0" d="M639.4,164.1c-3.6-9.3-7.8-15.7-18.9-17.9c9.9-4.3,15.7-9.6,18.5-18.8c2.6,9.2,7.6,14.8,17.4,17.7
			C648,149.4,640.7,153.2,639.4,164.1z"/>
		<path class="st0" d="M460.9,628.3c-1,2.2-3,1.8-4.9,1.7c-7.9-17.3-7-35.9-7.8-54.2c1.2,0.6,2.5,1.2,3.7,1.8c0,1.9-0.3,3.8,1.5,5.2
			c0.2,1.6,0.4,3.3,0.7,4.9c-0.5,3.6,0.3,6.6,3.2,9c-2.8,5.2-0.6,9.7,1.8,14.2C459.7,616.7,460.3,622.5,460.9,628.3z"/>
		<path class="st0" d="M576.5,312.7c11.3,7.6,24.5,10.2,37.3,13.6c-1.9,1.2-3.9,2.4-5.8,3.6c-1.8-2.8-4.7-1.5-7.2-1.9
			c-18.9-2.9-35.1-10.2-45.1-27.6C563.8,302.5,568.6,310.2,576.5,312.7z"/>
		<path class="st0" d="M827.5,513.1c0.9-1,1.8-1.9,2.6-2.9c0.5,0.9,0.9,1.8,1.4,2.7c-0.1,14.4,1,28.8-3.8,42.8
			c-1.2,3.4-1.5,7.4-5.1,9.6c-3.7-0.5-3.6-2.8-2.8-5.5c0.9-2.9,1.6-5.9,2.3-8.9c0.6-4.1,1.2-8.2,1.8-12.3
			C825.2,530.1,826.3,521.6,827.5,513.1z"/>
		<path class="st0" d="M634.7,250.9c-0.4,19.5,1.9,38.7,5.3,57.8c-0.5,1.1-1,2.3-1.5,3.4c-8.3-15.3-9.7-31.9-9.2-48.9
			c1.2-4.1,2.4-8.1,3.7-12.2C633.6,251,634.2,250.9,634.7,250.9z"/>
		<path class="st0" d="M385.4,486.2c-5,3.2-11.3,3.3-15.9,7.3c-1.7-1.4-3.3-2.8-5-4.2c2.3-1.6,6.8-2.1,3.4-6.6
			c-1.2-1.2-2.3-2.3-3.5-3.5c1.2-0.6,2.4-1.2,3.6-1.8c1.9-0.4,4.1,2.1,5.7,0c2.5-3.5-1.5-5.7-2.2-8.6c3.6,0,7.3-0.7,10.6,1.3
			c0.6,3,1.1,6.1,1.7,9.1C384.2,481.5,384.8,483.8,385.4,486.2z"/>
		<path class="st0" d="M397.6,510.7c1.1-1.8,3.8-2.6,3.5-5.3c0.5-1.7,2.8-3.5,0-5.2c1.2-2.9,2.4-5.8,3.5-8.8
			c2.5,1.9,1.5,4.6,1.7,7.1c-1.6,2.4,1,2.1,1.8,2.4c2,0.7,2.8-0.9,3.5-2.4c1.2,0,2.3,0,3.5,0c3.9-0.3,4.7,3.5,7,5.3
			c-2,4.1-5.6,6.9-8.7,10.1c-3.1,0.2-6.3,0.5-9.4,0.7c-1-0.2-2-0.3-3-0.5C400,513,398.8,511.8,397.6,510.7z"/>
		<path class="st0" d="M443.3,573.5c-11-5.3-13.3-9.5-10.2-18.8c1.7,0.1,2.6,4,4.9,1.4c2.5-2.9-1-4.6-1.8-6.8c1.5-2.8,4-3.7,7.1-3.4
			c3.8,1.7,0.6,7.6,5.3,8.8C445.9,560.7,444.2,567,443.3,573.5z"/>
		<path class="st0" d="M453.4,582.8c-1.7-1.4-1.4-3.4-1.5-5.2c0-0.6,0.1-1.2,0.1-1.9c2.5,1.1,4.9,2.4,5.3-2.2
			c0.4-4.1-0.9-7.9-1.8-11.8c0.2-0.2,0.3-0.5,0.5-0.7c0.2-0.2,0.6-0.5,0.7-0.5c3.2,1.9,0.9,6.1,4.3,9.4c0.5-6.6,2.1-12,5-17
			c2.5,0,5.1-0.1,5.3,3.4c0,0.6,0,1.2,0,1.8c0.9,6.7-6.9,10.7-5.3,17.6c-1.3,1.2-2.5,2.5-3.8,3.7l-0.5,0.2c0,0-0.5-0.2-0.5-0.2
			c-1.3,0-2.7-0.1-4-0.1c-0.5-0.1-1.1-0.1-1.6-0.1C452.7,579.1,453.8,581.4,453.4,582.8z"/>
		<path class="st0" d="M406.4,498.5c-0.2-2.4,0.8-5.2-1.7-7.1c0-0.6,0-1.2,0-1.7c1.2-0.6,1.2-1.2,0-1.8c0.5-4.6-2.8-7.9-3.9-12
			c0.2-0.3,0.5-0.5,0.9-0.6c6.9,2.6,13.8,5.2,18.7,11c-0.4,4.6-7.4,6.4-5.2,12.1c-1.2,0-2.3,0-3.5,0
			C409.9,496.4,408.2,499.1,406.4,498.5z"/>
		<path class="st0" d="M777,203.3c-0.7,0.7-1.3,1.4-2,2.1c-15.1-17-33-30.7-52.5-42.3c0.8-0.6,1.6-1.3,2.3-1.9
			C745.4,171.2,762.5,185.6,777,203.3z"/>
		<path class="st0" d="M905,405.4c0.2,2.3,0.5,4.5,0.8,7.7c-4.4-2.4-8.4-3.1-9.6,2.9c-2.8,0.3-5.2,1.2-7,3.5
			c-1.2,2.1-3.3,1.7-5.2,1.8c-2.6-1.8-1.5-4.6-1.8-7c0-1.7,0-3.5,0-5.2c4.7-3,9.9-3.6,15.3-3.7C900,405,902.4,409.5,905,405.4z"/>
		<path class="st0" d="M466.1,552.9c-2.9,5-4.5,10.4-5,17c-3.4-3.2-1.1-7.5-4.3-9.4c-0.1-0.1-0.5,0.3-0.7,0.5
			c-0.2,0.2-0.3,0.5-0.5,0.7c-2.3,4.4,0,9.9-3.5,14c0,0.6-0.1,1.2-0.1,1.9c-1.2-0.6-2.5-1.2-3.7-1.8c-1.1-0.6-2.2-1.2-3.3-1.8
			c5.1-6.8,3.7-16.2,8.9-22.9c0.3,1.3,0.5,2.5,0.8,3.8c0.8-1.1,2.2-2.2,2.1-3.2c-0.2-2.6-1.9-0.6-2.9-0.6c0-1.2,0-2.3,0-3.5l0,0
			c2.6-0.3,4.8,0.6,7,1.8c0,0.6,0,1.1,0,1.7c-1.5,1-3.1,3.1-2,4.1c1.8,1.5,2.1-2,3.7-2.3C463.8,552.9,464.9,552.9,466.1,552.9
			L466.1,552.9z"/>
		<path class="st0" d="M474.7,488c-2.1,1.3-4.3,2-6.8,1.7c0-0.6,0-1.2,0-1.7c1.8-1.2,3.5-2.3,5.3-3.5c0.1-0.3,0.3-0.5,0.3-0.8
			c0-0.2-0.2-0.7-0.4-0.7c-3.6-0.1-7.3-1.6-10.5,1.4c-3.6,0.6-7.1,1.2-10.7,1.7c-1.4-2.2-5.4-1.9-5.5-5.5c0,0,0.1,0.1,0.1,0.1
			c1.8-0.5,3.7-1.1,5.5-1.6c1.2-0.6,2.4-1.2,3.5-1.8c4.1,2.8,8.2,2.7,12.3,0c4,1.6,5.8-2.5,8.8-3.4c1.3-0.6,2.5-1.2,3.8-1.8
			C480.3,478.1,479,483.6,474.7,488z"/>
		<path class="st0" d="M868.1,433.5c-1.8-0.6-3.5-1.2-5.3-1.7c-0.9-3.2-1-6.8-4-9c4.8-7,12.5-9.1,19.6-12.4
			c0.8,5.9-4.5,10.5-3.5,16.7c0.4,2.8-5.2-1.3-5.1,2.9C868.5,430.7,868.2,432.1,868.1,433.5z M867.3,427c1.4-1.7,0.6-3-0.6-4.2
			c-0.2-0.2-1.3,0-1.3,0.1C865,424.6,865.9,425.9,867.3,427z"/>
		<path class="st0" d="M822.2,477.5c-1.1-0.6-2.2-1.1-3.3-1.7c-1.1-0.5-2.2-1-3.3-1.5c3.4-1.4,2.3-4.4,2.3-6.8
			c-0.3-10.7,0.9-21.5-0.7-32.1c2,0.8,4.1,1.5,5.3,3.4C821.3,451.7,821.8,464.6,822.2,477.5z"/>
		<path class="st0" d="M497.9,210.9c-0.7-0.7-1.3-1.4-2-2.1c11.1-14.8,24.1-27.5,40-37.1c0.7,0.7,1.5,1.3,2.2,2
			C523.4,184.7,509.7,196.8,497.9,210.9z"/>
		<path class="st0" d="M831.3,484.5c1.5-2.9,5.5-0.7,7-3.5c7.4,0.7,8.9,6.7,10.3,12.2c1.5,5.8-1.6,9.9-6.7,12.7
			c-0.4-2.5,0.8-5.4-1.8-7.3c-0.3-2.8-1.2-5.3-3.5-7.1c0-2.6,0.1-5.1-3.6-5.3C832.4,485.6,831.9,485,831.3,484.5z"/>
		<path class="st0" d="M564.4,356.1c0.7,3.3-2.4,2.6-3.8,3.4c-3.3,1.7-6.5,3.5-5.5,7.7c0.9,4,4.2,5.2,8.1,5.1c2-0.1,4.2-0.8,5.3,1.7
			c-1.8,0.8-3.6,1.8-5.5,2.4c-6.1,2-11.1,0-13.5-5.8c-3.3-7.7,1.9-11.6,8-14.6C559.7,356,562.1,356,564.4,356.1z"/>
		<path class="st0" d="M724.8,161.1c-0.8,0.6-1.6,1.3-2.3,1.9c-14.6-6.5-29.6-12.3-44.7-17.6C694.8,146.6,710.3,152.4,724.8,161.1z"
			/>
		<path class="st0" d="M552.1,161.4c15-8.2,30.6-14.5,47.9-16.1c-16.5,4.8-31.5,13-47.8,18.2C552.2,162.8,552.2,162.1,552.1,161.4z"
			/>
		<path class="st0" d="M367.8,477.4c-1.2,0.6-2.4,1.2-3.6,1.8c-1.3,0.2-3.9,0-3.5,0.9c1.2,2.9,3.4,5.2,7,2.6c3.4,4.5-1,5-3.4,6.6
			c-4.2-2.3-7.2-5.8-9.7-9.7c-4.9-7.6-3.4-10,6.1-10.8c-1.6,6.3,4.2,5.1,7,6.9C367.8,476.2,367.8,476.8,367.8,477.4z"/>
		<path class="st0" d="M462.6,540.6c11.1-5.3,16.2-4.1,22.3,5.3c-4.7-0.3-9.2,4.3-14.1,0.5c-0.1-0.1-1.9,1.9-2.9,2.9
			c-0.6-0.6-1.2-1.2-1.7-1.8c-1.8-1.2-3.5-2.3-5.3-3.5C463.9,544.2,463.5,542.5,462.6,540.6z"/>
		<path class="st0" d="M469.6,442.3c-0.6,0.6-1.2,1.1-1.8,1.7c1.4-4.7-2.8-4-5-5.2c1.6-3.3,3.4-6.6,6.4-9c1.3,1.2,2.6,2.5,3.9,3.7
			c3.9,1.9,7.5,1.6,10.6-1.8c1.9-0.1,4,0.3,5.3-1.8c2,1.3,1.5,3.5,1.8,5.4l-0.1-0.1c-4.7,1.8-9.4,3.5-14,5.3c0,0,0,0,0,0
			C474.2,440.8,471.5,439.7,469.6,442.3z"/>
		<path class="st0" d="M815.5,482.7c-1.8,6.2-6.6,8.1-12.3,8.8c0,0,0,0,0,0c-2.5-2.9-5.8-1.2-8.8-1.8c-0.5-0.6-0.9-1.1-1.4-1.7
			c-1-3.2,1.5-5,3-7.2c3,0,6,0.1,9,0.1c0,0,0,0,0,0c-0.6,0.7-1.4,1.2-1.6,2c-0.6,2.1,1.2,1.4,1.9,1.2c2.7-1.2,5.6-1.6,8.5-1.4
			C814.3,482.7,814.9,482.7,815.5,482.7z"/>
		<path class="st0" d="M467.9,549.4c1-1,2.7-3,2.9-2.9c4.9,3.8,9.4-0.8,14.1-0.5c1.6,2.7,2.8,5.5,2.3,8.7c-2.9,0.5-6.3-1.2-8.8,1.8
			c0,0.5,0,1.1,0,1.6c-2.3-0.6-4.7-1.2-7-1.8c-0.2-3.6-2.8-3.4-5.3-3.4c0,0,0,0,0,0C465.9,551.3,469.7,551.7,467.9,549.4z"/>
		<path class="st0" d="M455.6,505.4c0.8-1.5,2.2-1.6,3.7-1.6c1.5,12.4-1.2,24.9,1.5,37.2c-1.8,1-3.7,1.9-5.5,2.9
			C457,531.1,456.3,518.3,455.6,505.4z"/>
		<path class="st0" d="M471.4,556.3c2.3,0.6,4.7,1.2,7,1.8c2,0.1,3.9,0.3,5.8,1.4c3.7,2.1,2.5-1,2.5-2.7c0.2-0.2,0.5-0.4,0.7-0.6
			c1.5,3.7,1.4,7.4,0,11.1c-1.7-2.4-3.5-2.8-5.5-0.4c-0.6,0-1.2,0-1.7,0c-1.5-2-3.7-5.8-4.1,0.1c-0.2,3.8-2.8,3.7-4.7,5.2l0,0
			c-1.8-4.7,4.6-9.4,0-14.1C471.4,557.5,471.4,556.9,471.4,556.3z"/>
		<path class="st0" d="M415.2,498.4c-2.2-5.7,4.8-7.5,5.2-12.1c3.8,2.7,6.3,6.5,8.6,10.5c-2.2,1.9-1.3,4.6-1.5,6.9l0,0
			c-3-1.5-0.5-5.2-3.1-7.3c-1,2.6,0.4,5.6-2.2,7.3C419.9,502,419.1,498.1,415.2,498.4z"/>
		<path class="st0" d="M815.5,474.3c1.1,0.5,2.2,1,3.3,1.5c0.3,1.5-3.5,1.1-1.6,3.4c-0.8,1.4-2.1,1.7-3.5,1.8c-2.9,0-5.9,0-8.8,0
			c0,0,0,0,0,0c-1.5-2.8-5.5-0.6-7-3.4C803,472.2,808.9,471,815.5,474.3z"/>
		<path class="st0" d="M804.9,494.8c0.4,2.8-2.4,3.5-3.4,5.4c-0.4,4.3,1.2,8.3,2.3,12.3c0.4-0.3,0.8-0.6,1.1-1
			c0.2-0.2,0.1-0.6,0.2-0.8c2.5,0.9,3.3,2.5,1.8,4.9c-2.5,0.1-5,0.4-7.2-1.2c-0.2-6.2,0.1-12.7-6.9-16c0-0.6,0-1.2,0-1.8
			C796.8,496.1,800.8,495.5,804.9,494.8z"/>
		<path class="st0" d="M812,515.8c-1.5-7.1-3-14.1-4.9-23.6c6.8,7.6,7.7,15.7,11.9,22c-1.4,0-2.7,0.2-3.5,1.5
			C814.3,515.7,813.1,515.7,812,515.8z"/>
		<path class="st0" d="M474.9,423.3c4.6-3.1,9.2-6.1,13.8-9.2c4.2,3.7,1,6.2-1.5,8.8c-2.2,3.1-7.6,0.8-8.8,5.4
			c-1.1-0.6-2.3-1.1-3.4-1.7C474.9,425.5,474.9,424.4,474.9,423.3z"/>
		<path class="st0" d="M831.3,484.5c0.6,0.6,1.1,1.1,1.7,1.7c0.4,2.7-1.2,6.5,3.5,7c0,2.4,0,4.8,0.1,7.2c0,2.8-0.1,5.7-0.1,8.5
			c-0.4,0.4-1,0.6-1.6,0.5c-2.2-6.9-4.6-13.8-6.6-20.8C827.7,486.7,825.8,482.6,831.3,484.5z"/>
		<path class="st0" d="M836.4,437c-1.9-4.9-3.9-9.5-4.1-15.1c-0.2-5.3-3.5-8.9-9.7-7.8c0-0.6,0-1.1,0-1.7c2.4-0.3,5.2,0.8,7-1.8
			c1.1-1.9,2.2-0.1,3.3,0C835.6,419.2,837,428,836.4,437z"/>
		<path class="st0" d="M646.9,345.8c-7.4,5.1-1,10.4-0.3,15.6c-9.4-4.8-9.3-15.9,0.3-22.6c0.5,1.2,1,2.3,1.5,3.5
			C647.9,343.4,647.4,344.6,646.9,345.8z"/>
		<path class="st0" d="M453.8,547.6c0,1.2,0,2.3,0,3.5l0,0c-5.2,6.8-3.8,16.1-8.9,22.9c-0.6,0.1-1.2-0.1-1.6-0.5
			c0.9-6.5,2.6-12.8,5.2-18.9C449.2,551.5,449.7,548.2,453.8,547.6z"/>
		<path class="st0" d="M822.5,380.8c0.7,0,1.3,0,2-0.1c4,2.6,8.1,5.1,12.3,7.8c-3.1,2.2-7.7,2.1-9.2,6.3c-0.5,0-0.9,0-1.4,0
			C826.9,389.7,823.2,385.7,822.5,380.8z"/>
		<path class="st0" d="M441.7,513c0.7,1.2,1.9,2.4,0.8,3.8c-1,1.2-2.1,0.3-3-0.3c-1.2-0.9-2.3-1.9-3.5,0c-1.6-0.7-3.3-1.4-4.9-2.1
			c-2.2-1.7,0.5-3.6-0.1-5.3c2.1-1.4,1.7-3.6,1.9-5.6C437.5,505.1,437,511.4,441.7,513z"/>
		<path class="st0" d="M460.9,452.8c0.2,3.5,5,8.8-3.5,8.8c-1.9,0.6-3.8,1.1-5.7,1.7c1.4-4.1,2.9-8.2,4.3-12.2
			c0.6-0.6,1.1-1.2,1.7-1.8C458.7,450.4,459.8,451.6,460.9,452.8z"/>
		<path class="st0" d="M431,509c0.6,1.8-2.1,3.6,0.1,5.3c-9,2-18,1.6-27,0.2c3.1-0.2,6.3-0.5,9.4-0.7c6.2,1,10.8-1.3,14-6.5
			C428.7,507.9,429.9,508.4,431,509z"/>
		<path class="st0" d="M648.4,342.3c-0.5-1.2-1-2.3-1.5-3.5c0-0.6,0.1-1.2,0.1-1.8c0.6-0.7,1.2-1.4,1.9-2c3.1-2.2,0.5-6.4,3.2-8.7
			c0.7,2.9-1,6.3,1.6,8.9c0,4.2,0,8.4,0,12.8C650.4,347,650.2,343.8,648.4,342.3z"/>
		<path class="st0" d="M804.9,370.3c-3.1-0.8-6.3-1.1-8.8-3.5c0-0.6,0-1.2,0-1.8c3.7-0.5,9.2,1.9,8.8-5.3c0-0.6,0-1.2,0-1.8
			c3.3,1.4,5.2,4,6.6,7.2c-0.4,0-0.8,0-1.2,0C806.6,364.8,809,370.9,804.9,370.3z"/>
		<path class="st0" d="M792.7,498.5c7,3.3,6.7,9.8,6.9,16C789.5,512.5,793.5,504.5,792.7,498.5z"/>
		<path class="st0" d="M453.8,547.6c-4.2,0.5-4.6,3.8-5.3,7c-4.6-1.2-1.5-7.1-5.3-8.8c1.1-0.6,2.3-1.2,3.4-1.8
			c1.4-0.1,2.8-0.1,4.2-0.2c1.5,0,2.9,0,4.4,0c1.8-1,3.7-1.9,5.5-2.9c0.6-0.2,1.2-0.3,1.8-0.5c0.9,1.9,1.3,3.6-1.8,3.5
			C458.5,545.3,456.2,546.5,453.8,547.6C453.8,547.6,453.8,547.6,453.8,547.6z"/>
		<path class="st0" d="M383.6,479.2c-0.6-3-1.1-6.1-1.7-9.1c2.8-0.7,4.9,0.9,7,2.4c0.6,0.5,1.1,1,1.7,1.4c-0.9,2.8,2.8,5.9,0.3,8
			C388.1,484.2,386.2,480,383.6,479.2z"/>
		<path class="st0" d="M826.2,394.9c0.5,0,0.9,0,1.4,0c1.7,5.3,3.5,10.5,5.2,15.8c-1.1-0.2-2.2-1.9-3.3,0
			c-2.9-5.6-6.1-11.1-7.1-17.5C823.7,393.7,825,394.3,826.2,394.9z"/>
		<path class="st0" d="M446.5,480.7c0,3.6,4,3.3,5.5,5.5c-5.8,3.6-4.8,10.2-6.7,15.4c-0.9,2.3,0.5,5.3-1.7,7.4
			C443.1,499.4,444.3,490,446.5,480.7z"/>
		<path class="st0" d="M390.6,473.9c-0.6-0.5-1.1-1-1.7-1.4c4.8-1.5,8.9,0,12.8,2.9c-0.4,0.1-0.7,0.3-0.9,0.6
			c-2.8,2.4-0.4,4.6,0.3,6.8c-1.8,1-2.5,3.8-5.3,3.5c0,0,0,0,0,0C395.5,481.5,396.6,476.2,390.6,473.9z"/>
		<path class="st0" d="M861.3,449c5.3,0.2,10.6,0.3,15.9,0.5c-8.9,1.7-17.8,1.8-26.7-0.1c0.2-3-4.4-3.7-3.6-7.1c1.2,0,2.4,0,3.7,0
			C853.1,446.2,855.2,450.7,861.3,449z"/>
		<path class="st0" d="M462.2,579.4c1.3-1.2,2.5-2.5,3.8-3.7c0.5,2.3,1.3,4.3,3.3,1c0.8-1.4,0.3-3.5,2-4.5c0,0,0,0,0,0
			c3.3,2.4,3.9,8.9,10.2,6.7l0.3,0.4C475.4,581.9,468.8,581.5,462.2,579.4z"/>
		<path class="st0" d="M789.2,358c0-3.1,0-6.3,0-9.5c3.1-0.6,4.9,1.3,7,2.8c-0.2,2.5,0.7,4.6,1.8,6.7
			C795,360.5,792.1,358.3,789.2,358z"/>
		<path class="st0" d="M452.1,479.2c-1.8,0.5-3.7,1.1-5.5,1.6c-0.4-5.7,2.3-10.5,4.1-15.6c2.1,0.1,3.1,1.3,3.2,3.3
			C453.2,472.1,452.6,475.6,452.1,479.2z"/>
		<path class="st0" d="M858.9,422.7c3,2.3,3.1,5.8,4,9c-0.6,0.6-1.2,1.2-1.8,1.7c-2.5,0-4.3,1.2-5.3,3.5c-0.6,0.6-1.2,1.2-1.7,1.8
			c0,0,0,0,0,0c0.6-3.9,1.2-7.8,1.8-11.7C856.9,425.6,857.9,424.2,858.9,422.7z"/>
		<path class="st0" d="M480.2,566.9c0.6,0,1.2,0,1.7,0c0,3.4,2.9,3.9,5,5.2c0.5,3.9,0,7.1-5,7c0,0-0.3-0.4-0.3-0.4
			c0.1-1.4,0.8-3.4,0.1-4.3C478.8,571,478.6,571.2,480.2,566.9z"/>
		<path class="st0" d="M457.2,579.3c1.3,0,2.7,0.1,4,0.1c-3.8,10.3-0.1,21-2.1,31.4c-2.4-4.5-4.6-9-1.8-14.2
			C457.3,590.9,457.2,585.1,457.2,579.3z"/>
		<path class="st0" d="M789.2,358c2.9,0.3,5.8,2.4,8.8,0c1.7,1.2,3.4,2.4,5.1,3.6c-1.5,2.8-5.4,0.5-6.9,3.4c0,0.6,0,1.2,0,1.8
			c-2.2-0.9-3.9-4-7-1.8C789.2,362.7,789.2,360.4,789.2,358z"/>
		<path class="st0" d="M793,382.6c4.6,1.4,9.2,2.8,13.8,4.2c-2.3,4.6-8.4,0.9-10.9,4.9C794,389,793.5,385.8,793,382.6z"/>
		<path class="st0" d="M915.5,424.7c-1.1-2.4-6.5-1.3-4.7-5.9c1.4-3.6,4.7-0.9,7-1.7c1.4-0.5,3.3,0.5,5.1,0.8
			C921.1,420.9,918.5,423,915.5,424.7z"/>
		<path class="st0" d="M487.2,422.9c2.5-2.6,5.7-5.1,1.5-8.8c2-2,3.1-0.8,3.2,1.2c0,6.7,1.7,13.5-1.1,20.1c-0.3-1.9,0.2-4.1-1.8-5.4
			C485.7,428.3,493.9,423.7,487.2,422.9z"/>
		<path class="st0" d="M803.3,419.4c5.5,3.1,11.6,3.9,19.7,3.9c-6.3,4.6-12.4-1.2-16.6,3.5C804.4,424.8,803.5,422.3,803.3,419.4z"/>
		<path class="st0" d="M552.1,161.4c0,0.7,0.1,1.4,0.1,2.1c-4.1,4.2-9.1,7.2-14.2,10.2c-0.7-0.7-1.5-1.3-2.2-2
			C540.8,167.4,546,163.6,552.1,161.4z"/>
		<path class="st0" d="M476.7,440.5c4.7-1.8,9.4-3.5,14-5.3c0.1,1.9,0.3,3.9-1.3,5.4C485.1,441.1,480.9,443.8,476.7,440.5z"/>
		<path class="st0" d="M804.9,494.8c-4.1,0.6-8.1,1.2-12.2,1.9c0.1-2.9,0.2-5.8,0.3-8.7c0.5,0.6,0.9,1.1,1.4,1.7
			c2.4,3,5.8,1.3,8.8,1.8c0,0,0,0,0,0C803.7,492.6,804.3,493.7,804.9,494.8z"/>
		<path class="st0" d="M803,361.7c-1.7-1.2-3.4-2.4-5.1-3.6c-1.1-2.1-2.1-4.2-1.8-6.7c3.5,1.5,6.4,3.7,8.8,6.6c0,0.6,0,1.2,0,1.8
			C804.3,360.3,803.7,361,803,361.7z"/>
		<path class="st0" d="M850.6,442.3c-1.2,0-2.4,0-3.7,0c-0.7-0.1-1.3-0.1-2-0.2c0.5-3.8,3.3-6.1,5.7-8.6c1.2,1.7,2.3,3.5,3.5,5.2
			c0,0,0,0,0,0c0,0.6,0,1.2-0.1,1.8C852.9,441.1,851.7,441.7,850.6,442.3z"/>
		<path class="st0" d="M367.8,475.6c-2.9-1.8-8.6-0.6-7-6.9c2.3,0,4.7,0,7,0C367.2,471,371,473.3,367.8,475.6z"/>
		<path class="st0" d="M367.8,475.6c3.2-2.3-0.6-4.6,0-6.9c1.2,0,2.4,0,3.5,0.1c0.7,2.9,4.6,5.1,2.2,8.6c-1.5,2.1-3.8-0.3-5.7,0
			C367.8,476.8,367.8,476.2,367.8,475.6z"/>
		<path class="st0" d="M677.1,261.7c-1.1-2.8,1.4-6.4-1.8-8.8c-0.2-3.1-0.8-6.2,0.7-9.9C679,249.5,680,255.5,677.1,261.7z"/>
		<path class="st0" d="M474.9,423.3c0,1.1,0.1,2.2,0.1,3.3c0,1.1,0,2.2,0,3.3c-0.6,1.2-1.2,2.4-1.8,3.7c-1.3-1.2-2.6-2.5-3.9-3.7
			C469.7,426.4,471.9,424.5,474.9,423.3z"/>
		<path class="st0" d="M538,342.3c3,2.8,8.6,2.9,8.7,8.6c-3.9-1.7-7.9-3.4-10.7-6.8C536.8,343.5,537.4,342.9,538,342.3z"/>
		<path class="st0" d="M453.8,468.5c-0.1-2-1-3.2-3.2-3.3c0.3-0.6,0.6-1.3,1-1.9c1.9-0.6,3.8-1.1,5.7-1.7c-2.2,1.5,8.4,1.5,0.4,3.8
			C456.3,465.9,455.1,467.4,453.8,468.5z"/>
		<path class="st0" d="M431,509c-1.1-0.6-2.3-1.2-3.4-1.7c0-1.2-0.1-2.4-0.1-3.5c0,0,0,0,0,0c1.9-0.7,3-2.2,3.8-3.9
			c1.6,0.7,1.5,2.2,1.6,3.6C432.7,505.4,433.1,507.7,431,509z"/>
		<path class="st0" d="M854.1,438.8c-1.2-1.7-2.3-3.5-3.5-5.2c1.2-2.6,2.8-4.9,5.3-6.5C855.3,431,854.7,434.9,854.1,438.8z"/>
		<path class="st0" d="M486.9,572.2c-2.1-1.3-5-1.9-5-5.2c2-2.4,3.8-2.1,5.5,0.4C487.3,568.9,487.1,570.5,486.9,572.2z"/>
		<path class="st0" d="M436.2,549.3c0.8,2.2,4.3,3.9,1.8,6.8c-2.3,2.6-3.1-1.3-4.9-1.4C433.6,552.6,434.4,550.6,436.2,549.3z"/>
		<path class="st0" d="M722.5,515.8c0.9-4.3,4-5.9,8-6.5C729.5,513.6,726.7,515.5,722.5,515.8z"/>
		<path class="st0" d="M462.8,438.8c2.2,1.3,6.4,0.5,5,5.2c-1.2,0.6-2.3,1.2-3.5,1.8c-0.6-1.5-1.4-2.6-3-3.1
			c-0.2-0.3-0.5-0.5-0.8-0.6C461.3,441,462.1,439.9,462.8,438.8z"/>
		<path class="st0" d="M676.8,361.7c-1.7,1-3.4,2.1-5.1,3.1c-3.4,0-5.3-2.9-7.9-4.5C668.1,360.7,672.4,361.2,676.8,361.7z"/>
		<path class="st0" d="M564.4,356.1c-2.3,0-4.7-0.1-7-0.1c0-0.3,0-0.7,0.1-1c0.4-1.2-1.8-2.6-0.1-3.6c1.3-0.7,2.7,0,3.6,1.3
			C562.1,353.8,563.2,354.9,564.4,356.1z"/>
		<path class="st0" d="M757.6,475.6c0.6-0.7,1.3-1.3,1.9-2c2.4,2.5,4.3,5.2,4.9,8.7C760.1,482.2,759.4,478.3,757.6,475.6z"/>
		<path class="st0" d="M480.4,472.2c-1.3,0.6-2.5,1.2-3.8,1.8c-1.3-0.2-2.6-0.3-4.3-0.6c2.7-3.3,6.6-2.8,9.3-4.8
			C481.9,470,481.7,471.3,480.4,472.2z"/>
		<path class="st0" d="M701.3,284.1c-0.5,0.1-1,0.2-1.5,0.3c0-3.5,0-7,0-10.7c2.6,1,2.9,3.2,3,5.4
			C701.1,280.4,701.5,282.3,701.3,284.1z"/>
		<path class="st0" d="M905,423c3.2,2.1,6.9,1.8,10.5,1.7c-1.2,1-2.4,2.1-3.6,3.1C910.2,425.4,905,427.9,905,423z"/>
		<path class="st0" d="M548.6,321.2c2.7,1.3,4.8,3,5.2,6.2c-2.3-0.3-4.7-0.6-7-0.9C547.5,324.7,548,322.9,548.6,321.2z"/>
		<path class="st0" d="M759.5,405.6c-0.3,2.1-0.7,4.2-1.1,6.7c-3.9-2.6-3-4.7-0.5-6.9c0,0,0.8-0.1,0.8-0.1L759.5,405.6z"/>
		<path class="st0" d="M643.3,223.2c0-0.6,0.1-1.2,0.1-1.9c3.1-0.6,5.7,1.3,8.5,1.9c-0.6,0.6-1.2,1.1-1.8,1.7
			C647.8,224.5,645.3,225,643.3,223.2z"/>
		<path class="st0" d="M746.7,501.8c4.2-1.6,8.3-3,12.4,0.2c-3,0.5-5.9,1-8.9,1.4C749.1,502.9,747.9,502.3,746.7,501.8z"/>
		<path class="st0" d="M810.4,365.1c0.4,0,0.8,0,1.2,0c1.7,1.3,2.6,2.9,2.2,5.1c-0.1,0.7-0.1,1.4-0.2,2.1c0,0.5,0.1,1,0.1,1.5
			c-0.6,0-1.2,0-1.8,0c0,0,0,0,0,0C811.8,370.8,809.5,368.3,810.4,365.1z"/>
		<path class="st0" d="M734.8,508.9c-0.7-5.7,3.5-5,6.9-5.2c0,0.5,0,1.1,0,1.6C739.4,506.5,737.1,507.7,734.8,508.9z"/>
		<path class="st0" d="M397.6,510.7c1.2,1.1,2.3,2.2,3.5,3.3c-4,0.3-7.5-0.7-10.6-3.3C392.9,510.8,395.3,510.8,397.6,510.7z"/>
		<path class="st0" d="M650.1,319c0.2-2.4,0.1-4.8,2.1-6.6c0.5,1.1,1,2.3,1.5,3.4c-0.6,2.3-1.2,4.7-1.7,7
			C651.4,321.5,650.7,320.3,650.1,319z"/>
		<path class="st0" d="M587,273.9c-0.6,1.3-1.2,2.5-1.8,3.8c-2.2-3-1.5-6.3-1.7-10.3C586.3,269.5,586.4,271.8,587,273.9z"/>
		<path class="st0" d="M759.5,405.6l-0.8-0.2c0,0-0.8,0.1-0.8,0.1c1.6-2.4,3.3-4.8,4.9-7.2c0.6,0.6,1.2,1.3,1.7,1.9
			C763.9,402.9,761.5,404.1,759.5,405.6z"/>
		<path class="st0" d="M762.8,502c2.7-1.7,6.2,0.6,8.8-1.7C769.6,505.6,766.3,504.5,762.8,502z"/>
		<path class="st0" d="M741.7,505.3c0-0.5,0-1.1,0-1.6c1.3-1.7,3.2-1.7,5-2c1.2,0.5,2.4,1.1,3.5,1.6
			C747.4,504,744.6,504.7,741.7,505.3z"/>
		<path class="st0" d="M569.1,373.7c2-0.7,3.9-1.4,5.9-2.1c-1.3,3.2-3.2,5.5-6.9,5.7C568.3,376.1,568.7,374.9,569.1,373.7z"/>
		<path class="st0" d="M568,582.4c0.7-0.5,1.4-1.1,2.1-1.6c2.1-0.2,4.1-0.4,7.8-0.8C573.9,583.7,571,583,568,582.4z"/>
		<path class="st0" d="M798,477.5c1.5,2.8,5.5,0.6,7,3.4c-3,0-6-0.1-9-0.1C796,479.3,796.4,478.1,798,477.5z"/>
		<path class="st0" d="M836.5,508.9c0-2.8,0.1-5.7,0.1-8.5c2.8,1.2,0.4,5,3.1,6.2l0.3,0.7C839.2,508.6,838,509.1,836.5,508.9z"/>
		<path class="st0" d="M650.1,225c0.6-0.6,1.2-1.1,1.8-1.7c1.9,0.8,4.6,0.6,5.1,3.9C654.4,227.1,652,226.8,650.1,225z"/>
		<path class="st0" d="M431.2,499.8c-0.8,1.8-1.9,3.2-3.8,3.9c0.2-2.4-0.7-5,1.5-6.9C429.7,497.8,430.5,498.8,431.2,499.8z"/>
		<path class="st0" d="M905,405.4c-2.6,4.1-5-0.4-7.5-0.2c2.3-1.6,4.9-1.6,7.6-1.2C905,404.4,905,404.9,905,405.4z"/>
		<path class="st0" d="M482.1,465.5c-0.9-2.6-4.2-1.3-6.2-3.9c2.9,0,5.2,0,7.4,0C483.7,463.1,483.3,464.4,482.1,465.5z"/>
		<path class="st0" d="M669.3,236.2c-2.6-1.4-4.2-2.4-4.3-4.7C668.2,231.3,668.8,233.1,669.3,236.2z"/>
		<path class="st0" d="M701.3,284.1c0.1-1.8-0.3-3.7,1.6-5c0.3,3.1,1.1,6.3-1.4,8.9C701.4,286.7,701.4,285.4,701.3,284.1z"/>
		<path class="st0" d="M840.1,498.5c2.6,1.9,1.4,4.8,1.8,7.3c-0.6,0.5-1.2,1-1.8,1.5c0,0-0.3-0.7-0.3-0.7
			C839.8,503.9,840,501.2,840.1,498.5z"/>
		<path class="st0" d="M478.4,556.4c2.4-3,5.8-1.3,8.8-1.8c0.4,0.5,0.5,1,0.3,1.5c-0.2,0.2-0.5,0.4-0.7,0.6
			C484,556.7,481.2,556.6,478.4,556.4z"/>
		<path class="st0" d="M634.7,250.9c-0.6,0-1.2,0.1-1.8,0.1c-0.2-1.8,0.5-4.1,2.1-4c2.4,0.1,0.9,2.5,1.1,3.9
			C635.7,250.9,635.2,250.9,634.7,250.9z"/>
		<path class="st0" d="M662.1,503.7c1.4,2.2,2.9,4.5,4.3,6.7c-0.1,0.9-0.2,1.8-0.3,2.6c-1.1-0.8-2.2-1.6-3.2-2.5
			c-18.4-18.3-35.2-37.9-47.6-60.8c-9.3-17.1-17.3-34.9-19.4-54.6c0.5-1.2,1.1-2.5,1.6-3.7c11.7,41.4,33.9,76.9,61.4,109.3
			C659.8,501.9,661,502.8,662.1,503.7z"/>
		<path class="st0" d="M606.4,381.1c12.9,18.9,28.7,35.1,45.5,50.5c9,8.2,17.8,16.7,25.8,25.9c-29.3-21-58.9-41.8-74.8-76.2
			c0.1-0.8,0.2-1.7,0.3-2.5C604.2,379.5,605.3,380.3,606.4,381.1z"/>
		<path class="st0" d="M606.4,381.1c-1.1-0.8-2.1-1.6-3.2-2.4c-0.4-2.4-1.5-4.3-4.1-4.9c1.8-5.9,4.8-4.3,7.1-0.6
			C607.5,375.4,608.3,378.4,606.4,381.1z"/>
		<path class="st0" d="M582.2,417.9c-1.2-3.4,1.2-7.3-1.7-10.4c-0.1-3.7-1.4-7.6,1.4-11c0.6,0.6,1.1,1.2,1.7,1.8
			C583.3,404.8,585,411.5,582.2,417.9z"/>
		<path class="st0" d="M636.6,366.6c-0.6,0.6-1.2,1.2-1.9,1.8c-3.5-1.6-6-4.2-6.8-8.8C630.8,361.9,633.7,364.3,636.6,366.6z"/>
		<path class="st0" d="M568,403.8c-0.6-1.2-1.1-2.4-1.7-3.5c0-3,1.2-5.2,4.5-8.1C570.5,397.2,570.3,400.7,568,403.8z"/>
		<path class="st0" d="M584.6,374.1c0.7,3.8,2.2,7.6-1.5,11.3C581.5,380.9,584.6,377.6,584.6,374.1z"/>
		<path class="st0" d="M594,384.6c-2.3-3.4-1.6-7.1-0.7-12.6c1.1,4.7,1.8,7.7,2.5,10.8C595.2,383.4,594.6,384,594,384.6z"/>
		<path class="st0" d="M594,384.6c0.6-0.6,1.2-1.2,1.8-1.8c0.6,2.9,1.1,5.8,1.7,8.7c-0.5,1.2-1.1,2.5-1.6,3.7
			C593.3,392,594.5,388.2,594,384.6z"/>
		<path class="st0" d="M622.3,370.7c-0.1,0.6-0.2,1.3-0.3,1.9c-3.4-1.1-5.8-3.3-8.1-7.1C618.2,365.8,620.2,368.3,622.3,370.7z"/>
		<path class="st0" d="M657.3,370.5c1.8,0.7,3.7,1.3,6.5,2.3c-4.1,1.5-7.1,1.4-10-0.6C654.9,371.7,656.1,371.1,657.3,370.5z"/>
		<path class="st0" d="M583.5,398.3c-0.6-0.6-1.1-1.2-1.7-1.8c0.2-2.5,0.4-4.9,0.7-8.6C584.4,392.1,583.5,395.2,583.5,398.3z"/>
		<path class="st0" d="M599,373.8c2.6,0.6,3.7,2.5,4.1,4.9c-0.1,0.8-0.2,1.7-0.3,2.5C600.7,379.2,599.7,376.6,599,373.8z"/>
		<path class="st0" d="M666.1,513c0.1-0.9,0.2-1.8,0.3-2.6c2.3,1.6,4.1,3.4,5.2,6.5C668.5,516.6,667.3,514.9,666.1,513z"/>
		<path class="st0" d="M824.1,538.6c-0.6,4.1-1.2,8.2-1.8,12.3c-3.4-12.1-0.8-24.4-1.4-36.5c0.6-0.1,1.1-0.2,1.7-0.1
			C822.9,522.4,820.3,530.7,824.1,538.6z"/>
		<path class="st0" d="M631,319.6c-16.2-15.3-24.1-33.7-20-56.3c2.9,22,12.8,40.8,26.2,58C634.4,323.3,633.2,319.7,631,319.6z"/>
		<path class="st0" d="M632.9,331.3c-5.2,0-10.5,0-16.5,0c2.6-1.9,5-2.9,7.8-3C626.4,331.4,630.6,328.5,632.9,331.3z"/>
		<path class="st0" d="M631,319.6c2.2,0.1,3.4,3.7,6.2,1.7c1.9,3.2,0.9,4.8-2.7,5c-0.8-2.8-4-2.8-5.4-5
			C629.7,320.8,630.4,320.2,631,319.6z"/>
		<path class="st0" d="M638.5,312.1c0.5-1.1,1-2.3,1.5-3.4c0.7,1.8,1.3,3.6,2,5.4C639.2,316.5,639.2,313.7,638.5,312.1z"/>
		<path class="st0" d="M461.3,442.7c1.6,0.5,2.4,1.6,3,3.1c0,0,0,0,0,0c-3.2,1.3-3.7,4-3.5,7c0,0,0,0,0,0c-1.1-1.2-2.1-2.4-3.2-3.6
			C458.9,447.1,460.1,444.9,461.3,442.7z"/>
		<path class="st0" d="M592.9,344.3c-0.9-1.7-2.5-2-4.1-2.3c1.7-1.4,3.9-2.4,5.6-1C595.7,342.1,594,343.4,592.9,344.3z"/>
		<path class="st0" d="M813.7,373.8c0-0.5,0-1-0.1-1.5c4,1.7,6,5.6,8.9,8.6c0.7,4.8,4.4,8.8,3.7,14c-1.3-0.6-2.5-1.2-3.8-1.7
			c0,0,0,0,0,0c0.1-3-0.3-5.7-3.5-7c-1.5-2.2-0.6-5.6-3.5-7C814.9,377.3,814.3,375.5,813.7,373.8z"/>
		<path class="st0" d="M813.7,373.8c0.6,1.8,1.2,3.5,1.8,5.3c-3.5-0.7-6.9-2.4-11.5,1.6c2-5.6,6.4-4.1,8-6.8
			C812.5,373.8,813.1,373.8,813.7,373.8z"/>
		<path class="st0" d="M810.4,365.1c-0.8,3.2,1.4,5.8,1.6,8.7c-2.3-1.2-4.7-2.3-7-3.5C809,370.9,806.6,364.8,810.4,365.1z"/>
		<path class="st0" d="M822.5,412.5c0,0.6,0,1.1,0,1.7c-4.1-0.7-8.6,1.6-12.3-1.7C814.3,413.3,818.4,410.7,822.5,412.5z"/>
		<path class="st0" d="M804.7,402.5c2.4,0.5,4.8,1.1,7.5,1.7C809.2,406.6,807,405.1,804.7,402.5z"/>
		<path class="st0" d="M819,386.1c3.2,1.3,3.6,4.1,3.5,7C820.2,391.4,819.2,388.9,819,386.1z"/>
		<path class="st0" d="M829.9,477.4c-0.1-7.2-0.6-14.5,1.2-21.6C831,463,832.8,470.3,829.9,477.4z"/>
		<path class="st0" d="M816.2,418.6c-2.7,1.1-4.5,1.3-6.3,0.1C811.7,417.3,813.5,417.5,816.2,418.6z"/>
		<path class="st0" d="M868.1,433.5c0-1.4,0.3-2.8,1.7-3.5c1.8,1.8,3.5,3.5,5.3,5.3c0.6,1.1,1.2,2.3,1.7,3.4
			c0.9,1.9,1.4,3.6-1.8,3.6c-1.7-0.6-3.5-1.2-5.2-1.8C865,439.3,870.4,435.4,868.1,433.5z"/>
		<path class="st0" d="M850.6,442.3c1.2-0.6,2.3-1.2,3.5-1.8c2.4,2.8,4.8,5.6,7.2,8.4C855.2,450.7,853.1,446.2,850.6,442.3z"/>
		<path class="st0" d="M882.2,414.2c0.3,2.4-0.9,5.2,1.8,7c-2.5,2.2-5,4.5-1.2,8.5C874.5,424.1,880.7,419.2,882.2,414.2z"/>
		<path class="st0" d="M876.9,438.7c-0.6-1.1-1.2-2.3-1.7-3.4c4.1-5.5,5.8,1.2,8.8,1.7c-0.6,1.2-1.2,2.4-1.7,3.6
			C880.4,440,878.7,439.4,876.9,438.7z"/>
		<path class="st0" d="M882.2,440.6c0.6-1.2,1.2-2.4,1.7-3.6c2,1.4,3.9,2.8,6,4.3C886.7,444.2,884.1,444.5,882.2,440.6z"/>
		<path class="st0" d="M859.4,440.5c2.8,1.3,8.4,0.1,5.5,6.8C861.6,446.1,859.6,444.1,859.4,440.5
			C859.4,440.5,859.4,440.5,859.4,440.5z"/>
		<path class="st0" d="M869.9,440.5c1.7,0.6,3.5,1.2,5.2,1.8c0.8,1.4,1.7,2.9,3.1,5.4C873.7,446.1,871.7,443.4,869.9,440.5z"/>
		<path class="st0" d="M855.9,437c1-2.3,2.7-3.5,5.3-3.5c-1.2,2.2-2,4.5-1.8,7c0,0,0,0,0,0C858.2,439.4,857,438.2,855.9,437z"/>
		<path class="st0" d="M889.2,419.5c1.8-2.2,4.2-3.2,7-3.5c-0.6,1.2-1.1,2.3-1.7,3.5C892.7,419.4,891,419.4,889.2,419.5z"/>
		<path class="st0" d="M467.9,477.4c-4.1,2.7-8.2,2.8-12.3,0C459.7,475.7,463.8,475.7,467.9,477.4z"/>
		<path class="st0" d="M476.7,454.6c-1.2-1-2.5-2-3.8-3c3.6-1.4,6.1,1.3,9.5,1.5C480.5,455.4,478.4,454.2,476.7,454.6L476.7,454.6z"
			/>
		<path class="st0" d="M460.8,452.8c-0.2-3,0.3-5.7,3.5-7C463.1,448.1,465.4,452.2,460.8,452.8z"/>
		<path class="st0" d="M469.6,442.3c1.8-2.6,4.6-1.5,7-1.8C475.7,446.6,471.9,441.4,469.6,442.3z"/>
		<path class="st0" d="M476.6,454.6c-2,2.3-4.4,2.1-7.3,1C471.8,453.7,474.4,455,476.6,454.6C476.7,454.6,476.6,454.6,476.6,454.6z"
			/>
		<path class="st0" d="M467.9,487.9c0,0.6,0,1.2,0,1.7c-5.3,2.9-10.3-0.4-15.6-1.7C457.5,487.9,462.7,487.9,467.9,487.9z"/>
		<path class="st0" d="M462.6,484.4c3.1-3,6.9-1.5,10.5-1.4c0.1,0,0.4,0.4,0.4,0.7c0,0.3-0.2,0.5-0.3,0.8
			C469.6,484.4,466.1,484.4,462.6,484.4z"/>
		<path class="st0" d="M805,510.8c0,0.3,0,0.6-0.2,0.8c-0.3,0.4-0.7,0.7-1.1,1c-1.1-4-2.8-8-2.3-12.3
			C807.8,502,803.7,507.3,805,510.8z"/>
		<path class="st0" d="M813.7,480.9c1.5,0,2.8-0.3,3.5-1.8c1.3,0.3,2.7,0.7,4,1c-0.9,3.1-3.6,2.3-5.7,2.5c-0.6,0-1.2,0-1.8,0
			C813.7,482.1,813.7,481.5,813.7,480.9z"/>
		<path class="st0" d="M819.3,487.9c3.1,1.2,4.8,2.9,2.8,6.8C820.9,491.9,820.1,489.9,819.3,487.9z"/>
		<path class="st0" d="M390.6,473.9c6,2.3,4.9,7.6,5.3,12.3c-3.5-0.6-7-2.9-10.5,0c-0.6-2.3-1.2-4.7-1.7-7c2.6,0.8,4.5,5,7.3,2.7
			C393.4,479.8,389.7,476.6,390.6,473.9z"/>
		<path class="st0" d="M401.2,500.2c2.8,1.7,0.5,3.5,0,5.2c-1.8-0.2-4.6,0.8-4.5-2.2C396.7,500.9,399.1,500.4,401.2,500.2z"/>
		<path class="st0" d="M404.7,487.9c1.2,0.6,1.2,1.2,0,1.8c-2.2,0.7-5.7,5.6-5.3-1.7c0.6,0,1.2-0.1,1.8-0.1
			C402.4,487.9,403.5,487.9,404.7,487.9z"/>
		<path class="st0" d="M401.2,487.9c-0.6,0-1.2,0-1.8,0.1c-1.4-0.1-2.8-0.4-3.5-1.8c2.7,0.3,3.4-2.4,5.3-3.5
			C401.2,484.4,401.2,486.2,401.2,487.9z"/>
		<path class="st0" d="M650.1,319c0.6,1.3,1.2,2.5,1.9,3.8c0,1.1,0,2.3,0.1,3.4c-2.7,2.3-0.1,6.5-3.2,8.7
			C649,329.6,647.4,324.1,650.1,319z"/>
		<path class="st0" d="M457.2,579.3c0,5.8,0.1,11.6,0.1,17.4c-2.9-2.3-3.7-5.4-3.2-9c2.6-2.5,1.2-5.6,1.5-8.5
			C456.1,579.2,456.7,579.2,457.2,579.3z"/>
		<path class="st0" d="M455.6,579.2c-0.3,2.9,1.1,6-1.5,8.5c-0.2-1.6-0.4-3.3-0.7-4.9C453.8,581.4,452.7,579.1,455.6,579.2z"/>
		<path class="st0" d="M367.8,482.6c-3.6,2.6-5.8,0.3-7-2.6c-0.4-0.8,2.2-0.7,3.5-0.9C365.4,480.3,366.6,481.5,367.8,482.6z"/>
		<path class="st0" d="M427.5,503.7c0,1.2,0.1,2.4,0.1,3.5c-3.2,5.3-7.9,7.5-14,6.5c3.1-3.2,6.7-5.9,8.7-10.1
			c2.7-1.7,1.2-4.7,2.2-7.3C427,498.5,424.5,502.3,427.5,503.7z"/>
		<path class="st0" d="M406.4,498.5c1.8,0.6,3.5-2.1,5.3,0c-0.7,1.5-1.5,3.1-3.5,2.4C407.4,500.6,404.8,500.8,406.4,498.5z"/>
		<path class="st0" d="M471.4,572.2c-1.8,1.1-1.2,3.2-2,4.5c-2,3.3-2.8,1.3-3.3-1c-1.5-6.9,6.2-10.9,5.3-17.6
			C475.9,562.8,469.6,567.5,471.4,572.2z"/>
		<path class="st0" d="M452.1,575.7c3.5-4.1,1.2-9.6,3.5-14c0.9,3.9,2.2,7.7,1.8,11.8C457,578.1,454.6,576.8,452.1,575.7z"/>
		<path class="st0" d="M401.2,487.9c0-1.7-0.1-3.5-0.1-5.2c-0.7-2.2-3.1-4.4-0.3-6.8c1,4.1,4.4,7.4,3.9,12
			C403.5,487.9,402.4,487.9,401.2,487.9z"/>
		<path class="st0" d="M453.8,547.6c2.3-1.2,4.7-2.3,7-3.5c1.8,1.2,3.5,2.3,5.3,3.5c-1.8,0.6-3.5,1.2-5.3,1.8
			C458.7,548.2,456.4,547.3,453.8,547.6z"/>
		<path class="st0" d="M460.9,549.4c1.8-0.6,3.5-1.2,5.3-1.8c0.6,0.6,1.2,1.2,1.7,1.8c1.8,2.4-2,1.9-1.7,3.5c-1.2,0-2.4,0-3.5,0
			c-0.6-0.6-1.2-1.2-1.7-1.8C460.8,550.6,460.8,550,460.9,549.4z"/>
		<path class="st0" d="M460.8,551.1c0.6,0.6,1.2,1.2,1.7,1.8c-1.6,0.3-1.9,3.9-3.7,2.3C457.7,554.2,459.3,552.1,460.8,551.1z"/>
		<path class="st0" d="M453.8,551.1c1.1,0,2.8-2,2.9,0.6c0.1,1-1.4,2.1-2.1,3.2C454.3,553.7,454.1,552.4,453.8,551.1
			C453.8,551.1,453.8,551.1,453.8,551.1z"/>
		<path class="st0" d="M867.3,427c-1.3-1.1-2.3-2.3-1.9-4.1c0-0.1,1.1-0.3,1.3-0.1C867.9,423.9,868.7,425.3,867.3,427z"/>
		<path class="st0" d="M840.1,498.5c-0.1,2.7-0.2,5.4-0.3,8.1c-2.8-1.2-0.3-5-3.1-6.2c0-2.4,0-4.8-0.1-7.2c0-0.6,0-1.2,0-1.7
			C838.8,493.2,839.8,495.7,840.1,498.5z"/>
		<path class="st0" d="M836.5,491.4c0,0.6,0,1.2,0,1.7c-4.7-0.5-3.1-4.3-3.5-7C836.6,486.3,836.5,488.9,836.5,491.4z"/>
		<path class="st0" d="M487.2,422.9c6.6,0.8-1.5,5.4,1.8,7.1c-1.2,2.1-3.3,1.7-5.3,1.8c-0.6-0.6-1.2-1.2-1.8-1.8
			c-0.7-1.4-2.1-1.6-3.5-1.7C479.6,423.7,485,426,487.2,422.9z"/>
		<path class="st0" d="M481.8,430c0.6,0.6,1.2,1.2,1.8,1.8c-3.1,3.4-6.6,3.7-10.6,1.8c0.6-1.2,1.2-2.4,1.8-3.7
			C477.2,429.9,479.5,429.9,481.8,430z"/>
		<path class="st0" d="M813.7,480.9c0,0.6,0,1.2,0,1.7c-2.9-0.2-5.8,0.2-8.5,1.4c-0.7,0.3-2.5,1-1.9-1.2c0.2-0.8,1.1-1.3,1.6-2
			C807.8,480.9,810.8,480.9,813.7,480.9z"/>
		<path class="st0" d="M803.1,491.4c-2.9-0.5-6.3,1.2-8.8-1.8C797.3,490.2,800.7,488.5,803.1,491.4z"/>
		<path class="st0" d="M478.4,556.4c2.8,0.1,5.6,0.3,8.4,0.4c0,1.7,1.1,4.8-2.5,2.7c-1.9-1.1-3.8-1.3-5.8-1.4
			C478.4,557.5,478.4,557,478.4,556.4z"/>
		<path class="st0" d="M480.2,566.9c-1.5,4.2-1.4,4.1,1.5,7.7c0.7,0.8,0,2.8-0.1,4.3c-6.3,2.3-6.9-4.3-10.2-6.7
			c1.8-1.4,4.4-1.3,4.7-5.2C476.4,561.1,478.7,564.9,480.2,566.9z"/>
		<path class="st0" d="M481.8,430c-2.3,0-4.6-0.1-6.9-0.1c0-1.1,0-2.2,0-3.3c1.1,0.6,2.3,1.1,3.4,1.7
			C479.8,428.3,481.1,428.5,481.8,430z"/>
		<path class="st0" d="M803,361.7c0.7-0.7,1.3-1.3,2-2c0.4,7.2-5.1,4.9-8.8,5.3C797.6,362.2,801.6,364.5,803,361.7z"/>
	</g>
	<g>
		<path class="st0" d="M738.2,419.5c2.7,7,9.3,11.1,13,17.4c5.2,8.9,4.2,14.6-4,20.9c-9.1-7.3-17.9-14.9-28-20.8
			c-34.8-20.4-75.5-29.5-106.9-56.4c6.7,10.1,16.2,17,26.2,23.3c15.9,10.1,33.3,16.8,50.2,24.7c18,8.4,36.2,16.4,51.3,29.7
			c-19.8-3.5-24.7,2-19,21.4c0.7,2.2,1.3,4.5,1.4,6.8c1,16.8-16.6,29.3-35.6,25.8c-8.7-1.6-16.2-6.5-24.7-8.4
			c-1.1-1-2.3-1.8-3.2-2.9c-27.5-32.5-49.8-67.9-61.4-109.3c-0.6-2.9-1.1-5.8-1.7-8.7c-0.7-3-1.4-6.1-2.5-10.8
			c-1,5.5-1.6,9.1,0.7,12.6c0.5,3.6-0.7,7.4,1.9,10.6c2.2,19.7,10.1,37.5,19.4,54.6c12.5,22.9,29.3,42.5,47.6,60.8
			c-8.3,11.6-15,13.8-25.8,8.5c-7.6-3.7-12-9.9-14.2-17.9c-1.2-4.5-2.5-9-4.2-13.2c-1.6-3.8-4.8-5.6-9.1-5.5
			c-4.2,0.1-6.2,2.6-7.8,5.9c-3.5,7.3-2.1,14.8-1.4,22.3c0.8,9.1,3.3,18.6-4.1,26.5c-0.7-1.9-1.6-3.8-2.1-5.7
			c-9.7-37.3-12.5-75.3-12.1-113.6c2.8-6.4,1.1-13.1,1.3-19.6c0-3,0.9-6.1-1-10.3c-0.3,3.7-0.5,6.1-0.7,8.6c-2.7,3.4-1.4,7.3-1.4,11
			c-4.6,45.6-1.6,90.6,10.2,135c-6.5-2.7-9.9-7.5-11.1-14.6c-0.6-3.6-2.3-7.3-4.3-10.4c-2-3.1-4.9-6.5-9.4-3.9
			c-4.1,2.5-11.2,1.3-10.5,10c0.5,6.8,1.5,14-1.2,20.7c-0.1-2.9-0.4-5.8-0.4-8.7c1.5-44.3,3.5-88.5,14.2-131.7
			c2.3-3.1,2.5-6.6,2.8-11.7c-3.3,2.9-4.5,5.2-4.5,8.1c-7.5,21.3-11.6,43.2-14.7,65.5c-1.7,12.2,0.3,24.5-2.8,36.4
			c-0.1-3.2-0.4-6.4-0.3-9.6c0.1-3.8-1.3-5.7-5.3-6.5c-12.5-2.7-15.2-7.1-16-19.9c-0.7-12.4,2.7-24.2,3.8-36.3
			c1.9-6.5,5.3-12.2,9.5-17.4c7.4-9.3,14.7-18.7,22.1-28.1c1.8-2.3,3.5-4.7,5.3-7c3.7-0.1,5.7-2.5,6.9-5.7c0.6-1,1.2-2,1.8-3
			c8.6-1.6,15.1-6.2,18.4-14.3c2.9-7.1,7.9-11.2,15-13.2c5.3-1.5,10.6-3,15.9-4.5c7,0.1,14,0.2,21,0.3c0,0.6-0.1,1.2-0.1,1.8
			c-9.5,6.7-9.7,17.8-0.3,22.6c2.2,4.6,6.7,6.6,10.7,9.2c-1.2,0.6-2.4,1.1-3.5,1.7c-6.4,0.1-11.7-2.9-17.1-5.7
			c-2.9-2.3-5.8-4.7-8.7-7c0.9,4.6,3.4,7.2,6.8,8.8c16.4,12.5,35.1,11.7,54.1,10c14.7-1.4,29.4-4.9,44.3-1.3
			c-1.2,3.3,2.2,3.3,3.5,4.7c5.9,6.3,6.9,13.1,2.9,20.5c-1.5,2.8-3.5,5.3-3.4,8.7c-38.8-11.2-78.7-19-113.9-40.3
			c-2.2-2.3-4.2-4.9-8.4-5.2c2.3,3.8,4.7,6,8.1,7.1c2.6,3.7,6.7,5.6,10.3,7.9c17.1,10.9,36,17.5,55.3,23.4
			C704.5,409,722,412.1,738.2,419.5z M599,373.8c0.7,2.8,1.7,5.4,3.8,7.5c15.9,34.4,45.5,55.2,74.8,76.2c-8-9.2-16.8-17.7-25.8-25.9
			c-16.8-15.4-32.7-31.6-45.5-50.5c1.9-2.7,1.2-5.7-0.3-7.9C603.8,369.5,600.9,367.9,599,373.8z M584.6,374.1
			c0.1,3.5-3.1,6.8-1.5,11.3C586.7,381.7,585.3,377.9,584.6,374.1z"/>
		<path class="st1" d="M822.7,565.3c-0.2,19.5-0.8,39.1-0.5,58.6c0.1,7.5-2.4,9.3-9.5,9.2c-49.9-0.3-99.9,0.2-149.8-0.4
			c-12.2-0.1-20.3,3.3-24,17.1c-3.8-14.5-12.6-17.2-25-17.1c-49.4,0.6-98.7,0.3-148.1,0.1c-3.3,0-7.8,2.3-9.8-2.9
			c1.9,0.1,3.8,0.5,4.9-1.7c5.2,0.2,10.5,0.6,15.7,0.7c45.9,0.1,91.8-0.4,137.8,0.3c12.6,0.2,20.9-3.2,24.3-16.4
			c6.2,14.6,8.5,16.1,23.3,16.1c48.8,0,97.7-0.1,146.5,0.2c7.2,0,9.5-1.7,9.4-9.1c-0.4-31.9-0.1-63.8-0.3-95.6
			c0-2.9,1.6-6.6-2.2-8.7c0.8-1.3,2.1-1.4,3.5-1.5c0.6,0.1,1.2,0.1,1.9,0.2c0.6,12.2-1.9,24.5,1.4,36.5c-0.8,3-1.5,6-2.3,8.9
			C819.1,562.6,819,564.9,822.7,565.3z"/>
		<path class="st0" d="M589.4,278.8c0.2-0.2,0.5-0.3,0.6-0.6c11.8-23.1,15.6-24.6,39.3-15.1c-0.5,17,0.9,33.6,9.2,48.9
			c0.7,1.6,0.6,4.4,3.6,2c0.9,0.6,1.8,1.2,2.7,1.7c0.2,5.4,0.2,10.8,0.7,16.2c0.4,5.1-2.4,1.9-4.1,1.8c-2.8-0.9-5.7-1.7-8.5-2.6
			c-2.3-2.8-6.5,0.1-8.7-3c3.4-0.6,6.8-1.3,10.3-1.9c3.6-0.2,4.6-1.8,2.7-5c-13.4-17.2-23.3-36-26.2-58c-4,22.6,3.8,41,20,56.3
			c-0.6,0.6-1.3,1.2-1.9,1.8C610.9,311.8,598.5,296.9,589.4,278.8z"/>
		<path class="st2" d="M596.3,537.2c1.8,10.7,5.5,20.8,10.3,30.4c2.8,5.6,7,10.3,14.2,10c7.1-0.3,9.4-6.2,12-11.3
			c1.2-2.3,1.5-5,2.2-7.5c3.6-14.1,14.3-20.9,28.9-18.5c6.3,1,12.7,1.9,19,2.9c11.2,1.7,19.7-1.9,26-11.8c3.1-4.9,5-11.3,11.6-13.4
			c-3.7,8.9-8.7,17.1-15,24.2c-5.2,5.9-12.7,6.8-20.2,6.1c-8.1-0.7-16.2-2.1-24.4-2.5c-12.2-0.6-17,3.2-19.9,15
			c-1.1,4.3-2.3,8.4-4.6,12.2c-8.9,14.8-24.2,15.1-33.6,0.4c-6.1-9.5-8.3-20.5-11.9-30.9c-11.8-44.4-14.8-89.4-10.2-135
			c2.9,3.1,0.6,7,1.7,10.4c-0.5,38.4,2.3,76.4,12.1,113.6C594.8,533.5,595.6,535.3,596.3,537.2z"/>
		<path class="st3" d="M497.9,210.9c-18.6,25.4-31.8,53-36.1,84.4c-3.6,25.9-2.1,52-1.9,78c0.1,9,8.7,11.6,15.7,15.2
			c-13.8,5.6-16.1,8.7-15.9,23.1c0.2,10.2-1.2,20.4,0.8,30.5c0.3,0.2,0.6,0.4,0.8,0.6c-1.2,2.2-2.5,4.4-3.7,6.5
			c-0.6,0.6-1.1,1.2-1.7,1.8c0-13.1-0.7-26.3,0.2-39.4c0.8-11.7-3.5-19.1-17.4-23.6c17-3.7,17.5-14.6,17.3-26.8
			c-0.3-27.1-1.9-54.3,4.8-81c6.6-26.3,17.4-50.6,35.1-71.4C496.6,209.5,497.3,210.2,497.9,210.9z"/>
		<path class="st2" d="M632.9,331.3c2.8,0.9,5.7,1.7,8.6,2.6c-4.7,3.4-10.8-0.8-15.4,2.7c-5.3,1.5-10.6,3-15.9,4.5
			c-7.1,2-12.1,6.1-15,13.2c-3.3,8-9.8,12.7-18.4,14.3c-0.7-0.5-1.5-1-2-1.6c-0.6-0.7-0.7-1.6,0.7-1.7c9.6-1,12.4-8.5,15.3-15.9
			c0.8-1.7,1.5-3.3,2.3-5c1.1-0.9,2.8-2.2,1.4-3.3c-1.7-1.3-3.9-0.4-5.6,1c-15.5,1.5-28.7-4.9-41.7-12.1c-0.1-1.2-0.1-2.3-0.2-3.5
			c2.3,0.3,4.7,0.6,7,0.9c17.7,7.5,35.4,17.3,54.1,2.5c1.9-1.2,3.9-2.4,5.8-3.6c3.1-0.7,6.1-1.4,10.5-2.4
			c-15.8-7.7-26.7-18.9-34.8-33c-1.4-4.4-2.8-8.8-4.3-13.3c0.6-1.3,1.2-2.5,1.8-3.8c0.8,1.6,1.6,3.3,2.4,4.9
			c9.1,18,21.6,32.9,39.7,42.6c1.4,2.1,4.6,2.2,5.4,5c-3.4,0.6-6.8,1.3-10.3,1.9c-2.8,0.1-5.2,1.1-7.8,3
			C622.4,331.3,627.7,331.3,632.9,331.3z"/>
		<path class="st0" d="M644.8,315.9c-0.9-0.6-1.8-1.2-2.7-1.7c-0.7-1.8-1.4-3.6-2-5.4c-3.4-19.1-5.8-38.3-5.3-57.8c0.5,0,1,0,1.4,0
			c0.1,2,0.2,4,0.2,6c0,3.4,0.6,4.7,4.5,2.9c16.4-7.8,21.1-5,23.8,13.6c0.1,0.7,0.9,1.4,1.4,2C658.2,288.5,648.1,300.4,644.8,315.9z
			"/>
		<path class="st4" d="M643.3,223.2c-15-0.8-29.1,2.6-41.8,10.3c-22.4,13.6-44.7,27.3-66.4,42c-18,12.1-21.4,27.3-12.8,47.2
			c3.2,8.1,9.5,13.7,15.6,19.5c-0.6,0.6-1.3,1.2-1.9,1.8c-29.6-17.9-31.8-54.8-3.7-74.2c19.9-13.7,40.7-25.9,61.5-38.3
			c15.2-9.1,31.8-12.6,49.5-10.3C643.4,222,643.4,222.6,643.3,223.2z"/>
		<path class="st0" d="M608,329.9c-18.8,14.8-36.4,5.1-54.1-2.5c-0.4-3.2-2.6-4.9-5.2-6.2c-2.4-4-6.7-6.6-8.2-11.2
			c-2.5-7.6,0.2-11.3,8-10c2.5,0.4,5.1-2.1,7.3,0.4c10,17.4,26.2,24.7,45.1,27.6C603.3,328.4,606.2,327.1,608,329.9z"/>
		<path class="st2" d="M738.2,419.5c-16.2-7.3-33.7-10.5-50.6-15.6c-19.3-5.9-38.2-12.5-55.3-23.4c-3.7-2.3-7.7-4.2-10.3-7.9
			c0.1-0.6,0.2-1.3,0.3-1.9c35.2,21.3,75.1,29.1,113.9,40.3c11.9,6.1,24.4,10.7,34.5,20.1c12.4,11.5,17,25.2,14.2,42.1
			C783.9,442.4,764.7,427.7,738.2,419.5z"/>
		<path class="st5" d="M793,382.6c-1.7-5.8-4.6-11.3-3.8-17.6c3-2.3,4.7,0.8,7,1.8c2.4,2.4,5.7,2.7,8.8,3.5c2.3,1.2,4.7,2.3,7,3.5
			c0,0,0,0,0,0c-1.5,2.8-5.9,1.2-8,6.8c4.6-3.9,8-2.2,11.5-1.6c2.9,1.5,2,4.9,3.5,7c0.2,2.8,1.2,5.2,3.5,7l0,0
			c0.9,6.4,4.1,11.9,7.1,17.5c-1.8,2.7-4.6,1.5-7,1.8c-4.1-1.8-8.2,0.9-12.3,0c-4.2,1.2-6.8-2.2-10.1-3.5
			c-1.4-5.7-2.8-11.4-4.2-17.2c2.5-4.1,8.6-0.3,10.9-4.9C802.2,385.4,797.6,384,793,382.6z M804.7,402.5c2.2,2.5,4.5,4,7.5,1.7
			C809.5,403.6,807.1,403.1,804.7,402.5z"/>
		<path class="st6" d="M657.3,370.5c-3.9-2.6-8.4-4.6-10.7-9.2c-0.7-5.2-7.1-10.6,0.3-15.6c3,15.8,21.3,28.8,37.7,27.2
			c14.8-1.4,29.4-4.9,44.4-2.7c10,1.5,19.6,3.9,27.6,10c6.4,4.8,12.2,10.5,7.8,19.9c-0.6-0.6-1.2-1.3-1.7-1.9
			c-0.3-11-8.7-14.7-17-18.2c-3.9-1.6-8.3-2-12.5-2.9c-14.9-3.6-29.6-0.1-44.3,1.3c-19,1.7-37.7,2.5-54.1-10
			c0.6-0.6,1.2-1.2,1.9-1.8c5.4,2.8,10.7,5.8,17.1,5.7c2.9,2,5.9,2.1,10,0.6C660.9,371.9,659.1,371.2,657.3,370.5z"/>
		<path class="st6" d="M548.3,540.6c0.2-12.8,0.4-25.6,0.6-38.4c3.1-12,1.1-24.3,2.8-36.4c3-22.3,7.2-44.2,14.7-65.5
			c0.6,1.2,1.1,2.3,1.7,3.5c-10.7,43.3-12.7,87.5-14.2,131.7c-0.1,2.9,0.2,5.8,0.4,8.7c-0.1,6.1-0.2,12.1,0.8,18.1
			c1.6,9,6.4,15.2,15,18.4c-0.7,0.5-1.4,1.1-2.1,1.6c-11.2-2-15.7-10.3-17.5-20.1C549.1,555.1,549,547.8,548.3,540.6z"/>
		<path class="st7" d="M800.1,408.9c3.3,1.3,5.9,4.7,10.1,3.5c3.7,3.4,8.2,1.1,12.3,1.7c6.2-1.2,9.5,2.5,9.7,7.8
			c0.2,5.5,2.3,10.2,4.1,15.1c0.4,4.8,0.8,9.5,1.4,15.6c2.9-4.2,5-7.3,7.2-10.5c0.7,0.1,1.3,0.1,2,0.2c-0.8,3.4,3.7,4,3.6,7.1
			c-3.9-0.5-5.5,1.8-6.8,5c-2.9,7.1-6,14.2-9,21.3c-1.7,1.2-2.5,3.8-5.2,3.4c0.2-0.6,0.3-1.2,0.5-1.7c2.9-7.1,1.1-14.4,1.2-21.6
			c0.6-7.4-0.2-14.1-8.6-17c-1.2-2-3.3-2.6-5.3-3.4c-4.6-1.5-9-3.3-10.7-8.5c4.2-4.7,10.2,1.1,16.6-3.5c-8.1,0-14.2-0.9-19.7-3.9
			C801.2,416.2,800.6,412.6,800.1,408.9z M816.2,418.6c-2.7-1-4.5-1.3-6.3,0.1C811.7,419.8,813.5,419.7,816.2,418.6z"/>
		<path class="st8" d="M531.1,429.9c-15.7,21.4-27.1,44.9-29,71.6c-0.9,13.8,8.1,20.8,22.1,21.6c4.6,0.3,9.6-0.1,12,5.2
			c-3.9-1.5-7.9-2.6-12-1.9c-17.5,2.8-30.1-14.2-28-31.8c1.4-12,5.6-23.3,10.4-34.2c11.9-27,27.7-51.3,48.9-72c2-1.9,3.3-5.1,7.1-4
			c-7.4,9.4-14.7,18.8-22.1,28.1C536.4,417.7,533,423.4,531.1,429.9z"/>
		<path class="st0" d="M538,342.3c-6.1-5.8-12.4-11.4-15.6-19.5c6.2-2.6,10.8,1.4,15.9,3.6c2.9,1.2,5.8,2.3,8.7,3.5
			c13,7.2,26.2,13.7,41.7,12.1c1.6,0.3,3.2,0.6,4.1,2.3c-0.8,1.7-1.5,3.3-2.3,5c-9.8,1.9-19.6,4.5-29.7,3.3c-0.9-1.3-2.3-2-3.6-1.3
			c-1.7,1,0.6,2.4,0.1,3.6c-3.5-1.5-6.6-3.9-10.7-4.1C546.7,345.2,541,345.1,538,342.3z"/>
		<path class="st6" d="M757.6,475.6c-5.7-6-10.7-12.7-17.6-17.5c-15.1-13.3-33.3-21.3-51.3-29.7c-16.9-7.9-34.4-14.6-50.2-24.7
			c-10-6.3-19.4-13.2-26.2-23.3c31.4,27,72.2,36,106.9,56.4c10.1,6,18.9,13.5,28,20.8c4.1,5.3,9.2,9.8,12.3,15.8
			C758.9,474.3,758.2,475,757.6,475.6z"/>
		<path class="st5" d="M911.9,427.9c-7.9,7-14.2,16-24.6,19.8c-3.3,1.2-6.6,2-10.1,1.8c-5.3-0.2-10.6-0.3-15.9-0.5
			c-2.4-2.8-4.8-5.6-7.2-8.4c0-0.6,0-1.2,0.1-1.8c0.6-0.6,1.2-1.2,1.7-1.8c1.2,1.2,2.3,2.3,3.5,3.5c0.3,3.6,2.2,5.6,5.4,6.8
			c3-6.6-2.7-5.4-5.5-6.8c-0.3-2.6,0.6-4.8,1.8-7c0.6-0.6,1.2-1.2,1.8-1.7c1.8,0.6,3.5,1.2,5.3,1.7c2.3,1.9-3.2,5.8,1.8,7
			c1.8,2.9,3.8,5.5,8.3,7.1c-1.5-2.5-2.3-3.9-3.1-5.4c3.1,0.1,2.7-1.6,1.8-3.6c1.8,0.6,3.5,1.2,5.3,1.8c1.9,3.9,4.5,3.6,7.8,0.8
			c-2.1-1.5-4.1-2.9-6-4.3c-2.9-0.5-4.6-7.3-8.8-1.7c-1.8-1.8-3.5-3.5-5.3-5.3c0-4.2,5.5-0.1,5.1-2.9c-0.9-6.2,4.4-10.7,3.5-16.7
			c0.8-1.7,2.2-1.5,3.7-1.4c0,1.7,0,3.5,0,5.2c-1.5,5-7.6,9.9,0.6,15.5c-3.8-4-1.3-6.2,1.2-8.5c1.9,0,4,0.3,5.2-1.8
			c1.8,0,3.5,0,5.3,0c2.6,3.9,5.7,6.2,10.5,3.6C905,427.9,910.2,425.4,911.9,427.9z"/>
		<path class="st9" d="M777,203.3c23.3,25.5,36.5,55.9,42.1,89.7c4.2,24.9,2.8,50.1,2.9,75.2c0,4.4,0,8.8,2.5,12.7
			c-0.7,0-1.3,0-2,0.1c-2.8-3-4.8-6.8-8.9-8.6c0.1-0.7,0.1-1.4,0.2-2.1c3.6,1,3.9-1.3,3.9-3.8c0.2-39,2.2-78.1-14.5-115.1
			c-7.5-16.6-17.3-31.6-28.2-45.9C775.7,204.6,776.3,203.9,777,203.3z"/>
		<path class="st10" d="M489.4,440.6c-2,7-4,14-6,20.9c-2.3,0-4.5,0-7.4,0c2,2.6,5.2,1.3,6.2,3.9c-0.2,1-0.3,2.1-0.5,3.1
			c-2.7,2-6.6,1.5-9.3,4.8c1.7,0.2,3,0.4,4.3,0.6c-3,1-4.8,5.1-8.8,3.4c-4.1-1.7-8.2-1.7-12.3,0c-1.2,0.6-2.4,1.2-3.5,1.8
			c0.6-3.6,1.2-7.1,1.8-10.7c1.3-1.1,2.4-2.7,3.9-3.1c8-2.3-2.6-2.3-0.4-3.8c8.6,0.1,3.8-5.3,3.5-8.8c0,0,0,0,0,0
			c4.5-0.7,2.2-4.8,3.5-7l0,0c1.2-0.6,2.3-1.2,3.5-1.8c0.6-0.6,1.2-1.1,1.8-1.7c2.3-0.9,6.1,4.3,7-1.8l0,0
			C480.9,443.8,485.1,441.1,489.4,440.6z M476.6,454.6c1.7-0.4,3.8,0.9,5.8-1.5c-3.5-0.3-5.9-3-9.5-1.5
			C474.2,452.6,475.4,453.6,476.6,454.6c-2.3,0.4-4.8-0.8-7.3,1C472.3,456.7,474.6,456.9,476.6,454.6z"/>
		<path class="st7" d="M446.7,544.1c-3.5-9.2-7.1-18.4-10.6-27.7c1.2-1.9,2.3-0.8,3.5,0c0.9,0.7,2,1.5,3,0.3
			c1.2-1.4-0.1-2.6-0.8-3.8c1.8-0.8,1.5-2.6,1.9-4c2.2-2.1,0.9-5.1,1.7-7.4c1.9-5.3,1-11.8,6.7-15.4c3.6-0.6,7.1-1.2,10.7-1.7
			c3.5,0,7,0,10.5,0c-1.8,1.2-3.5,2.3-5.3,3.5c-5.2,0-10.4,0-15.6,0c5.2,1.3,10.2,4.6,15.6,1.7c2.5,0.3,4.7-0.4,6.8-1.7
			c1,6.1-3.5,8.5-7.6,10.9c-2.6,1.6-5.9,2.2-7.8,4.9c-1.5,0-2.9,0.1-3.7,1.6c-4.2,1.8-6,4.7-5.7,9.6c0.6,9.6,0.7,19.3,1,28.9
			C449.5,544,448.1,544,446.7,544.1z"/>
		<path class="st11" d="M829.4,479.1c2.7,0.4,3.5-2.3,5.2-3.4c-0.8,3.1,1.2,4.4,3.7,5.3c-1.5,2.7-5.5,0.6-7,3.5
			c-5.4-1.8-3.6,2.2-3,4.2c2,7,4.4,13.9,6.6,20.8c-1.1,1.2-2.3,2.4-3.4,3.5c-0.5-0.9-0.9-1.8-1.4-2.7c-0.9,1-1.8,1.9-2.6,2.9
			c-1.6,0.4-3.3,0.8-4.9,1.2c-0.6-0.1-1.2-0.1-1.7,0.1c-0.6-0.1-1.2-0.1-1.9-0.2c-4.2-6.3-5.1-14.4-11.9-22c2,9.4,3.5,16.5,4.9,23.6
			c-1.7,0-3.5-0.1-5.2-0.1c1.5-2.4,0.8-4-1.8-4.9c-1.3-3.5,2.8-8.7-3.5-10.5c1-1.9,3.8-2.7,3.4-5.4c-0.6-1.1-1.2-2.3-1.7-3.4
			c5.7-0.7,10.5-2.6,12.3-8.8c2.2-0.2,4.8,0.6,5.7-2.5c-1.3-0.3-2.7-0.7-4-1c-1.9-2.3,1.9-1.8,1.6-3.4c1.1,0.6,2.2,1.1,3.4,1.7
			C824.6,478,827,478.6,829.4,479.1z M819.3,487.9c0.8,2,1.6,4,2.8,6.8C824.1,490.8,822.4,489.1,819.3,487.9z"/>
		<path class="st12" d="M390.5,510.8c-9.9-2.4-14-11.6-21.1-17.4c4.6-4,11-4.1,15.9-7.3c3.5-2.9,7-0.5,10.5,0c0,0,0,0,0,0
			c0.7,1.4,2.1,1.7,3.5,1.9c-0.4,7.3,3.1,2.4,5.3,1.7c0,0.6,0,1.2,0,1.7c-1.2,2.9-2.4,5.8-3.5,8.8c-2.1,0.2-4.5,0.8-4.5,3
			c-0.1,3,2.7,2,4.5,2.2c0.3,2.8-2.4,3.5-3.5,5.3C395.3,510.8,392.9,510.8,390.5,510.8z"/>
		<path class="st0" d="M589.5,290.9c8.1,14.1,19.1,25.3,34.8,33c-4.4,1-7.4,1.7-10.5,2.4c-12.9-3.4-26-6-37.3-13.6
			C586.4,310.6,588.5,306.9,589.5,290.9z"/>
		<path class="st3" d="M653.7,315.8c5.9-13.6,15.7-24.5,25.5-35.3c8.3-9.2,19.3-17.6,9.7-32.9c8.9,6.7,10.2,15.6,4.4,24.9
			c-5,8-11.6,14.6-17.9,21.5c-10.7,11.9-19.7,24.6-21.7,41.1c-2.6-2.6-0.9-5.9-1.6-8.9c0-1.1,0-2.3-0.1-3.4
			C652.6,320.4,653.1,318.1,653.7,315.8z"/>
		<path class="st13" d="M644.8,315.9c3.2-15.5,13.4-27.4,21.2-40.5c4.6-6.9,7.8-14.3,9.2-22.5c3.2,2.4,0.7,6,1.8,8.8
			c-1.3,9.6-6.5,17.4-11.2,25.4c-4.9,8.3-10.8,15.9-13.7,25.3c-2,1.8-1.8,4.3-2.1,6.6c-2.7,5.1-1.1,10.6-1.3,15.9
			c-0.6,0.7-1.2,1.4-1.9,2c-7-0.1-14-0.2-21-0.3c4.7-3.5,10.7,0.7,15.4-2.7c1.6,0,4.5,3.3,4.1-1.8C645,326.7,645,321.3,644.8,315.9z
			"/>
		<path class="st14" d="M676.8,361.7c13.4-13.1,19.8-29.4,17.2-47.7c-1.6-11.2-0.4-20.5,5.9-29.5c0.5-0.1,1-0.2,1.5-0.3
			c0,1.3,0.1,2.6,0.1,3.9c-4.1,8.6-3,17.1-1.2,26.3c3.6,18.3-4.9,33.4-15.8,47.2c-3,3.8-7.9,4.8-12.8,3.3
			C673.4,363.7,675.1,362.7,676.8,361.7z"/>
		<path class="st15" d="M905,423c-4.8,2.6-8,0.4-10.5-3.6c0.6-1.2,1.1-2.3,1.7-3.5c1.2-6,5.2-5.2,9.6-2.9c-0.3-3.2-0.6-5.4-0.8-7.7
			c0-0.5,0-1,0-1.4c4-0.2,8-0.7,12-0.5c3.8,0.2,8.9-1.7,10.5,3.2c1.4,4.3-1,8.3-4.8,11.1c-1.7-0.3-3.7-1.3-5.1-0.8
			c-2.3,0.8-5.5-1.9-7,1.7c-1.8,4.6,3.6,3.5,4.7,5.9l0,0C911.9,424.8,908.3,425.1,905,423z"/>
		<path class="st8" d="M639.4,164.1c-3.6-9.3-7.8-15.7-18.9-17.9c9.9-4.3,15.7-9.6,18.5-18.8c2.6,9.2,7.6,14.8,17.4,17.7
			C648,149.4,640.7,153.2,639.4,164.1z"/>
		<path class="st16" d="M460.9,628.3c-1,2.2-3,1.8-4.9,1.7c-7.9-17.3-7-35.9-7.8-54.2c1.2,0.6,2.5,1.2,3.7,1.8
			c0,1.9-0.3,3.8,1.5,5.2c0.2,1.6,0.4,3.3,0.7,4.9c-0.5,3.6,0.3,6.6,3.2,9c-2.8,5.2-0.6,9.7,1.8,14.2
			C459.7,616.7,460.3,622.5,460.9,628.3z"/>
		<path class="st17" d="M576.5,312.7c11.3,7.6,24.5,10.2,37.3,13.6c-1.9,1.2-3.9,2.4-5.8,3.6c-1.8-2.8-4.7-1.5-7.2-1.9
			c-18.9-2.9-35.1-10.2-45.1-27.6C563.8,302.5,568.6,310.2,576.5,312.7z"/>
		<path class="st18" d="M827.5,513.1c0.9-1,1.8-1.9,2.6-2.9c0.5,0.9,0.9,1.8,1.4,2.7c-0.1,14.4,1,28.8-3.8,42.8
			c-1.2,3.4-1.5,7.4-5.1,9.6c-3.7-0.5-3.6-2.8-2.8-5.5c0.9-2.9,1.6-5.9,2.3-8.9c0.6-4.1,1.2-8.2,1.8-12.3
			C825.2,530.1,826.3,521.6,827.5,513.1z"/>
		<path class="st13" d="M634.7,250.9c-0.4,19.5,1.9,38.7,5.3,57.8c-0.5,1.1-1,2.3-1.5,3.4c-8.3-15.3-9.7-31.9-9.2-48.9
			c1.2-4.1,2.4-8.1,3.7-12.2C633.6,251,634.2,250.9,634.7,250.9z"/>
		<path class="st15" d="M385.4,486.2c-5,3.2-11.3,3.3-15.9,7.3c-1.7-1.4-3.3-2.8-5-4.2c2.3-1.6,6.8-2.1,3.4-6.6
			c-1.2-1.2-2.3-2.3-3.5-3.5c1.2-0.6,2.4-1.2,3.6-1.8c1.9-0.4,4.1,2.1,5.7,0c2.5-3.5-1.5-5.7-2.2-8.6c3.6,0,7.3-0.7,10.6,1.3
			c0.6,3,1.1,6.1,1.7,9.1C384.2,481.5,384.8,483.8,385.4,486.2z"/>
		<path class="st15" d="M397.6,510.7c1.1-1.8,3.8-2.6,3.5-5.3c0.5-1.7,2.8-3.5,0-5.2c1.2-2.9,2.4-5.8,3.5-8.8
			c2.5,1.9,1.5,4.6,1.7,7.1c-1.6,2.4,1,2.1,1.8,2.4c2,0.7,2.8-0.9,3.5-2.4c1.2,0,2.3,0,3.5,0c3.9-0.3,4.7,3.5,7,5.3
			c-2,4.1-5.6,6.9-8.7,10.1c-3.1,0.2-6.3,0.5-9.4,0.7c-1-0.2-2-0.3-3-0.5C400,513,398.8,511.8,397.6,510.7z"/>
		<path class="st19" d="M443.3,573.5c-11-5.3-13.3-9.5-10.2-18.8c1.7,0.1,2.6,4,4.9,1.4c2.5-2.9-1-4.6-1.8-6.8
			c1.5-2.8,4-3.7,7.1-3.4c3.8,1.7,0.6,7.6,5.3,8.8C445.9,560.7,444.2,567,443.3,573.5z"/>
		<path class="st20" d="M453.4,582.8c-1.7-1.4-1.4-3.4-1.5-5.2c0-0.6,0.1-1.2,0.1-1.9c2.5,1.1,4.9,2.4,5.3-2.2
			c0.4-4.1-0.9-7.9-1.8-11.8c0.2-0.2,0.3-0.5,0.5-0.7c0.2-0.2,0.6-0.5,0.7-0.5c3.2,1.9,0.9,6.1,4.3,9.4c0.5-6.6,2.1-12,5-17
			c2.5,0,5.1-0.1,5.3,3.4c0,0.6,0,1.2,0,1.8c0.9,6.7-6.9,10.7-5.3,17.6c-1.3,1.2-2.5,2.5-3.8,3.7l-0.5,0.2c0,0-0.5-0.2-0.5-0.2
			c-1.3,0-2.7-0.1-4-0.1c-0.5-0.1-1.1-0.1-1.6-0.1C452.7,579.1,453.8,581.4,453.4,582.8z"/>
		<path class="st21" d="M406.4,498.5c-0.2-2.4,0.8-5.2-1.7-7.1c0-0.6,0-1.2,0-1.7c1.2-0.6,1.2-1.2,0-1.8c0.5-4.6-2.8-7.9-3.9-12
			c0.2-0.3,0.5-0.5,0.9-0.6c6.9,2.6,13.8,5.2,18.7,11c-0.4,4.6-7.4,6.4-5.2,12.1c-1.2,0-2.3,0-3.5,0
			C409.9,496.4,408.2,499.1,406.4,498.5z"/>
		<path class="st22" d="M777,203.3c-0.7,0.7-1.3,1.4-2,2.1c-15.1-17-33-30.7-52.5-42.3c0.8-0.6,1.6-1.3,2.3-1.9
			C745.4,171.2,762.5,185.6,777,203.3z"/>
		<path class="st23" d="M905,405.4c0.2,2.3,0.5,4.5,0.8,7.7c-4.4-2.4-8.4-3.1-9.6,2.9c-2.8,0.3-5.2,1.2-7,3.5
			c-1.2,2.1-3.3,1.7-5.2,1.8c-2.6-1.8-1.5-4.6-1.8-7c0-1.7,0-3.5,0-5.2c4.7-3,9.9-3.6,15.3-3.7C900,405,902.4,409.5,905,405.4z"/>
		<path class="st24" d="M466.1,552.9c-2.9,5-4.5,10.4-5,17c-3.4-3.2-1.1-7.5-4.3-9.4c-0.1-0.1-0.5,0.3-0.7,0.5
			c-0.2,0.2-0.3,0.5-0.5,0.7c-2.3,4.4,0,9.9-3.5,14c0,0.6-0.1,1.2-0.1,1.9c-1.2-0.6-2.5-1.2-3.7-1.8c-1.1-0.6-2.2-1.2-3.3-1.8
			c5.1-6.8,3.7-16.2,8.9-22.9c0.3,1.3,0.5,2.5,0.8,3.8c0.8-1.1,2.2-2.2,2.1-3.2c-0.2-2.6-1.9-0.6-2.9-0.6c0-1.2,0-2.3,0-3.5l0,0
			c2.6-0.3,4.8,0.6,7,1.8c0,0.6,0,1.1,0,1.7c-1.5,1-3.1,3.1-2,4.1c1.8,1.5,2.1-2,3.7-2.3C463.8,552.9,464.9,552.9,466.1,552.9
			L466.1,552.9z"/>
		<path class="st16" d="M474.7,488c-2.1,1.3-4.3,2-6.8,1.7c0-0.6,0-1.2,0-1.7c1.8-1.2,3.5-2.3,5.3-3.5c0.1-0.3,0.3-0.5,0.3-0.8
			c0-0.2-0.2-0.7-0.4-0.7c-3.6-0.1-7.3-1.6-10.5,1.4c-3.6,0.6-7.1,1.2-10.7,1.7c-1.4-2.2-5.4-1.9-5.5-5.5c0,0,0.1,0.1,0.1,0.1
			c1.8-0.5,3.7-1.1,5.5-1.6c1.2-0.6,2.4-1.2,3.5-1.8c4.1,2.8,8.2,2.7,12.3,0c4,1.6,5.8-2.5,8.8-3.4c1.3-0.6,2.5-1.2,3.8-1.8
			C480.3,478.1,479,483.6,474.7,488z"/>
		<path class="st21" d="M868.1,433.5c-1.8-0.6-3.5-1.2-5.3-1.7c-0.9-3.2-1-6.8-4-9c4.8-7,12.5-9.1,19.6-12.4
			c0.8,5.9-4.5,10.5-3.5,16.7c0.4,2.8-5.2-1.3-5.1,2.9C868.5,430.7,868.2,432.1,868.1,433.5z M867.3,427c1.4-1.7,0.6-3-0.6-4.2
			c-0.2-0.2-1.3,0-1.3,0.1C865,424.6,865.9,425.9,867.3,427z"/>
		<path class="st25" d="M822.2,477.5c-1.1-0.6-2.2-1.1-3.3-1.7c-1.1-0.5-2.2-1-3.3-1.5c3.4-1.4,2.3-4.4,2.3-6.8
			c-0.3-10.7,0.9-21.5-0.7-32.1c2,0.8,4.1,1.5,5.3,3.4C821.3,451.7,821.8,464.6,822.2,477.5z"/>
		<path class="st26" d="M497.9,210.9c-0.7-0.7-1.3-1.4-2-2.1c11.1-14.8,24.1-27.5,40-37.1c0.7,0.7,1.5,1.3,2.2,2
			C523.4,184.7,509.7,196.8,497.9,210.9z"/>
		<path class="st27" d="M831.3,484.5c1.5-2.9,5.5-0.7,7-3.5c7.4,0.7,8.9,6.7,10.3,12.2c1.5,5.8-1.6,9.9-6.7,12.7
			c-0.4-2.5,0.8-5.4-1.8-7.3c-0.3-2.8-1.2-5.3-3.5-7.1c0-2.6,0.1-5.1-3.6-5.3C832.4,485.6,831.9,485,831.3,484.5z"/>
		<path class="st28" d="M564.4,356.1c0.7,3.3-2.4,2.6-3.8,3.4c-3.3,1.7-6.5,3.5-5.5,7.7c0.9,4,4.2,5.2,8.1,5.1
			c2-0.1,4.2-0.8,5.3,1.7c-1.8,0.8-3.6,1.8-5.5,2.4c-6.1,2-11.1,0-13.5-5.8c-3.3-7.7,1.9-11.6,8-14.6
			C559.7,356,562.1,356,564.4,356.1z"/>
		<path class="st29" d="M724.8,161.1c-0.8,0.6-1.6,1.3-2.3,1.9c-14.6-6.5-29.6-12.3-44.7-17.6C694.8,146.6,710.3,152.4,724.8,161.1z
			"/>
		<path class="st29" d="M552.1,161.4c15-8.2,30.6-14.5,47.9-16.1c-16.5,4.8-31.5,13-47.8,18.2C552.2,162.8,552.2,162.1,552.1,161.4z
			"/>
		<path class="st30" d="M367.8,477.4c-1.2,0.6-2.4,1.2-3.6,1.8c-1.3,0.2-3.9,0-3.5,0.9c1.2,2.9,3.4,5.2,7,2.6c3.4,4.5-1,5-3.4,6.6
			c-4.2-2.3-7.2-5.8-9.7-9.7c-4.9-7.6-3.4-10,6.1-10.8c-1.6,6.3,4.2,5.1,7,6.9C367.8,476.2,367.8,476.8,367.8,477.4z"/>
		<path class="st31" d="M462.6,540.6c11.1-5.3,16.2-4.1,22.3,5.3c-4.7-0.3-9.2,4.3-14.1,0.5c-0.1-0.1-1.9,1.9-2.9,2.9
			c-0.6-0.6-1.2-1.2-1.7-1.8c-1.8-1.2-3.5-2.3-5.3-3.5C463.9,544.2,463.5,542.5,462.6,540.6z"/>
		<path class="st32" d="M469.6,442.3c-0.6,0.6-1.2,1.1-1.8,1.7c1.4-4.7-2.8-4-5-5.2c1.6-3.3,3.4-6.6,6.4-9c1.3,1.2,2.6,2.5,3.9,3.7
			c3.9,1.9,7.5,1.6,10.6-1.8c1.9-0.1,4,0.3,5.3-1.8c2,1.3,1.5,3.5,1.8,5.4l-0.1-0.1c-4.7,1.8-9.4,3.5-14,5.3c0,0,0,0,0,0
			C474.2,440.8,471.5,439.7,469.6,442.3z"/>
		<path class="st7" d="M815.5,482.7c-1.8,6.2-6.6,8.1-12.3,8.8c0,0,0,0,0,0c-2.5-2.9-5.8-1.2-8.8-1.8c-0.5-0.6-0.9-1.1-1.4-1.7
			c-1-3.2,1.5-5,3-7.2c3,0,6,0.1,9,0.1c0,0,0,0,0,0c-0.6,0.7-1.4,1.2-1.6,2c-0.6,2.1,1.2,1.4,1.9,1.2c2.7-1.2,5.6-1.6,8.5-1.4
			C814.3,482.7,814.9,482.7,815.5,482.7z"/>
		<path class="st18" d="M467.9,549.4c1-1,2.7-3,2.9-2.9c4.9,3.8,9.4-0.8,14.1-0.5c1.6,2.7,2.8,5.5,2.3,8.7c-2.9,0.5-6.3-1.2-8.8,1.8
			c0,0.5,0,1.1,0,1.6c-2.3-0.6-4.7-1.2-7-1.8c-0.2-3.6-2.8-3.4-5.3-3.4c0,0,0,0,0,0C465.9,551.3,469.7,551.7,467.9,549.4z"/>
		<path class="st2" d="M455.6,505.4c0.8-1.5,2.2-1.6,3.7-1.6c1.5,12.4-1.2,24.9,1.5,37.2c-1.8,1-3.7,1.9-5.5,2.9
			C457,531.1,456.3,518.3,455.6,505.4z"/>
		<path class="st33" d="M471.4,556.3c2.3,0.6,4.7,1.2,7,1.8c2,0.1,3.9,0.3,5.8,1.4c3.7,2.1,2.5-1,2.5-2.7c0.2-0.2,0.5-0.4,0.7-0.6
			c1.5,3.7,1.4,7.4,0,11.1c-1.7-2.4-3.5-2.8-5.5-0.4c-0.6,0-1.2,0-1.7,0c-1.5-2-3.7-5.8-4.1,0.1c-0.2,3.8-2.8,3.7-4.7,5.2l0,0
			c-1.8-4.7,4.6-9.4,0-14.1C471.4,557.5,471.4,556.9,471.4,556.3z"/>
		<path class="st34" d="M415.2,498.4c-2.2-5.7,4.8-7.5,5.2-12.1c3.8,2.7,6.3,6.5,8.6,10.5c-2.2,1.9-1.3,4.6-1.5,6.9l0,0
			c-3-1.5-0.5-5.2-3.1-7.3c-1,2.6,0.4,5.6-2.2,7.3C419.9,502,419.1,498.1,415.2,498.4z"/>
		<path class="st35" d="M815.5,474.3c1.1,0.5,2.2,1,3.3,1.5c0.3,1.5-3.5,1.1-1.6,3.4c-0.8,1.4-2.1,1.7-3.5,1.8c-2.9,0-5.9,0-8.8,0
			c0,0,0,0,0,0c-1.5-2.8-5.5-0.6-7-3.4C803,472.2,808.9,471,815.5,474.3z"/>
		<path class="st36" d="M804.9,494.8c0.4,2.8-2.4,3.5-3.4,5.4c-0.4,4.3,1.2,8.3,2.3,12.3c0.4-0.3,0.8-0.6,1.1-1
			c0.2-0.2,0.1-0.6,0.2-0.8c2.5,0.9,3.3,2.5,1.8,4.9c-2.5,0.1-5,0.4-7.2-1.2c-0.2-6.2,0.1-12.7-6.9-16c0-0.6,0-1.2,0-1.8
			C796.8,496.1,800.8,495.5,804.9,494.8z"/>
		<path class="st37" d="M812,515.8c-1.5-7.1-3-14.1-4.9-23.6c6.8,7.6,7.7,15.7,11.9,22c-1.4,0-2.7,0.2-3.5,1.5
			C814.3,515.7,813.1,515.7,812,515.8z"/>
		<path class="st38" d="M474.9,423.3c4.6-3.1,9.2-6.1,13.8-9.2c4.2,3.7,1,6.2-1.5,8.8c-2.2,3.1-7.6,0.8-8.8,5.4
			c-1.1-0.6-2.3-1.1-3.4-1.7C474.9,425.5,474.9,424.4,474.9,423.3z"/>
		<path class="st39" d="M831.3,484.5c0.6,0.6,1.1,1.1,1.7,1.7c0.4,2.7-1.2,6.5,3.5,7c0,2.4,0,4.8,0.1,7.2c0,2.8-0.1,5.7-0.1,8.5
			c-0.4,0.4-1,0.6-1.6,0.5c-2.2-6.9-4.6-13.8-6.6-20.8C827.7,486.7,825.8,482.6,831.3,484.5z"/>
		<path class="st40" d="M836.4,437c-1.9-4.9-3.9-9.5-4.1-15.1c-0.2-5.3-3.5-8.9-9.7-7.8c0-0.6,0-1.1,0-1.7c2.4-0.3,5.2,0.8,7-1.8
			c1.1-1.9,2.2-0.1,3.3,0C835.6,419.2,837,428,836.4,437z"/>
		<path class="st41" d="M646.9,345.8c-7.4,5.1-1,10.4-0.3,15.6c-9.4-4.8-9.3-15.9,0.3-22.6c0.5,1.2,1,2.3,1.5,3.5
			C647.9,343.4,647.4,344.6,646.9,345.8z"/>
		<path class="st39" d="M453.8,547.6c0,1.2,0,2.3,0,3.5l0,0c-5.2,6.8-3.8,16.1-8.9,22.9c-0.6,0.1-1.2-0.1-1.6-0.5
			c0.9-6.5,2.6-12.8,5.2-18.9C449.2,551.5,449.7,548.2,453.8,547.6z"/>
		<path class="st42" d="M822.5,380.8c0.7,0,1.3,0,2-0.1c4,2.6,8.1,5.1,12.3,7.8c-3.1,2.2-7.7,2.1-9.2,6.3c-0.5,0-0.9,0-1.4,0
			C826.9,389.7,823.2,385.7,822.5,380.8z"/>
		<path class="st43" d="M441.7,513c0.7,1.2,1.9,2.4,0.8,3.8c-1,1.2-2.1,0.3-3-0.3c-1.2-0.9-2.3-1.9-3.5,0c-1.6-0.7-3.3-1.4-4.9-2.1
			c-2.2-1.7,0.5-3.6-0.1-5.3c2.1-1.4,1.7-3.6,1.9-5.6C437.5,505.1,437,511.4,441.7,513z"/>
		<path class="st44" d="M460.9,452.8c0.2,3.5,5,8.8-3.5,8.8c-1.9,0.6-3.8,1.1-5.7,1.7c1.4-4.1,2.9-8.2,4.3-12.2
			c0.6-0.6,1.1-1.2,1.7-1.8C458.7,450.4,459.8,451.6,460.9,452.8z"/>
		<path class="st36" d="M431,509c0.6,1.8-2.1,3.6,0.1,5.3c-9,2-18,1.6-27,0.2c3.1-0.2,6.3-0.5,9.4-0.7c6.2,1,10.8-1.3,14-6.5
			C428.7,507.9,429.9,508.4,431,509z"/>
		<path class="st45" d="M648.4,342.3c-0.5-1.2-1-2.3-1.5-3.5c0-0.6,0.1-1.2,0.1-1.8c0.6-0.7,1.2-1.4,1.9-2c3.1-2.2,0.5-6.4,3.2-8.7
			c0.7,2.9-1,6.3,1.6,8.9c0,4.2,0,8.4,0,12.8C650.4,347,650.2,343.8,648.4,342.3z"/>
		<path class="st19" d="M804.9,370.3c-3.1-0.8-6.3-1.1-8.8-3.5c0-0.6,0-1.2,0-1.8c3.7-0.5,9.2,1.9,8.8-5.3c0-0.6,0-1.2,0-1.8
			c3.3,1.4,5.2,4,6.6,7.2c-0.4,0-0.8,0-1.2,0C806.6,364.8,809,370.9,804.9,370.3z"/>
		<path class="st7" d="M792.7,498.5c7,3.3,6.7,9.8,6.9,16C789.5,512.5,793.5,504.5,792.7,498.5z"/>
		<path class="st46" d="M453.8,547.6c-4.2,0.5-4.6,3.8-5.3,7c-4.6-1.2-1.5-7.1-5.3-8.8c1.1-0.6,2.3-1.2,3.4-1.8
			c1.4-0.1,2.8-0.1,4.2-0.2c1.5,0,2.9,0,4.4,0c1.8-1,3.7-1.9,5.5-2.9c0.6-0.2,1.2-0.3,1.8-0.5c0.9,1.9,1.3,3.6-1.8,3.5
			C458.5,545.3,456.2,546.5,453.8,547.6C453.8,547.6,453.8,547.6,453.8,547.6z"/>
		<path class="st7" d="M383.6,479.2c-0.6-3-1.1-6.1-1.7-9.1c2.8-0.7,4.9,0.9,7,2.4c0.6,0.5,1.1,1,1.7,1.4c-0.9,2.8,2.8,5.9,0.3,8
			C388.1,484.2,386.2,480,383.6,479.2z"/>
		<path class="st47" d="M826.2,394.9c0.5,0,0.9,0,1.4,0c1.7,5.3,3.5,10.5,5.2,15.8c-1.1-0.2-2.2-1.9-3.3,0
			c-2.9-5.6-6.1-11.1-7.1-17.5C823.7,393.7,825,394.3,826.2,394.9z"/>
		<path class="st48" d="M446.5,480.7c0,3.6,4,3.3,5.5,5.5c-5.8,3.6-4.8,10.2-6.7,15.4c-0.9,2.3,0.5,5.3-1.7,7.4
			C443.1,499.4,444.3,490,446.5,480.7z"/>
		<path class="st49" d="M390.6,473.9c-0.6-0.5-1.1-1-1.7-1.4c4.8-1.5,8.9,0,12.8,2.9c-0.4,0.1-0.7,0.3-0.9,0.6
			c-2.8,2.4-0.4,4.6,0.3,6.8c-1.8,1-2.5,3.8-5.3,3.5c0,0,0,0,0,0C395.5,481.5,396.6,476.2,390.6,473.9z"/>
		<path class="st50" d="M861.3,449c5.3,0.2,10.6,0.3,15.9,0.5c-8.9,1.7-17.8,1.8-26.7-0.1c0.2-3-4.4-3.7-3.6-7.1c1.2,0,2.4,0,3.7,0
			C853.1,446.2,855.2,450.7,861.3,449z"/>
		<path class="st51" d="M462.2,579.4c1.3-1.2,2.5-2.5,3.8-3.7c0.5,2.3,1.3,4.3,3.3,1c0.8-1.4,0.3-3.5,2-4.5c0,0,0,0,0,0
			c3.3,2.4,3.9,8.9,10.2,6.7l0.3,0.4C475.4,581.9,468.8,581.5,462.2,579.4z"/>
		<path class="st23" d="M789.2,358c0-3.1,0-6.3,0-9.5c3.1-0.6,4.9,1.3,7,2.8c-0.2,2.5,0.7,4.6,1.8,6.7
			C795,360.5,792.1,358.3,789.2,358z"/>
		<path class="st52" d="M452.1,479.2c-1.8,0.5-3.7,1.1-5.5,1.6c-0.4-5.7,2.3-10.5,4.1-15.6c2.1,0.1,3.1,1.3,3.2,3.3
			C453.2,472.1,452.6,475.6,452.1,479.2z"/>
		<path class="st53" d="M858.9,422.7c3,2.3,3.1,5.8,4,9c-0.6,0.6-1.2,1.2-1.8,1.7c-2.5,0-4.3,1.2-5.3,3.5c-0.6,0.6-1.2,1.2-1.7,1.8
			c0,0,0,0,0,0c0.6-3.9,1.2-7.8,1.8-11.7C856.9,425.6,857.9,424.2,858.9,422.7z"/>
		<path class="st54" d="M480.2,566.9c0.6,0,1.2,0,1.7,0c0,3.4,2.9,3.9,5,5.2c0.5,3.9,0,7.1-5,7c0,0-0.3-0.4-0.3-0.4
			c0.1-1.4,0.8-3.4,0.1-4.3C478.8,571,478.6,571.2,480.2,566.9z"/>
		<path class="st55" d="M457.2,579.3c1.3,0,2.7,0.1,4,0.1c-3.8,10.3-0.1,21-2.1,31.4c-2.4-4.5-4.6-9-1.8-14.2
			C457.3,590.9,457.2,585.1,457.2,579.3z"/>
		<path class="st18" d="M789.2,358c2.9,0.3,5.8,2.4,8.8,0c1.7,1.2,3.4,2.4,5.1,3.6c-1.5,2.8-5.4,0.5-6.9,3.4c0,0.6,0,1.2,0,1.8
			c-2.2-0.9-3.9-4-7-1.8C789.2,362.7,789.2,360.4,789.2,358z"/>
		<path class="st53" d="M793,382.6c4.6,1.4,9.2,2.8,13.8,4.2c-2.3,4.6-8.4,0.9-10.9,4.9C794,389,793.5,385.8,793,382.6z"/>
		<path class="st56" d="M915.5,424.7c-1.1-2.4-6.5-1.3-4.7-5.9c1.4-3.6,4.7-0.9,7-1.7c1.4-0.5,3.3,0.5,5.1,0.8
			C921.1,420.9,918.5,423,915.5,424.7z"/>
		<path class="st57" d="M487.2,422.9c2.5-2.6,5.7-5.1,1.5-8.8c2-2,3.1-0.8,3.2,1.2c0,6.7,1.7,13.5-1.1,20.1
			c-0.3-1.9,0.2-4.1-1.8-5.4C485.7,428.3,493.9,423.7,487.2,422.9z"/>
		<path class="st33" d="M803.3,419.4c5.5,3.1,11.6,3.9,19.7,3.9c-6.3,4.6-12.4-1.2-16.6,3.5C804.4,424.8,803.5,422.3,803.3,419.4z"
			/>
		<path class="st58" d="M552.1,161.4c0,0.7,0.1,1.4,0.1,2.1c-4.1,4.2-9.1,7.2-14.2,10.2c-0.7-0.7-1.5-1.3-2.2-2
			C540.8,167.4,546,163.6,552.1,161.4z"/>
		<path class="st59" d="M476.7,440.5c4.7-1.8,9.4-3.5,14-5.3c0.1,1.9,0.3,3.9-1.3,5.4C485.1,441.1,480.9,443.8,476.7,440.5z"/>
		<path class="st49" d="M804.9,494.8c-4.1,0.6-8.1,1.2-12.2,1.9c0.1-2.9,0.2-5.8,0.3-8.7c0.5,0.6,0.9,1.1,1.4,1.7
			c2.4,3,5.8,1.3,8.8,1.8c0,0,0,0,0,0C803.7,492.6,804.3,493.7,804.9,494.8z"/>
		<path class="st60" d="M803,361.7c-1.7-1.2-3.4-2.4-5.1-3.6c-1.1-2.1-2.1-4.2-1.8-6.7c3.5,1.5,6.4,3.7,8.8,6.6c0,0.6,0,1.2,0,1.8
			C804.3,360.3,803.7,361,803,361.7z"/>
		<path class="st31" d="M850.6,442.3c-1.2,0-2.4,0-3.7,0c-0.7-0.1-1.3-0.1-2-0.2c0.5-3.8,3.3-6.1,5.7-8.6c1.2,1.7,2.3,3.5,3.5,5.2
			c0,0,0,0,0,0c0,0.6,0,1.2-0.1,1.8C852.9,441.1,851.7,441.7,850.6,442.3z"/>
		<path class="st7" d="M367.8,475.6c-2.9-1.8-8.6-0.6-7-6.9c2.3,0,4.7,0,7,0C367.2,471,371,473.3,367.8,475.6z"/>
		<path class="st61" d="M367.8,475.6c3.2-2.3-0.6-4.6,0-6.9c1.2,0,2.4,0,3.5,0.1c0.7,2.9,4.6,5.1,2.2,8.6c-1.5,2.1-3.8-0.3-5.7,0
			C367.8,476.8,367.8,476.2,367.8,475.6z"/>
		<path class="st62" d="M677.1,261.7c-1.1-2.8,1.4-6.4-1.8-8.8c-0.2-3.1-0.8-6.2,0.7-9.9C679,249.5,680,255.5,677.1,261.7z"/>
		<path class="st23" d="M474.9,423.3c0,1.1,0.1,2.2,0.1,3.3c0,1.1,0,2.2,0,3.3c-0.6,1.2-1.2,2.4-1.8,3.7c-1.3-1.2-2.6-2.5-3.9-3.7
			C469.7,426.4,471.9,424.5,474.9,423.3z"/>
		<path class="st63" d="M538,342.3c3,2.8,8.6,2.9,8.7,8.6c-3.9-1.7-7.9-3.4-10.7-6.8C536.8,343.5,537.4,342.9,538,342.3z"/>
		<path class="st64" d="M453.8,468.5c-0.1-2-1-3.2-3.2-3.3c0.3-0.6,0.6-1.3,1-1.9c1.9-0.6,3.8-1.1,5.7-1.7c-2.2,1.5,8.4,1.5,0.4,3.8
			C456.3,465.9,455.1,467.4,453.8,468.5z"/>
		<path class="st65" d="M431,509c-1.1-0.6-2.3-1.2-3.4-1.7c0-1.2-0.1-2.4-0.1-3.5c0,0,0,0,0,0c1.9-0.7,3-2.2,3.8-3.9
			c1.6,0.7,1.5,2.2,1.6,3.6C432.7,505.4,433.1,507.7,431,509z"/>
		<path class="st46" d="M854.1,438.8c-1.2-1.7-2.3-3.5-3.5-5.2c1.2-2.6,2.8-4.9,5.3-6.5C855.3,431,854.7,434.9,854.1,438.8z"/>
		<path class="st20" d="M486.9,572.2c-2.1-1.3-5-1.9-5-5.2c2-2.4,3.8-2.1,5.5,0.4C487.3,568.9,487.1,570.5,486.9,572.2z"/>
		<path class="st54" d="M436.2,549.3c0.8,2.2,4.3,3.9,1.8,6.8c-2.3,2.6-3.1-1.3-4.9-1.4C433.6,552.6,434.4,550.6,436.2,549.3z"/>
		<path class="st66" d="M722.5,515.8c0.9-4.3,4-5.9,8-6.5C729.5,513.6,726.7,515.5,722.5,515.8z"/>
		<path class="st67" d="M462.8,438.8c2.2,1.3,6.4,0.5,5,5.2c-1.2,0.6-2.3,1.2-3.5,1.8c-0.6-1.5-1.4-2.6-3-3.1
			c-0.2-0.3-0.5-0.5-0.8-0.6C461.3,441,462.1,439.9,462.8,438.8z"/>
		<path class="st68" d="M676.8,361.7c-1.7,1-3.4,2.1-5.1,3.1c-3.4,0-5.3-2.9-7.9-4.5C668.1,360.7,672.4,361.2,676.8,361.7z"/>
		<path class="st69" d="M564.4,356.1c-2.3,0-4.7-0.1-7-0.1c0-0.3,0-0.7,0.1-1c0.4-1.2-1.8-2.6-0.1-3.6c1.3-0.7,2.7,0,3.6,1.3
			C562.1,353.8,563.2,354.9,564.4,356.1z"/>
		<path class="st70" d="M757.6,475.6c0.6-0.7,1.3-1.3,1.9-2c2.4,2.5,4.3,5.2,4.9,8.7C760.1,482.2,759.4,478.3,757.6,475.6z"/>
		<path class="st71" d="M480.4,472.2c-1.3,0.6-2.5,1.2-3.8,1.8c-1.3-0.2-2.6-0.3-4.3-0.6c2.7-3.3,6.6-2.8,9.3-4.8
			C481.9,470,481.7,471.3,480.4,472.2z"/>
		<path class="st72" d="M701.3,284.1c-0.5,0.1-1,0.2-1.5,0.3c0-3.5,0-7,0-10.7c2.6,1,2.9,3.2,3,5.4
			C701.1,280.4,701.5,282.3,701.3,284.1z"/>
		<path class="st56" d="M905,423c3.2,2.1,6.9,1.8,10.5,1.7c-1.2,1-2.4,2.1-3.6,3.1C910.2,425.4,905,427.9,905,423z"/>
		<path class="st73" d="M548.6,321.2c2.7,1.3,4.8,3,5.2,6.2c-2.3-0.3-4.7-0.6-7-0.9C547.5,324.7,548,322.9,548.6,321.2z"/>
		<path class="st74" d="M759.5,405.6c-0.3,2.1-0.7,4.2-1.1,6.7c-3.9-2.6-3-4.7-0.5-6.9c0,0,0.8-0.1,0.8-0.1L759.5,405.6z"/>
		<path class="st28" d="M643.3,223.2c0-0.6,0.1-1.2,0.1-1.9c3.1-0.6,5.7,1.3,8.5,1.9c-0.6,0.6-1.2,1.1-1.8,1.7
			C647.8,224.5,645.3,225,643.3,223.2z"/>
		<path class="st75" d="M746.7,501.8c4.2-1.6,8.3-3,12.4,0.2c-3,0.5-5.9,1-8.9,1.4C749.1,502.9,747.9,502.3,746.7,501.8z"/>
		<path class="st39" d="M810.4,365.1c0.4,0,0.8,0,1.2,0c1.7,1.3,2.6,2.9,2.2,5.1c-0.1,0.7-0.1,1.4-0.2,2.1c0,0.5,0.1,1,0.1,1.5
			c-0.6,0-1.2,0-1.8,0c0,0,0,0,0,0C811.8,370.8,809.5,368.3,810.4,365.1z"/>
		<path class="st76" d="M734.8,508.9c-0.7-5.7,3.5-5,6.9-5.2c0,0.5,0,1.1,0,1.6C739.4,506.5,737.1,507.7,734.8,508.9z"/>
		<path class="st77" d="M397.6,510.7c1.2,1.1,2.3,2.2,3.5,3.3c-4,0.3-7.5-0.7-10.6-3.3C392.9,510.8,395.3,510.8,397.6,510.7z"/>
		<path class="st78" d="M650.1,319c0.2-2.4,0.1-4.8,2.1-6.6c0.5,1.1,1,2.3,1.5,3.4c-0.6,2.3-1.2,4.7-1.7,7
			C651.4,321.5,650.7,320.3,650.1,319z"/>
		<path class="st79" d="M587,273.9c-0.6,1.3-1.2,2.5-1.8,3.8c-2.2-3-1.5-6.3-1.7-10.3C586.3,269.5,586.4,271.8,587,273.9z"/>
		<path class="st80" d="M759.5,405.6l-0.8-0.2c0,0-0.8,0.1-0.8,0.1c1.6-2.4,3.3-4.8,4.9-7.2c0.6,0.6,1.2,1.3,1.7,1.9
			C763.9,402.9,761.5,404.1,759.5,405.6z"/>
		<path class="st81" d="M762.8,502c2.7-1.7,6.2,0.6,8.8-1.7C769.6,505.6,766.3,504.5,762.8,502z"/>
		<path class="st82" d="M741.7,505.3c0-0.5,0-1.1,0-1.6c1.3-1.7,3.2-1.7,5-2c1.2,0.5,2.4,1.1,3.5,1.6
			C747.4,504,744.6,504.7,741.7,505.3z"/>
		<path class="st83" d="M569.1,373.7c2-0.7,3.9-1.4,5.9-2.1c-1.3,3.2-3.2,5.5-6.9,5.7C568.3,376.1,568.7,374.9,569.1,373.7z"/>
		<path class="st25" d="M568,582.4c0.7-0.5,1.4-1.1,2.1-1.6c2.1-0.2,4.1-0.4,7.8-0.8C573.9,583.7,571,583,568,582.4z"/>
		<path class="st84" d="M798,477.5c1.5,2.8,5.5,0.6,7,3.4c-3,0-6-0.1-9-0.1C796,479.3,796.4,478.1,798,477.5z"/>
		<path class="st85" d="M836.5,508.9c0-2.8,0.1-5.7,0.1-8.5c2.8,1.2,0.4,5,3.1,6.2l0.3,0.7C839.2,508.6,838,509.1,836.5,508.9z"/>
		<path class="st86" d="M650.1,225c0.6-0.6,1.2-1.1,1.8-1.7c1.9,0.8,4.6,0.6,5.1,3.9C654.4,227.1,652,226.8,650.1,225z"/>
		<path class="st87" d="M431.2,499.8c-0.8,1.8-1.9,3.2-3.8,3.9c0.2-2.4-0.7-5,1.5-6.9C429.7,497.8,430.5,498.8,431.2,499.8z"/>
		<path class="st60" d="M905,405.4c-2.6,4.1-5-0.4-7.5-0.2c2.3-1.6,4.9-1.6,7.6-1.2C905,404.4,905,404.9,905,405.4z"/>
		<path class="st88" d="M482.1,465.5c-0.9-2.6-4.2-1.3-6.2-3.9c2.9,0,5.2,0,7.4,0C483.7,463.1,483.3,464.4,482.1,465.5z"/>
		<path class="st89" d="M669.3,236.2c-2.6-1.4-4.2-2.4-4.3-4.7C668.2,231.3,668.8,233.1,669.3,236.2z"/>
		<path class="st90" d="M701.3,284.1c0.1-1.8-0.3-3.7,1.6-5c0.3,3.1,1.1,6.3-1.4,8.9C701.4,286.7,701.4,285.4,701.3,284.1z"/>
		<path class="st67" d="M840.1,498.5c2.6,1.9,1.4,4.8,1.8,7.3c-0.6,0.5-1.2,1-1.8,1.5c0,0-0.3-0.7-0.3-0.7
			C839.8,503.9,840,501.2,840.1,498.5z"/>
		<path class="st33" d="M478.4,556.4c2.4-3,5.8-1.3,8.8-1.8c0.4,0.5,0.5,1,0.3,1.5c-0.2,0.2-0.5,0.4-0.7,0.6
			C484,556.7,481.2,556.6,478.4,556.4z"/>
		<path class="st91" d="M634.7,250.9c-0.6,0-1.2,0.1-1.8,0.1c-0.2-1.8,0.5-4.1,2.1-4c2.4,0.1,0.9,2.5,1.1,3.9
			C635.7,250.9,635.2,250.9,634.7,250.9z"/>
		<path class="st92" d="M662.1,503.7c1.4,2.2,2.9,4.5,4.3,6.7c-0.1,0.9-0.2,1.8-0.3,2.6c-1.1-0.8-2.2-1.6-3.2-2.5
			c-18.4-18.3-35.2-37.9-47.6-60.8c-9.3-17.1-17.3-34.9-19.4-54.6c0.5-1.2,1.1-2.5,1.6-3.7c11.7,41.4,33.9,76.9,61.4,109.3
			C659.8,501.9,661,502.8,662.1,503.7z"/>
		<path class="st92" d="M606.4,381.1c12.9,18.9,28.7,35.1,45.5,50.5c9,8.2,17.8,16.7,25.8,25.9c-29.3-21-58.9-41.8-74.8-76.2
			c0.1-0.8,0.2-1.7,0.3-2.5C604.2,379.5,605.3,380.3,606.4,381.1z"/>
		<path class="st93" d="M606.4,381.1c-1.1-0.8-2.1-1.6-3.2-2.4c-0.4-2.4-1.5-4.3-4.1-4.9c1.8-5.9,4.8-4.3,7.1-0.6
			C607.5,375.4,608.3,378.4,606.4,381.1z"/>
		<path class="st94" d="M582.2,417.9c-1.2-3.4,1.2-7.3-1.7-10.4c-0.1-3.7-1.4-7.6,1.4-11c0.6,0.6,1.1,1.2,1.7,1.8
			C583.3,404.8,585,411.5,582.2,417.9z"/>
		<path class="st95" d="M636.6,366.6c-0.6,0.6-1.2,1.2-1.9,1.8c-3.5-1.6-6-4.2-6.8-8.8C630.8,361.9,633.7,364.3,636.6,366.6z"/>
		<path class="st96" d="M568,403.8c-0.6-1.2-1.1-2.4-1.7-3.5c0-3,1.2-5.2,4.5-8.1C570.5,397.2,570.3,400.7,568,403.8z"/>
		<path class="st97" d="M584.6,374.1c0.7,3.8,2.2,7.6-1.5,11.3C581.5,380.9,584.6,377.6,584.6,374.1z"/>
		<path class="st98" d="M594,384.6c-2.3-3.4-1.6-7.1-0.7-12.6c1.1,4.7,1.8,7.7,2.5,10.8C595.2,383.4,594.6,384,594,384.6z"/>
		<path class="st99" d="M594,384.6c0.6-0.6,1.2-1.2,1.8-1.8c0.6,2.9,1.1,5.8,1.7,8.7c-0.5,1.2-1.1,2.5-1.6,3.7
			C593.3,392,594.5,388.2,594,384.6z"/>
		<path class="st100" d="M622.3,370.7c-0.1,0.6-0.2,1.3-0.3,1.9c-3.4-1.1-5.8-3.3-8.1-7.1C618.2,365.8,620.2,368.3,622.3,370.7z"/>
		<path class="st97" d="M657.3,370.5c1.8,0.7,3.7,1.3,6.5,2.3c-4.1,1.5-7.1,1.4-10-0.6C654.9,371.7,656.1,371.1,657.3,370.5z"/>
		<path class="st101" d="M583.5,398.3c-0.6-0.6-1.1-1.2-1.7-1.8c0.2-2.5,0.4-4.9,0.7-8.6C584.4,392.1,583.5,395.2,583.5,398.3z"/>
		<path class="st102" d="M599,373.8c2.6,0.6,3.7,2.5,4.1,4.9c-0.1,0.8-0.2,1.7-0.3,2.5C600.7,379.2,599.7,376.6,599,373.8z"/>
		<path class="st103" d="M666.1,513c0.1-0.9,0.2-1.8,0.3-2.6c2.3,1.6,4.1,3.4,5.2,6.5C668.5,516.6,667.3,514.9,666.1,513z"/>
		<path class="st104" d="M824.1,538.6c-0.6,4.1-1.2,8.2-1.8,12.3c-3.4-12.1-0.8-24.4-1.4-36.5c0.6-0.1,1.1-0.2,1.7-0.1
			C822.9,522.4,820.3,530.7,824.1,538.6z"/>
		<path class="st13" d="M631,319.6c-16.2-15.3-24.1-33.7-20-56.3c2.9,22,12.8,40.8,26.2,58C634.4,323.3,633.2,319.7,631,319.6z"/>
		<path class="st105" d="M632.9,331.3c-5.2,0-10.5,0-16.5,0c2.6-1.9,5-2.9,7.8-3C626.4,331.4,630.6,328.5,632.9,331.3z"/>
		<path class="st106" d="M631,319.6c2.2,0.1,3.4,3.7,6.2,1.7c1.9,3.2,0.9,4.8-2.7,5c-0.8-2.8-4-2.8-5.4-5
			C629.7,320.8,630.4,320.2,631,319.6z"/>
		<path class="st107" d="M638.5,312.1c0.5-1.1,1-2.3,1.5-3.4c0.7,1.8,1.3,3.6,2,5.4C639.2,316.5,639.2,313.7,638.5,312.1z"/>
		<path class="st7" d="M461.3,442.7c1.6,0.5,2.4,1.6,3,3.1c0,0,0,0,0,0c-3.2,1.3-3.7,4-3.5,7c0,0,0,0,0,0c-1.1-1.2-2.1-2.4-3.2-3.6
			C458.9,447.1,460.1,444.9,461.3,442.7z"/>
		<path class="st108" d="M592.9,344.3c-0.9-1.7-2.5-2-4.1-2.3c1.7-1.4,3.9-2.4,5.6-1C595.7,342.1,594,343.4,592.9,344.3z"/>
		<path class="st109" d="M813.7,373.8c0-0.5,0-1-0.1-1.5c4,1.7,6,5.6,8.9,8.6c0.7,4.8,4.4,8.8,3.7,14c-1.3-0.6-2.5-1.2-3.8-1.7
			c0,0,0,0,0,0c0.1-3-0.3-5.7-3.5-7c-1.5-2.2-0.6-5.6-3.5-7C814.9,377.3,814.3,375.5,813.7,373.8z"/>
		<path class="st46" d="M813.7,373.8c0.6,1.8,1.2,3.5,1.8,5.3c-3.5-0.7-6.9-2.4-11.5,1.6c2-5.6,6.4-4.1,8-6.8
			C812.5,373.8,813.1,373.8,813.7,373.8z"/>
		<path class="st24" d="M810.4,365.1c-0.8,3.2,1.4,5.8,1.6,8.7c-2.3-1.2-4.7-2.3-7-3.5C809,370.9,806.6,364.8,810.4,365.1z"/>
		<path class="st53" d="M822.5,412.5c0,0.6,0,1.1,0,1.7c-4.1-0.7-8.6,1.6-12.3-1.7C814.3,413.3,818.4,410.7,822.5,412.5z"/>
		<path class="st110" d="M804.7,402.5c2.4,0.5,4.8,1.1,7.5,1.7C809.2,406.6,807,405.1,804.7,402.5z"/>
		<path class="st111" d="M819,386.1c3.2,1.3,3.6,4.1,3.5,7C820.2,391.4,819.2,388.9,819,386.1z"/>
		<path class="st11" d="M829.9,477.4c-0.1-7.2-0.6-14.5,1.2-21.6C831,463,832.8,470.3,829.9,477.4z"/>
		<path class="st112" d="M816.2,418.6c-2.7,1.1-4.5,1.3-6.3,0.1C811.7,417.3,813.5,417.5,816.2,418.6z"/>
		<path class="st113" d="M868.1,433.5c0-1.4,0.3-2.8,1.7-3.5c1.8,1.8,3.5,3.5,5.3,5.3c0.6,1.1,1.2,2.3,1.7,3.4
			c0.9,1.9,1.4,3.6-1.8,3.6c-1.7-0.6-3.5-1.2-5.2-1.8C865,439.3,870.4,435.4,868.1,433.5z"/>
		<path class="st46" d="M850.6,442.3c1.2-0.6,2.3-1.2,3.5-1.8c2.4,2.8,4.8,5.6,7.2,8.4C855.2,450.7,853.1,446.2,850.6,442.3z"/>
		<path class="st46" d="M882.2,414.2c0.3,2.4-0.9,5.2,1.8,7c-2.5,2.2-5,4.5-1.2,8.5C874.5,424.1,880.7,419.2,882.2,414.2z"/>
		<path class="st114" d="M876.9,438.7c-0.6-1.1-1.2-2.3-1.7-3.4c4.1-5.5,5.8,1.2,8.8,1.7c-0.6,1.2-1.2,2.4-1.7,3.6
			C880.4,440,878.7,439.4,876.9,438.7z"/>
		<path class="st53" d="M882.2,440.6c0.6-1.2,1.2-2.4,1.7-3.6c2,1.4,3.9,2.8,6,4.3C886.7,444.2,884.1,444.5,882.2,440.6z"/>
		<path class="st115" d="M859.4,440.5c2.8,1.3,8.4,0.1,5.5,6.8C861.6,446.1,859.6,444.1,859.4,440.5
			C859.4,440.5,859.4,440.5,859.4,440.5z"/>
		<path class="st24" d="M869.9,440.5c1.7,0.6,3.5,1.2,5.2,1.8c0.8,1.4,1.7,2.9,3.1,5.4C873.7,446.1,871.7,443.4,869.9,440.5z"/>
		<path class="st116" d="M855.9,437c1-2.3,2.7-3.5,5.3-3.5c-1.2,2.2-2,4.5-1.8,7c0,0,0,0,0,0C858.2,439.4,857,438.2,855.9,437z"/>
		<path class="st46" d="M889.2,419.5c1.8-2.2,4.2-3.2,7-3.5c-0.6,1.2-1.1,2.3-1.7,3.5C892.7,419.4,891,419.4,889.2,419.5z"/>
		<path class="st117" d="M467.9,477.4c-4.1,2.7-8.2,2.8-12.3,0C459.7,475.7,463.8,475.7,467.9,477.4z"/>
		<path class="st118" d="M476.7,454.6c-1.2-1-2.5-2-3.8-3c3.6-1.4,6.1,1.3,9.5,1.5C480.5,455.4,478.4,454.2,476.7,454.6L476.7,454.6
			z"/>
		<path class="st44" d="M460.8,452.8c-0.2-3,0.3-5.7,3.5-7C463.1,448.1,465.4,452.2,460.8,452.8z"/>
		<path class="st33" d="M469.6,442.3c1.8-2.6,4.6-1.5,7-1.8C475.7,446.6,471.9,441.4,469.6,442.3z"/>
		<path class="st119" d="M476.6,454.6c-2,2.3-4.4,2.1-7.3,1C471.8,453.7,474.4,455,476.6,454.6C476.7,454.6,476.6,454.6,476.6,454.6
			z"/>
		<path class="st120" d="M467.9,487.9c0,0.6,0,1.2,0,1.7c-5.3,2.9-10.3-0.4-15.6-1.7C457.5,487.9,462.7,487.9,467.9,487.9z"/>
		<path class="st121" d="M462.6,484.4c3.1-3,6.9-1.5,10.5-1.4c0.1,0,0.4,0.4,0.4,0.7c0,0.3-0.2,0.5-0.3,0.8
			C469.6,484.4,466.1,484.4,462.6,484.4z"/>
		<path class="st49" d="M805,510.8c0,0.3,0,0.6-0.2,0.8c-0.3,0.4-0.7,0.7-1.1,1c-1.1-4-2.8-8-2.3-12.3
			C807.8,502,803.7,507.3,805,510.8z"/>
		<path class="st18" d="M813.7,480.9c1.5,0,2.8-0.3,3.5-1.8c1.3,0.3,2.7,0.7,4,1c-0.9,3.1-3.6,2.3-5.7,2.5c-0.6,0-1.2,0-1.8,0
			C813.7,482.1,813.7,481.5,813.7,480.9z"/>
		<path class="st113" d="M819.3,487.9c3.1,1.2,4.8,2.9,2.8,6.8C820.9,491.9,820.1,489.9,819.3,487.9z"/>
		<path class="st44" d="M390.6,473.9c6,2.3,4.9,7.6,5.3,12.3c-3.5-0.6-7-2.9-10.5,0c-0.6-2.3-1.2-4.7-1.7-7c2.6,0.8,4.5,5,7.3,2.7
			C393.4,479.8,389.7,476.6,390.6,473.9z"/>
		<path class="st116" d="M401.2,500.2c2.8,1.7,0.5,3.5,0,5.2c-1.8-0.2-4.6,0.8-4.5-2.2C396.7,500.9,399.1,500.4,401.2,500.2z"/>
		<path class="st15" d="M404.7,487.9c1.2,0.6,1.2,1.2,0,1.8c-2.2,0.7-5.7,5.6-5.3-1.7c0.6,0,1.2-0.1,1.8-0.1
			C402.4,487.9,403.5,487.9,404.7,487.9z"/>
		<path class="st122" d="M401.2,487.9c-0.6,0-1.2,0-1.8,0.1c-1.4-0.1-2.8-0.4-3.5-1.8c2.7,0.3,3.4-2.4,5.3-3.5
			C401.2,484.4,401.2,486.2,401.2,487.9z"/>
		<path class="st123" d="M650.1,319c0.6,1.3,1.2,2.5,1.9,3.8c0,1.1,0,2.3,0.1,3.4c-2.7,2.3-0.1,6.5-3.2,8.7
			C649,329.6,647.4,324.1,650.1,319z"/>
		<path class="st124" d="M457.2,579.3c0,5.8,0.1,11.6,0.1,17.4c-2.9-2.3-3.7-5.4-3.2-9c2.6-2.5,1.2-5.6,1.5-8.5
			C456.1,579.2,456.7,579.2,457.2,579.3z"/>
		<path class="st125" d="M455.6,579.2c-0.3,2.9,1.1,6-1.5,8.5c-0.2-1.6-0.4-3.3-0.7-4.9C453.8,581.4,452.7,579.1,455.6,579.2z"/>
		<path class="st40" d="M367.8,482.6c-3.6,2.6-5.8,0.3-7-2.6c-0.4-0.8,2.2-0.7,3.5-0.9C365.4,480.3,366.6,481.5,367.8,482.6z"/>
		<path class="st77" d="M427.5,503.7c0,1.2,0.1,2.4,0.1,3.5c-3.2,5.3-7.9,7.5-14,6.5c3.1-3.2,6.7-5.9,8.7-10.1
			c2.7-1.7,1.2-4.7,2.2-7.3C427,498.5,424.5,502.3,427.5,503.7z"/>
		<path class="st77" d="M406.4,498.5c1.8,0.6,3.5-2.1,5.3,0c-0.7,1.5-1.5,3.1-3.5,2.4C407.4,500.6,404.8,500.8,406.4,498.5z"/>
		<path class="st19" d="M471.4,572.2c-1.8,1.1-1.2,3.2-2,4.5c-2,3.3-2.8,1.3-3.3-1c-1.5-6.9,6.2-10.9,5.3-17.6
			C475.9,562.8,469.6,567.5,471.4,572.2z"/>
		<path class="st87" d="M452.1,575.7c3.5-4.1,1.2-9.6,3.5-14c0.9,3.9,2.2,7.7,1.8,11.8C457,578.1,454.6,576.8,452.1,575.7z"/>
		<path class="st39" d="M401.2,487.9c0-1.7-0.1-3.5-0.1-5.2c-0.7-2.2-3.1-4.4-0.3-6.8c1,4.1,4.4,7.4,3.9,12
			C403.5,487.9,402.4,487.9,401.2,487.9z"/>
		<path class="st126" d="M453.8,547.6c2.3-1.2,4.7-2.3,7-3.5c1.8,1.2,3.5,2.3,5.3,3.5c-1.8,0.6-3.5,1.2-5.3,1.8
			C458.7,548.2,456.4,547.3,453.8,547.6z"/>
		<path class="st20" d="M460.9,549.4c1.8-0.6,3.5-1.2,5.3-1.8c0.6,0.6,1.2,1.2,1.7,1.8c1.8,2.4-2,1.9-1.7,3.5c-1.2,0-2.4,0-3.5,0
			c-0.6-0.6-1.2-1.2-1.7-1.8C460.8,550.6,460.8,550,460.9,549.4z"/>
		<path class="st127" d="M460.8,551.1c0.6,0.6,1.2,1.2,1.7,1.8c-1.6,0.3-1.9,3.9-3.7,2.3C457.7,554.2,459.3,552.1,460.8,551.1z"/>
		<path class="st128" d="M453.8,551.1c1.1,0,2.8-2,2.9,0.6c0.1,1-1.4,2.1-2.1,3.2C454.3,553.7,454.1,552.4,453.8,551.1
			C453.8,551.1,453.8,551.1,453.8,551.1z"/>
		<path class="st129" d="M867.3,427c-1.3-1.1-2.3-2.3-1.9-4.1c0-0.1,1.1-0.3,1.3-0.1C867.9,423.9,868.7,425.3,867.3,427z"/>
		<path class="st39" d="M840.1,498.5c-0.1,2.7-0.2,5.4-0.3,8.1c-2.8-1.2-0.3-5-3.1-6.2c0-2.4,0-4.8-0.1-7.2c0-0.6,0-1.2,0-1.7
			C838.8,493.2,839.8,495.7,840.1,498.5z"/>
		<path class="st71" d="M836.5,491.4c0,0.6,0,1.2,0,1.7c-4.7-0.5-3.1-4.3-3.5-7C836.6,486.3,836.5,488.9,836.5,491.4z"/>
		<path class="st59" d="M487.2,422.9c6.6,0.8-1.5,5.4,1.8,7.1c-1.2,2.1-3.3,1.7-5.3,1.8c-0.6-0.6-1.2-1.2-1.8-1.8
			c-0.7-1.4-2.1-1.6-3.5-1.7C479.6,423.7,485,426,487.2,422.9z"/>
		<path class="st5" d="M481.8,430c0.6,0.6,1.2,1.2,1.8,1.8c-3.1,3.4-6.6,3.7-10.6,1.8c0.6-1.2,1.2-2.4,1.8-3.7
			C477.2,429.9,479.5,429.9,481.8,430z"/>
		<path class="st110" d="M813.7,480.9c0,0.6,0,1.2,0,1.7c-2.9-0.2-5.8,0.2-8.5,1.4c-0.7,0.3-2.5,1-1.9-1.2c0.2-0.8,1.1-1.3,1.6-2
			C807.8,480.9,810.8,480.9,813.7,480.9z"/>
		<path class="st130" d="M803.1,491.4c-2.9-0.5-6.3,1.2-8.8-1.8C797.3,490.2,800.7,488.5,803.1,491.4z"/>
		<path class="st18" d="M478.4,556.4c2.8,0.1,5.6,0.3,8.4,0.4c0,1.7,1.1,4.8-2.5,2.7c-1.9-1.1-3.8-1.3-5.8-1.4
			C478.4,557.5,478.4,557,478.4,556.4z"/>
		<path class="st131" d="M480.2,566.9c-1.5,4.2-1.4,4.1,1.5,7.7c0.7,0.8,0,2.8-0.1,4.3c-6.3,2.3-6.9-4.3-10.2-6.7
			c1.8-1.4,4.4-1.3,4.7-5.2C476.4,561.1,478.7,564.9,480.2,566.9z"/>
		<path class="st132" d="M481.8,430c-2.3,0-4.6-0.1-6.9-0.1c0-1.1,0-2.2,0-3.3c1.1,0.6,2.3,1.1,3.4,1.7
			C479.8,428.3,481.1,428.5,481.8,430z"/>
		<path class="st36" d="M803,361.7c0.7-0.7,1.3-1.3,2-2c0.4,7.2-5.1,4.9-8.8,5.3C797.6,362.2,801.6,364.5,803,361.7z"/>
	</g>
</g>
<g>
	<path class="st39" d="M492.9,688.5c-1.9-2-4.1-3-6.8-3c-2.8,0-5.2,1-7,3c-1.9,2-2.8,4.3-2.8,6.9c0,2.6,0.9,4.9,2.8,6.9
		c1.9,2,4.2,3,7,3c2.6,0,4.9-1,6.8-3c1.9-2,2.8-4.3,2.8-6.9C495.7,692.8,494.8,690.5,492.9,688.5z M469.4,688.5c-2-2-4.3-3-6.9-3
		c-2.8,0-5.2,1-7.1,3c-1.9,2-2.8,4.3-2.8,6.9c0,2.6,0.9,4.9,2.8,6.9c1.9,2,4.2,3,7.1,3c2.6,0,4.9-1,6.9-3c2-2,2.9-4.3,2.9-6.9
		C472.4,692.8,471.4,690.5,469.4,688.5z"/>
	<path class="st39" d="M548.1,690.8c-1.9-2-4.1-3-6.8-3c-2.8,0-5.2,1-7,3c-1.9,2-2.8,4.3-2.8,6.9c0,2.6,0.9,4.9,2.8,6.9
		c1.9,2,4.2,3,7,3c2.6,0,4.9-1,6.8-3c1.9-2,2.8-4.3,2.8-6.9C550.9,695,550,692.7,548.1,690.8z M524.6,690.8c-2-2-4.3-3-6.9-3
		c-2.8,0-5.2,1-7,3c-1.9,2-2.8,4.3-2.8,6.9c0,2.6,0.9,4.9,2.8,6.9c1.9,2,4.2,3,7,3c2.6,0,4.9-1,6.9-3c2-2,3-4.3,3-6.9
		C527.5,695,526.6,692.7,524.6,690.8z"/>
	<path class="st39" d="M580.6,782.1c-1.2-5.1-2.9-9.8-5.1-14.2c-2.2-4.4-4.7-8.6-7.7-12.5c-3-3.9-6.3-7.8-9.9-11.5
		c-2.8-3-4.8-6.2-5.9-9.7c-1.1-3.5-1.7-6.9-1.7-10.3c0-1.3,0.2-2.6,0.7-3.9c0.5-1.3,1-2.4,1.5-3.4l-1.7-0.8
		c-0.9,1.1-3.3,4.2-7.2,9.3c-3.9,5.1-7.9,10.8-12.1,17.3c-4.2,6.5-8,13-11.4,19.6c-3.4,6.6-5.1,12-5.1,16.3c0,5.3,1.7,9.1,5.1,11.7
		c3.4,2.5,7.8,4.1,13.2,4.7c11.8,0.9,20.5,3.9,25.9,8.9c5.4,5,8.2,10.5,8.2,16.5c0,1.5-0.2,3.2-0.6,5.2c-0.4,2-0.8,3.7-1.4,5.2h-0.3
		c-2.3-11.1-6.7-18.7-13.4-22.9c-6.7-4.2-15.4-6.3-26.3-6.3h-24.8c0-4.3-0.2-8.7-0.7-13.1c-0.5-4.4-1.2-9.1-2.1-13.9h-2.8
		c0.2,2.1,0.3,4.1,0.4,6.1c0.1,2,0.1,4,0.1,6c0,2.5,0,4.9-0.1,7.3c-0.1,2.4-0.2,5-0.4,7.6h-9.6v-87.8h-2c-0.8,1.7-1.7,3.4-2.8,5.2
		c-1.1,1.8-2.6,3.8-4.4,6.2c-1.8,2.4-4,5.1-6.6,8.2c-2.6,3.1-5.8,6.8-9.6,11.1c-4.1,4.9-8.5,10.6-13,17.2
		c-4.5,6.6-8.7,13.8-12.5,21.5c-3.8,7.8-7,16.1-9.4,25.1c-2.5,8.9-3.7,18.1-3.7,27.7c0,5.1,0.9,9.8,2.5,14.2c1.7,4.4,4,8.3,7,11.7
		c3,3.4,6.6,6.1,10.8,8c4.2,2,8.9,3,13.9,3c5.3,0,10.1-1.2,14.7-3.5c4.5-2.4,8.5-5.6,12.1-9.9c3.6-4.2,6.7-9.2,9.3-14.9
		c2.6-5.7,4.7-12,6.2-18.7h23.1c11.6,0,20.5,2.6,26.5,7.7c6,5.2,10,11.5,12.1,19h1.1c2.1-3,4.3-6.5,6.8-10.5c2.4-4,4.7-8.4,6.9-13.1
		c2.2-4.7,4-9.6,5.5-14.6c1.5-5.1,2.3-10,2.3-14.9C582.4,792.7,581.8,787.2,580.6,782.1z M552.6,774.2c-1.3-0.9-3.4-1.8-6.3-2.5
		c-2.9-0.7-5.5-1.3-7.7-1.7c-4.1-0.4-7-1.3-8.7-2.8c-1.7-1.5-2.5-3.4-2.5-5.6c0-1.5,0.8-3.7,2.4-6.7c1.6-3,3.1-5.5,4.4-7.6l0.8,0.6
		c0,3,0.8,5.9,2.4,8.6c1.6,2.7,3.4,5.2,5.5,7.5c1.7,1.7,3.6,3.4,5.6,5.2c2.1,1.8,3.6,3.4,4.5,4.9L552.6,774.2z M489.1,830
		c-0.7,1.5-1.4,3-2.1,4.5c-2.8,4.9-6.4,8.4-10.8,10.6c-4.4,2.1-8.3,3.2-11.7,3.2c-5.3,0-9.7-0.8-13.4-2.5c-3.7-1.7-6.7-3.9-9-6.8
		c-2.3-2.8-4.1-6.1-5.2-9.7c-1.1-3.7-1.7-7.5-1.7-11.4c0-8.3,1.1-16.1,3.4-23.5c2.3-7.4,5-14.2,8.3-20.4c3.3-6.2,6.7-11.8,10.1-16.7
		c3.5-5,6.4-9.1,8.9-12.3h1.7v80.2h23.4C490.4,826.9,489.8,828.5,489.1,830z"/>
	<path class="st39" d="M647,721.4c-2-2-4.4-2.9-7.2-2.9c-2.8,0-5.2,1-7.2,2.9c-2,2-2.9,4.4-2.9,7.2c0,2.8,1,5.2,2.9,7.2
		c2,2,4.4,2.9,7.2,2.9c2.8,0,5.2-1,7.2-2.9c2-2,3-4.4,3-7.2C650,725.8,649,723.4,647,721.4z"/>
	<path class="st39" d="M660.7,803.2c0,2.8-0.7,6-2.1,9.6c-1.4,3.6-3.1,7.2-5.1,10.8c-2,3.7-4.1,7.2-6.3,10.7
		c-2.3,3.5-4.2,6.4-5.9,8.9h-1.4c-1.9-5.8-4.4-10.3-7.6-13.4c-3.2-3.1-7.4-4.6-12.7-4.6h0c-3.9,0-6.8,1-8.6,3.1
		c-1.8,2.1-2.9,4.7-3.2,7.9h-1.7c-2.1-1.9-3.9-3.7-5.6-5.6c-1.7-1.9-3.1-3.9-4.2-6.2c-1.1-2.3-2-4.9-2.7-7.9c-0.7-3-1-6.6-1-10.7
		V685.3l16.6-16.6h1.4v123.9c0,5.6,3,8.4,9,8.4h0c4.1,0,8.7,1.4,13.6,4.2c5,2.8,8.8,8.3,11.4,16.3h0.3c1.3-2.4,2-4.9,2-7.3
		c0-2.6-0.7-5.2-2.3-7.6c-1.5-2.4-3.2-4.9-5.1-7.3c-3.2-3.6-6-6.7-8.5-9.6c-2.4-2.8-3.7-6.1-3.7-9.9c0-3.2,1.3-6.7,3.9-10.4
		c2.6-3.7,5-7,7-9.9c0.9-1.3,1.8-2.6,2.7-3.9c0.8-1.3,1.4-2.5,1.8-3.7l1.7,0.8c-0.2,0.4-0.4,1-0.7,2c-0.3,0.9-0.4,1.9-0.4,2.8
		c0,1.5,0.2,3.1,0.7,4.9c0.5,1.8,1.5,3.9,3,6.3c3.9,6,7.2,11.6,9.7,16.7C659.4,790.8,660.7,796.7,660.7,803.2z"/>
	<path class="st39" d="M743.2,689.2v121.6c0,6.2-0.9,12.4-2.8,18.6c-1.9,6.2-4.8,11.8-8.7,16.8c-3.9,5-9,9-15.1,12
		c-6.1,3-13.5,4.5-22.1,4.5c-3.9,0-8.3-0.4-13.1-1.3c-4.8-0.8-9.1-1.9-12.8-3.2v-5.3c1.3,0.4,3.1,0.8,5.3,1.4c2.3,0.6,5,0.8,8.2,0.8
		c6,0,10.9-1.5,14.6-4.6c3.8-3.1,5.6-8,5.6-14.8c0-4.3-1.5-9.2-4.4-14.6c-2.9-5.4-6.3-11.3-10.3-17.5c-3.8-5.6-7.6-11.4-11.5-17.3
		c-3.9-5.9-7.3-11.7-10.1-17.3c-2.3-4.7-4.3-10-6.2-15.9c-1.9-5.9-2.8-11.2-2.8-15.9c0-11.3,1.9-20.6,5.8-28
		c3.8-7.4,8.6-13.4,14.4-17.9c5.7-4.5,12.1-7.7,19-9.6c6.9-1.9,13.5-2.8,19.7-2.8c4.9,0,9.3,0.4,13.2,1.3c3.9,0.8,6.9,1.7,9,2.7
		l-0.8,2.2c-1.5-0.6-3.8-1.2-6.9-1.8c-3.1-0.7-6-1-8.6-1c-5.8,0-11.6,0.8-17.3,2.5c-5.7,1.7-10.8,4.3-15.3,7.7
		c-4.5,3.5-8.2,7.7-11,12.8c-2.8,5.1-4.2,11-4.2,17.7c0,4.5,0.7,9.3,2.3,14.5c1.5,5.2,4,10.7,7.6,16.8c3.2,5.6,6.8,11.2,11,16.6
		c4.1,5.4,7.8,10.8,11,16c3.8,6,6.8,11.7,9,17.2c2.3,5.4,3.4,10.8,3.4,16c0,5.4-1,11-3.1,16.6c-2.1,5.6-5.9,10.3-11.5,14.1l0.3,0.8
		c1.9-0.6,4.1-1.5,6.6-2.7c2.5-1.2,4.9-3.3,7-6.3c2.2-3,4-6.9,5.5-11.8c1.5-4.9,2.2-11.3,2.2-19.1V705.5l16.6-16.3H743.2z
		 M703.8,670.1l-14.9,3.4c-6.4,1.3-10.8,2.6-13.4,3.8c-2.5,1.2-4.6,2.4-6.1,3.5l-1.7-1.4c1.3-2.1,2.7-3.9,4.1-5.6
		c1.4-1.7,2.9-3,4.4-3.9v-0.6c-0.9-0.4-2.2-1.1-3.7-2.1c-1.5-1-2.7-2.2-3.7-3.5c-1.1-0.7-1.7-1.9-1.7-3.4c0-0.7,0.2-1.6,0.7-2.5
		c0.5-0.9,1-1.9,1.5-2.8l7.9-14.6h5.6c3,3.9,6.9,5.9,11.8,5.9c2.3,0,4.1-0.5,5.5-1.4c1.4-0.9,2.6-2.1,3.5-3.4l1.4,0.6
		c-0.9,3.2-2.4,6.2-4.4,9.1c-2,2.9-4.8,4.4-8.6,4.4c-6.2,0-10.7-1.9-13.5-5.6h-0.6l-3.7,6.2c1.5,2.1,3.5,3.8,5.9,5.1
		c2.4,1.3,5.3,2,8.7,2c3,0,5.9-0.3,8.6-1c2.7-0.7,5.9-1.7,9.4-3.2l0.6,0.8L703.8,670.1z"/>
	<path class="st39" d="M823.1,821c5.6,0,11.6-0.7,18-2.1c6.4-1.4,11.9-2.9,16.6-4.4l0.6,1.4c-11.5,6.2-22.1,10.7-32.1,13.5
		c-10,2.8-18.2,4.2-24.8,4.2c-8.3,0-15.2-1.4-20.8-4.1c-5.6-2.7-10.2-6.3-13.7-10.8c-3.5-4.5-6-9.8-7.5-15.8
		c-1.5-6-2.3-12.3-2.3-18.9v-98.8l16.6-16.6h1.4v91.5c0,12.2,1.4,22.2,4.1,30.1c2.7,7.9,6.3,14.1,10.8,18.6
		c4.5,4.5,9.6,7.6,15.3,9.4C811.2,820.1,817.1,821,823.1,821z"/>
</g>
</svg>
